{"glyphs":{"0":{"ha":833,"x_min":107,"x_max":726,"o":"m 417 -14 q 190 67 274 -14 q 107 286 107 149 l 107 728 q 190 947 107 865 q 417 1028 274 1028 q 643 947 560 1028 q 726 728 726 865 l 726 286 q 688 128 726 196 q 581 24 650 61 q 417 -14 511 -14 m 417 104 q 546 155 497 104 q 594 286 594 206 l 594 728 q 546 859 594 808 q 417 910 497 910 q 288 859 336 910 q 239 728 239 808 l 239 286 q 288 155 239 206 q 417 104 336 104 m 417 424 q 355 448 378 424 q 332 511 332 472 q 355 574 332 550 q 417 597 378 597 q 479 574 456 597 q 503 511 503 550 q 479 448 503 472 q 417 424 456 424 z "},"1":{"ha":833,"x_min":122,"x_max":754,"o":"m 124 0 l 124 125 l 394 125 l 394 897 l 122 693 l 122 843 l 353 1014 l 532 1014 l 532 125 l 754 125 l 754 0 l 124 0 z "},"2":{"ha":833,"x_min":96,"x_max":733,"o":"m 124 0 l 124 132 l 451 486 q 549 616 518 558 q 581 731 581 674 q 534 858 581 811 q 408 906 488 906 q 281 857 328 906 q 233 725 233 808 l 96 725 q 183 946 99 864 q 408 1028 268 1028 q 635 948 551 1028 q 718 732 718 868 q 676 578 718 657 q 540 400 633 499 l 285 125 l 733 125 l 733 0 l 124 0 z "},"3":{"ha":833,"x_min":93,"x_max":715,"o":"m 403 -14 q 240 22 310 -14 q 132 124 171 58 q 93 278 93 190 l 231 278 q 277 152 231 197 q 404 107 324 107 q 532 153 486 107 q 578 278 578 200 l 578 349 q 532 476 578 431 q 404 521 486 521 l 292 521 l 292 636 l 528 892 l 136 892 l 136 1014 l 682 1014 l 682 890 l 447 639 q 643 550 571 628 q 715 349 715 472 l 715 278 q 676 124 715 190 q 566 22 636 58 q 403 -14 496 -14 z "},"4":{"ha":833,"x_min":93,"x_max":688,"o":"m 550 0 l 550 217 l 93 217 l 93 426 l 464 1014 l 615 1014 l 229 397 l 229 340 l 550 340 l 550 583 l 688 583 l 688 0 l 550 0 z "},"5":{"ha":833,"x_min":113,"x_max":721,"o":"m 414 -14 q 206 51 286 -14 q 113 229 125 117 l 250 229 q 299 140 257 171 q 415 108 342 108 q 541 153 499 108 q 583 279 583 197 l 583 378 q 542 504 583 460 q 417 549 500 549 q 326 523 365 549 q 271 454 288 497 l 135 454 l 142 1014 l 685 1014 l 685 889 l 274 889 l 269 563 l 274 563 q 336 639 288 611 q 460 667 385 667 q 651 590 582 667 q 721 378 721 514 l 721 279 q 640 65 721 143 q 414 -14 558 -14 z "},"6":{"ha":833,"x_min":85,"x_max":749,"o":"m 418 -14 q 243 27 318 -14 q 126 142 168 68 q 85 314 85 215 q 109 450 85 379 q 178 599 133 521 l 414 1014 l 564 1014 l 288 543 l 293 539 q 366 601 319 578 q 471 624 413 624 q 617 585 554 624 q 714 476 679 546 q 749 315 749 407 q 707 142 749 217 q 591 27 665 68 q 418 -14 517 -14 m 417 107 q 558 163 504 107 q 611 313 611 219 q 558 461 611 404 q 417 518 504 518 q 276 461 329 518 q 222 313 222 404 q 276 163 222 219 q 417 107 329 107 z "},"7":{"ha":833,"x_min":106,"x_max":761,"o":"m 254 0 l 618 890 l 243 890 l 243 726 l 106 726 l 106 1014 l 761 1014 l 761 888 l 406 0 l 254 0 z "},"8":{"ha":833,"x_min":88,"x_max":746,"o":"m 417 -14 q 244 20 318 -14 q 128 115 169 54 q 88 256 88 176 q 141 415 88 342 q 286 529 194 488 q 154 634 199 572 q 110 768 110 696 q 149 902 110 843 q 258 995 189 961 q 417 1029 328 1029 q 575 995 506 1029 q 684 902 644 961 q 724 768 724 843 q 679 635 724 696 q 547 529 635 574 q 692 414 639 486 q 746 256 746 342 q 705 115 746 176 q 590 20 664 54 q 417 -14 515 -14 m 378 596 l 417 581 l 450 594 q 551 663 513 618 q 589 761 589 708 q 541 867 589 826 q 417 908 493 908 q 292 867 340 908 q 244 761 244 826 q 281 663 244 707 q 378 596 318 618 m 417 107 q 558 153 504 107 q 611 272 611 199 q 574 378 611 331 q 474 453 538 426 l 417 475 l 357 451 q 258 378 293 426 q 222 274 222 329 q 276 153 222 199 q 417 107 329 107 z "},"9":{"ha":833,"x_min":85,"x_max":749,"o":"m 271 0 l 544 469 l 539 474 q 467 413 513 435 q 363 390 421 390 q 217 428 279 390 q 119 536 154 467 q 85 699 85 606 q 126 871 85 797 q 242 986 168 944 q 415 1028 317 1028 q 590 987 515 1028 q 707 872 665 946 q 749 701 749 799 q 724 564 749 635 q 654 415 699 493 l 424 0 l 271 0 m 417 494 q 558 551 504 494 q 611 701 611 608 q 558 850 611 793 q 417 907 504 907 q 276 850 329 907 q 222 701 222 793 q 276 551 222 608 q 417 494 329 494 z "},"A":{"ha":833,"x_min":64,"x_max":769,"o":"m 64 0 l 326 1014 l 508 1014 l 769 0 l 629 0 l 565 264 l 268 264 l 204 0 l 64 0 m 296 378 l 538 378 l 465 681 q 432 822 444 764 q 417 901 419 881 q 401 822 414 881 q 369 682 389 764 l 296 378 z "},"Á":{"ha":833,"x_min":64,"x_max":769,"o":"m 64 0 l 326 1014 l 508 1014 l 769 0 l 629 0 l 565 264 l 268 264 l 204 0 l 64 0 m 296 378 l 538 378 l 465 681 q 432 822 444 764 q 417 901 419 881 q 401 822 414 881 q 369 682 389 764 l 296 378 m 331 1125 l 476 1319 l 625 1319 l 469 1125 l 331 1125 z "},"Ă":{"ha":833,"x_min":64,"x_max":769,"o":"m 64 0 l 326 1014 l 508 1014 l 769 0 l 629 0 l 565 264 l 268 264 l 204 0 l 64 0 m 296 378 l 538 378 l 465 681 q 432 822 444 764 q 417 901 419 881 q 401 822 414 881 q 369 682 389 764 l 296 378 m 417 1117 q 251 1172 314 1117 q 189 1319 189 1228 l 297 1319 q 330 1236 297 1268 q 415 1204 363 1204 q 503 1236 469 1204 q 536 1319 536 1268 l 644 1319 q 582 1172 644 1228 q 417 1117 519 1117 z "},"Ắ":{"ha":833,"x_min":64,"x_max":769,"o":"m 328 1251 l 474 1417 l 614 1417 l 460 1251 l 328 1251 m 379 1083 q 234 1132 288 1083 q 181 1265 181 1181 l 282 1265 q 308 1197 282 1222 q 379 1171 335 1171 l 453 1171 q 525 1197 499 1171 q 551 1265 551 1222 l 653 1265 q 599 1132 653 1181 q 453 1083 544 1083 l 379 1083 m 64 0 l 326 1014 l 508 1014 l 769 0 l 629 0 l 565 264 l 268 264 l 204 0 l 64 0 m 296 378 l 538 378 l 465 681 q 432 822 444 764 q 417 901 419 881 q 401 822 414 881 q 369 682 389 764 l 296 378 z "},"Ặ":{"ha":833,"x_min":64,"x_max":769,"o":"m 417 1117 q 251 1172 314 1117 q 189 1319 189 1228 l 297 1319 q 330 1236 297 1268 q 415 1204 363 1204 q 503 1236 469 1204 q 536 1319 536 1268 l 644 1319 q 582 1172 644 1228 q 417 1117 519 1117 m 64 0 l 326 1014 l 508 1014 l 769 0 l 629 0 l 565 264 l 268 264 l 204 0 l 64 0 m 296 378 l 538 378 l 465 681 q 432 822 444 764 q 417 901 419 881 q 401 822 414 881 q 369 682 389 764 l 296 378 m 417 -300 q 342 -276 369 -300 q 314 -210 314 -251 q 342 -142 314 -167 q 417 -117 369 -117 q 492 -142 464 -117 q 519 -210 519 -167 q 492 -276 519 -251 q 417 -300 464 -300 z "},"Ằ":{"ha":833,"x_min":64,"x_max":769,"o":"m 64 0 l 326 1014 l 508 1014 l 769 0 l 629 0 l 565 264 l 268 264 l 204 0 l 64 0 m 296 378 l 538 378 l 465 681 q 432 822 444 764 q 417 901 419 881 q 401 822 414 881 q 369 682 389 764 l 296 378 m 375 1251 l 238 1417 l 375 1417 l 506 1251 l 375 1251 m 379 1083 q 234 1132 288 1083 q 181 1265 181 1181 l 282 1265 q 308 1197 282 1222 q 379 1171 335 1171 l 453 1171 q 525 1197 499 1171 q 551 1265 551 1222 l 653 1265 q 599 1132 653 1181 q 453 1083 544 1083 l 379 1083 z "},"Ẳ":{"ha":833,"x_min":64,"x_max":769,"o":"m 64 0 l 326 1014 l 508 1014 l 769 0 l 629 0 l 565 264 l 268 264 l 204 0 l 64 0 m 296 378 l 538 378 l 465 681 q 432 822 444 764 q 417 901 419 881 q 401 822 414 881 q 369 682 389 764 l 296 378 m 351 1225 l 413 1297 q 422 1319 422 1308 q 408 1331 422 1331 l 307 1331 l 307 1417 l 443 1417 q 503 1399 482 1417 q 525 1346 525 1381 q 501 1274 525 1304 l 463 1225 l 351 1225 m 379 1083 q 234 1132 288 1083 q 181 1265 181 1181 l 282 1265 q 308 1197 282 1222 q 379 1171 335 1171 l 453 1171 q 525 1197 499 1171 q 551 1265 551 1222 l 653 1265 q 599 1132 653 1181 q 453 1083 544 1083 l 379 1083 z "},"Ẵ":{"ha":833,"x_min":64,"x_max":769,"o":"m 64 0 l 326 1014 l 508 1014 l 769 0 l 629 0 l 565 264 l 268 264 l 204 0 l 64 0 m 296 378 l 538 378 l 465 681 q 432 822 444 764 q 417 901 419 881 q 401 822 414 881 q 369 682 389 764 l 296 378 m 524 1276 q 433 1292 467 1276 q 375 1323 400 1307 q 319 1339 350 1339 q 290 1328 301 1339 q 279 1297 279 1317 l 279 1289 l 185 1289 l 185 1297 q 219 1385 185 1353 q 311 1417 253 1417 q 384 1407 356 1417 q 433 1385 413 1397 q 472 1363 454 1372 q 514 1354 490 1354 q 543 1365 532 1354 q 554 1394 554 1376 l 554 1404 l 649 1404 l 649 1394 q 615 1308 649 1340 q 524 1276 582 1276 m 378 1083 q 237 1125 289 1083 q 185 1249 185 1167 l 288 1249 q 312 1189 288 1207 q 376 1171 336 1171 l 456 1171 q 522 1189 497 1171 q 547 1249 547 1207 l 649 1249 q 596 1125 649 1167 q 454 1083 543 1083 l 378 1083 z "},"Ǎ":{"ha":833,"x_min":64,"x_max":769,"o":"m 64 0 l 326 1014 l 508 1014 l 769 0 l 629 0 l 565 264 l 268 264 l 204 0 l 64 0 m 296 378 l 538 378 l 465 681 q 432 822 444 764 q 417 901 419 881 q 401 822 414 881 q 369 682 389 764 l 296 378 m 354 1125 l 160 1319 l 306 1319 l 417 1213 l 525 1319 l 674 1319 l 481 1125 l 354 1125 z "},"Â":{"ha":833,"x_min":64,"x_max":769,"o":"m 64 0 l 326 1014 l 508 1014 l 769 0 l 629 0 l 565 264 l 268 264 l 204 0 l 64 0 m 296 378 l 538 378 l 465 681 q 432 822 444 764 q 417 901 419 881 q 401 822 414 881 q 369 682 389 764 l 296 378 m 160 1125 l 353 1319 l 479 1319 l 674 1125 l 528 1125 l 417 1232 l 308 1125 l 160 1125 z "},"Ấ":{"ha":833,"x_min":64,"x_max":865,"o":"m 64 0 l 326 1014 l 508 1014 l 769 0 l 629 0 l 565 264 l 268 264 l 204 0 l 64 0 m 296 378 l 538 378 l 465 681 q 432 822 444 764 q 417 901 419 881 q 401 822 414 881 q 369 682 389 764 l 296 378 m 569 1251 l 715 1417 l 865 1417 l 713 1251 l 569 1251 m 161 1083 l 353 1278 l 481 1278 l 674 1083 l 525 1083 l 417 1190 l 307 1083 l 161 1083 z "},"Ậ":{"ha":833,"x_min":64,"x_max":769,"o":"m 160 1125 l 353 1319 l 479 1319 l 674 1125 l 528 1125 l 417 1232 l 308 1125 l 160 1125 m 64 0 l 326 1014 l 508 1014 l 769 0 l 629 0 l 565 264 l 268 264 l 204 0 l 64 0 m 296 378 l 538 378 l 465 681 q 432 822 444 764 q 417 901 419 881 q 401 822 414 881 q 369 682 389 764 l 296 378 m 417 -300 q 342 -276 369 -300 q 314 -210 314 -251 q 342 -142 314 -167 q 417 -117 369 -117 q 492 -142 464 -117 q 519 -210 519 -167 q 492 -276 519 -251 q 417 -300 464 -300 z "},"Ầ":{"ha":833,"x_min":64,"x_max":769,"o":"m 64 0 l 326 1014 l 508 1014 l 769 0 l 629 0 l 565 264 l 268 264 l 204 0 l 64 0 m 296 378 l 538 378 l 465 681 q 432 822 444 764 q 417 901 419 881 q 401 822 414 881 q 369 682 389 764 l 296 378 m 621 1251 l 454 1417 l 603 1417 l 761 1251 l 621 1251 m 161 1083 l 353 1278 l 481 1278 l 674 1083 l 525 1083 l 417 1190 l 307 1083 l 161 1083 z "},"Ẩ":{"ha":833,"x_min":64,"x_max":772,"o":"m 64 0 l 326 1014 l 508 1014 l 769 0 l 629 0 l 565 264 l 268 264 l 204 0 l 64 0 m 296 378 l 538 378 l 465 681 q 432 822 444 764 q 417 901 419 881 q 401 822 414 881 q 369 682 389 764 l 296 378 m 588 1221 l 651 1283 q 663 1310 663 1294 q 640 1332 663 1332 l 547 1332 l 547 1417 l 668 1417 q 744 1392 715 1417 q 772 1326 772 1368 q 749 1264 772 1288 l 703 1221 l 588 1221 m 161 1083 l 353 1278 l 481 1278 l 674 1083 l 525 1083 l 417 1190 l 307 1083 l 161 1083 z "},"Ẫ":{"ha":833,"x_min":64,"x_max":769,"o":"m 64 0 l 326 1014 l 508 1014 l 769 0 l 629 0 l 565 264 l 268 264 l 204 0 l 64 0 m 296 378 l 538 378 l 465 681 q 432 822 444 764 q 417 901 419 881 q 401 822 414 881 q 369 682 389 764 l 296 378 m 524 1276 q 433 1292 467 1276 q 375 1323 400 1307 q 319 1339 350 1339 q 290 1328 301 1339 q 279 1297 279 1317 l 279 1289 l 185 1289 l 185 1297 q 219 1385 185 1353 q 311 1417 253 1417 q 384 1407 356 1417 q 433 1385 413 1397 q 472 1363 454 1372 q 514 1354 490 1354 q 543 1365 532 1354 q 554 1394 554 1376 l 554 1404 l 649 1404 l 649 1394 q 615 1308 649 1340 q 524 1276 582 1276 m 161 1083 l 318 1235 l 515 1235 l 672 1083 l 525 1083 l 417 1185 l 307 1083 l 161 1083 z "},"Ä":{"ha":833,"x_min":64,"x_max":769,"o":"m 64 0 l 326 1014 l 508 1014 l 769 0 l 629 0 l 565 264 l 268 264 l 204 0 l 64 0 m 296 378 l 538 378 l 465 681 q 432 822 444 764 q 417 901 419 881 q 401 822 414 881 q 369 682 389 764 l 296 378 m 574 1132 q 506 1156 531 1132 q 481 1222 481 1181 q 506 1290 481 1265 q 574 1315 531 1315 q 640 1290 615 1315 q 665 1222 665 1265 q 640 1156 665 1181 q 574 1132 615 1132 m 260 1132 q 193 1156 218 1132 q 168 1222 168 1181 q 193 1290 168 1265 q 260 1315 218 1315 q 328 1290 303 1315 q 353 1222 353 1265 q 328 1156 353 1181 q 260 1132 303 1132 z "},"Ạ":{"ha":833,"x_min":64,"x_max":769,"o":"m 64 0 l 326 1014 l 508 1014 l 769 0 l 629 0 l 565 264 l 268 264 l 204 0 l 64 0 m 296 378 l 538 378 l 465 681 q 432 822 444 764 q 417 901 419 881 q 401 822 414 881 q 369 682 389 764 l 296 378 m 417 -300 q 342 -276 369 -300 q 314 -210 314 -251 q 342 -142 314 -167 q 417 -117 369 -117 q 492 -142 464 -117 q 519 -210 519 -167 q 492 -276 519 -251 q 417 -300 464 -300 z "},"À":{"ha":833,"x_min":64,"x_max":769,"o":"m 64 0 l 326 1014 l 508 1014 l 769 0 l 629 0 l 565 264 l 268 264 l 204 0 l 64 0 m 296 378 l 538 378 l 465 681 q 432 822 444 764 q 417 901 419 881 q 401 822 414 881 q 369 682 389 764 l 296 378 m 365 1125 l 204 1319 l 357 1319 l 508 1125 l 365 1125 z "},"Ả":{"ha":833,"x_min":64,"x_max":769,"o":"m 64 0 l 326 1014 l 508 1014 l 769 0 l 629 0 l 565 264 l 268 264 l 204 0 l 64 0 m 296 378 l 538 378 l 465 681 q 432 822 444 764 q 417 901 419 881 q 401 822 414 881 q 369 682 389 764 l 296 378 m 356 1110 l 418 1197 q 439 1240 439 1224 q 394 1268 439 1268 l 290 1268 l 290 1363 l 406 1363 q 512 1333 472 1363 q 551 1256 551 1304 q 528 1181 551 1215 l 479 1110 l 356 1110 z "},"Ā":{"ha":833,"x_min":64,"x_max":769,"o":"m 64 0 l 326 1014 l 508 1014 l 769 0 l 629 0 l 565 264 l 268 264 l 204 0 l 64 0 m 296 378 l 538 378 l 465 681 q 432 822 444 764 q 417 901 419 881 q 401 822 414 881 q 369 682 389 764 l 296 378 m 190 1163 l 190 1274 l 643 1274 l 643 1163 l 190 1163 z "},"Ą":{"ha":833,"x_min":64,"x_max":810,"o":"m 64 0 l 326 1014 l 508 1014 l 769 0 l 738 0 l 735 -3 q 670 -69 690 -39 q 650 -126 650 -100 q 670 -175 650 -156 q 725 -194 690 -194 l 810 -194 l 810 -286 l 696 -286 q 570 -249 617 -286 q 524 -154 524 -211 q 548 -77 524 -115 q 629 1 572 -39 l 565 264 l 268 264 l 204 0 l 64 0 m 296 378 l 538 378 l 465 681 q 432 822 444 764 q 417 901 419 881 q 401 822 414 881 q 369 682 389 764 l 296 378 z "},"Å":{"ha":833,"x_min":64,"x_max":769,"o":"m 64 0 l 326 1014 l 508 1014 l 769 0 l 629 0 l 565 264 l 268 264 l 204 0 l 64 0 m 296 378 l 538 378 l 465 681 q 432 822 444 764 q 417 901 419 881 q 401 822 414 881 q 369 682 389 764 l 296 378 m 417 1061 q 293 1106 340 1061 q 246 1222 246 1150 q 293 1339 246 1294 q 417 1383 340 1383 q 540 1339 493 1383 q 588 1222 588 1294 q 540 1106 588 1150 q 417 1061 493 1061 m 417 1139 q 477 1162 454 1139 q 500 1222 500 1185 q 477 1283 500 1260 q 417 1307 454 1307 q 356 1283 379 1307 q 333 1222 333 1260 q 356 1162 333 1185 q 417 1139 379 1139 z "},"Ã":{"ha":833,"x_min":64,"x_max":769,"o":"m 64 0 l 326 1014 l 508 1014 l 769 0 l 629 0 l 565 264 l 268 264 l 204 0 l 64 0 m 296 378 l 538 378 l 465 681 q 432 822 444 764 q 417 901 419 881 q 401 822 414 881 q 369 682 389 764 l 296 378 m 514 1129 q 446 1143 472 1129 q 401 1176 419 1157 q 367 1210 383 1196 q 326 1224 350 1224 q 285 1176 285 1224 l 285 1136 l 190 1136 l 190 1179 q 226 1279 190 1243 q 319 1315 261 1315 q 388 1301 361 1315 q 432 1268 414 1288 q 467 1235 450 1249 q 507 1221 483 1221 q 549 1268 549 1221 l 549 1308 l 643 1308 l 643 1267 q 608 1165 643 1201 q 514 1129 572 1129 z "},"Æ":{"ha":833,"x_min":36,"x_max":794,"o":"m 36 0 l 235 1014 l 794 1014 l 794 892 l 544 892 l 544 586 l 760 586 l 760 463 l 544 463 l 544 124 l 794 124 l 794 0 l 417 0 l 417 274 l 225 274 l 172 0 l 36 0 m 246 385 l 417 385 l 417 892 l 340 892 l 246 385 z "},"Ǽ":{"ha":833,"x_min":36,"x_max":794,"o":"m 36 0 l 235 1014 l 794 1014 l 794 892 l 544 892 l 544 586 l 760 586 l 760 463 l 544 463 l 544 124 l 794 124 l 794 0 l 417 0 l 417 274 l 225 274 l 172 0 l 36 0 m 246 385 l 417 385 l 417 892 l 340 892 l 246 385 m 331 1125 l 476 1319 l 625 1319 l 469 1125 l 331 1125 z "},"B":{"ha":833,"x_min":124,"x_max":743,"o":"m 124 0 l 124 1014 l 417 1014 q 638 944 557 1014 q 719 751 719 874 q 678 613 719 669 q 564 536 636 556 q 694 448 646 514 q 743 283 743 382 q 660 76 743 153 q 436 0 578 0 l 124 0 m 258 586 l 415 586 q 538 627 493 586 q 582 739 582 668 q 538 852 582 811 q 417 893 493 893 l 258 893 l 258 586 m 258 121 l 424 121 q 557 166 508 121 q 606 289 606 211 q 557 419 606 369 q 424 469 508 469 l 258 469 l 258 121 z "},"C":{"ha":833,"x_min":117,"x_max":726,"o":"m 422 -14 q 199 65 282 -14 q 117 281 117 143 l 117 735 q 199 949 117 871 q 422 1028 282 1028 q 644 949 561 1028 q 726 735 726 869 l 589 735 q 544 861 589 817 q 422 906 500 906 q 299 861 343 906 q 254 735 254 817 l 254 281 q 299 153 254 197 q 422 108 343 108 q 544 153 500 108 q 589 281 589 197 l 726 281 q 644 65 726 144 q 422 -14 561 -14 z "},"Ć":{"ha":833,"x_min":117,"x_max":726,"o":"m 422 -14 q 199 65 282 -14 q 117 281 117 143 l 117 735 q 199 949 117 871 q 422 1028 282 1028 q 644 949 561 1028 q 726 735 726 869 l 589 735 q 544 861 589 817 q 422 906 500 906 q 299 861 343 906 q 254 735 254 817 l 254 281 q 299 153 254 197 q 422 108 343 108 q 544 153 500 108 q 589 281 589 197 l 726 281 q 644 65 726 144 q 422 -14 561 -14 m 338 1125 l 483 1319 l 632 1319 l 476 1125 l 338 1125 z "},"Č":{"ha":833,"x_min":117,"x_max":726,"o":"m 422 -14 q 199 65 282 -14 q 117 281 117 143 l 117 735 q 199 949 117 871 q 422 1028 282 1028 q 644 949 561 1028 q 726 735 726 869 l 589 735 q 544 861 589 817 q 422 906 500 906 q 299 861 343 906 q 254 735 254 817 l 254 281 q 299 153 254 197 q 422 108 343 108 q 544 153 500 108 q 589 281 589 197 l 726 281 q 644 65 726 144 q 422 -14 561 -14 m 361 1125 l 167 1319 l 313 1319 l 424 1213 l 532 1319 l 681 1319 l 488 1125 l 361 1125 z "},"Ç":{"ha":833,"x_min":117,"x_max":726,"o":"m 290 -286 l 290 -207 l 389 -207 q 439 -191 419 -207 q 458 -157 458 -175 q 419 -114 458 -132 q 310 -96 381 -96 l 343 -7 q 177 89 238 14 q 117 281 117 164 l 117 735 q 199 949 117 871 q 422 1028 282 1028 q 644 949 561 1028 q 726 735 726 869 l 589 735 q 544 861 589 817 q 422 906 500 906 q 299 861 343 906 q 254 735 254 817 l 254 281 q 299 153 254 197 q 422 108 343 108 q 544 153 500 108 q 589 281 589 197 l 726 281 q 644 65 726 144 q 425 -14 561 -14 l 413 -50 q 490 -67 450 -53 q 556 -107 529 -82 q 583 -169 583 -132 q 537 -252 583 -218 q 413 -286 490 -286 l 290 -286 z "},"Ĉ":{"ha":833,"x_min":117,"x_max":726,"o":"m 422 -14 q 199 65 282 -14 q 117 281 117 143 l 117 735 q 199 949 117 871 q 422 1028 282 1028 q 644 949 561 1028 q 726 735 726 869 l 589 735 q 544 861 589 817 q 422 906 500 906 q 299 861 343 906 q 254 735 254 817 l 254 281 q 299 153 254 197 q 422 108 343 108 q 544 153 500 108 q 589 281 589 197 l 726 281 q 644 65 726 144 q 422 -14 561 -14 m 167 1125 l 360 1319 l 486 1319 l 681 1125 l 535 1125 l 424 1232 l 315 1125 l 167 1125 z "},"Ċ":{"ha":833,"x_min":117,"x_max":726,"o":"m 422 -14 q 199 65 282 -14 q 117 281 117 143 l 117 735 q 199 949 117 871 q 422 1028 282 1028 q 644 949 561 1028 q 726 735 726 869 l 589 735 q 544 861 589 817 q 422 906 500 906 q 299 861 343 906 q 254 735 254 817 l 254 281 q 299 153 254 197 q 422 108 343 108 q 544 153 500 108 q 589 281 589 197 l 726 281 q 644 65 726 144 q 422 -14 561 -14 m 424 1131 q 349 1156 376 1131 q 321 1222 321 1181 q 349 1289 321 1264 q 424 1314 376 1314 q 499 1289 471 1314 q 526 1222 526 1264 q 499 1156 526 1181 q 424 1131 471 1131 z "},"D":{"ha":833,"x_min":122,"x_max":719,"o":"m 122 0 l 122 1014 l 394 1014 q 566 976 493 1014 q 679 869 639 938 q 719 707 719 800 l 719 308 q 679 146 719 215 q 566 38 639 76 q 394 0 493 0 l 122 0 m 260 122 l 394 122 q 532 172 482 122 q 582 308 582 222 l 582 707 q 532 842 582 793 q 394 892 482 892 l 260 892 l 260 122 z "},"Ð":{"ha":833,"x_min":14,"x_max":719,"o":"m 122 0 l 122 464 l 14 464 l 14 572 l 122 572 l 122 1014 l 394 1014 q 566 976 493 1014 q 679 869 639 938 q 719 707 719 800 l 719 308 q 679 146 719 215 q 566 38 639 76 q 394 0 493 0 l 122 0 m 260 122 l 394 122 q 532 172 482 122 q 582 308 582 222 l 582 707 q 532 842 582 793 q 394 892 482 892 l 260 892 l 260 572 l 403 572 l 403 464 l 260 464 l 260 122 z "},"Ď":{"ha":833,"x_min":122,"x_max":719,"o":"m 122 0 l 122 1014 l 394 1014 q 566 976 493 1014 q 679 869 639 938 q 719 707 719 800 l 719 308 q 679 146 719 215 q 566 38 639 76 q 394 0 493 0 l 122 0 m 260 122 l 394 122 q 532 172 482 122 q 582 308 582 222 l 582 707 q 532 842 582 793 q 394 892 482 892 l 260 892 l 260 122 m 354 1125 l 160 1319 l 306 1319 l 417 1213 l 525 1319 l 674 1319 l 481 1125 l 354 1125 z "},"Đ":{"ha":833,"x_min":14,"x_max":719,"o":"m 122 0 l 122 464 l 14 464 l 14 572 l 122 572 l 122 1014 l 394 1014 q 566 976 493 1014 q 679 869 639 938 q 719 707 719 800 l 719 308 q 679 146 719 215 q 566 38 639 76 q 394 0 493 0 l 122 0 m 260 122 l 394 122 q 532 172 482 122 q 582 308 582 222 l 582 707 q 532 842 582 793 q 394 892 482 892 l 260 892 l 260 572 l 403 572 l 403 464 l 260 464 l 260 122 z "},"E":{"ha":833,"x_min":135,"x_max":725,"o":"m 135 0 l 135 1014 l 725 1014 l 725 890 l 271 890 l 271 589 l 676 589 l 676 469 l 271 469 l 271 124 l 725 124 l 725 0 l 135 0 z "},"É":{"ha":833,"x_min":135,"x_max":725,"o":"m 135 0 l 135 1014 l 725 1014 l 725 890 l 271 890 l 271 589 l 676 589 l 676 469 l 271 469 l 271 124 l 725 124 l 725 0 l 135 0 m 358 1125 l 504 1319 l 653 1319 l 497 1125 l 358 1125 z "},"Ĕ":{"ha":833,"x_min":135,"x_max":725,"o":"m 135 0 l 135 1014 l 725 1014 l 725 890 l 271 890 l 271 589 l 676 589 l 676 469 l 271 469 l 271 124 l 725 124 l 725 0 l 135 0 m 444 1117 q 279 1172 342 1117 q 217 1319 217 1228 l 325 1319 q 358 1236 325 1268 q 443 1204 390 1204 q 531 1236 497 1204 q 564 1319 564 1268 l 672 1319 q 610 1172 672 1228 q 444 1117 547 1117 z "},"Ě":{"ha":833,"x_min":135,"x_max":725,"o":"m 135 0 l 135 1014 l 725 1014 l 725 890 l 271 890 l 271 589 l 676 589 l 676 469 l 271 469 l 271 124 l 725 124 l 725 0 l 135 0 m 382 1125 l 188 1319 l 333 1319 l 444 1213 l 553 1319 l 701 1319 l 508 1125 l 382 1125 z "},"Ê":{"ha":833,"x_min":135,"x_max":725,"o":"m 135 0 l 135 1014 l 725 1014 l 725 890 l 271 890 l 271 589 l 676 589 l 676 469 l 271 469 l 271 124 l 725 124 l 725 0 l 135 0 m 188 1125 l 381 1319 l 507 1319 l 701 1125 l 556 1125 l 444 1232 l 336 1125 l 188 1125 z "},"Ế":{"ha":833,"x_min":135,"x_max":893,"o":"m 135 0 l 135 1014 l 725 1014 l 725 890 l 271 890 l 271 589 l 676 589 l 676 469 l 271 469 l 271 124 l 725 124 l 725 0 l 135 0 m 597 1251 l 743 1417 l 893 1417 l 740 1251 l 597 1251 m 189 1083 l 381 1278 l 508 1278 l 701 1083 l 553 1083 l 444 1190 l 335 1083 l 189 1083 z "},"Ệ":{"ha":833,"x_min":135,"x_max":725,"o":"m 135 0 l 135 1014 l 725 1014 l 725 890 l 271 890 l 271 589 l 676 589 l 676 469 l 271 469 l 271 124 l 725 124 l 725 0 l 135 0 m 444 -300 q 369 -276 397 -300 q 342 -210 342 -251 q 369 -142 342 -167 q 444 -117 397 -117 q 519 -142 492 -117 q 547 -210 547 -167 q 519 -276 547 -251 q 444 -300 492 -300 m 188 1125 l 381 1319 l 507 1319 l 701 1125 l 556 1125 l 444 1232 l 336 1125 l 188 1125 z "},"Ề":{"ha":833,"x_min":135,"x_max":789,"o":"m 135 0 l 135 1014 l 725 1014 l 725 890 l 271 890 l 271 589 l 676 589 l 676 469 l 271 469 l 271 124 l 725 124 l 725 0 l 135 0 m 649 1251 l 482 1417 l 631 1417 l 789 1251 l 649 1251 m 189 1083 l 381 1278 l 508 1278 l 701 1083 l 553 1083 l 444 1190 l 335 1083 l 189 1083 z "},"Ể":{"ha":833,"x_min":135,"x_max":800,"o":"m 135 0 l 135 1014 l 725 1014 l 725 890 l 271 890 l 271 589 l 676 589 l 676 469 l 271 469 l 271 124 l 725 124 l 725 0 l 135 0 m 615 1221 l 679 1283 q 690 1310 690 1294 q 668 1332 690 1332 l 575 1332 l 575 1417 l 696 1417 q 772 1392 743 1417 q 800 1326 800 1368 q 776 1264 800 1288 l 731 1221 l 615 1221 m 189 1083 l 381 1278 l 508 1278 l 701 1083 l 553 1083 l 444 1190 l 335 1083 l 189 1083 z "},"Ễ":{"ha":833,"x_min":135,"x_max":725,"o":"m 135 0 l 135 1014 l 725 1014 l 725 890 l 271 890 l 271 589 l 676 589 l 676 469 l 271 469 l 271 124 l 725 124 l 725 0 l 135 0 m 551 1276 q 461 1292 494 1276 q 403 1323 428 1307 q 347 1339 378 1339 q 318 1328 329 1339 q 307 1297 307 1317 l 307 1289 l 213 1289 l 213 1297 q 247 1385 213 1353 q 339 1417 281 1417 q 412 1407 383 1417 q 461 1385 440 1397 q 500 1363 482 1372 q 542 1354 518 1354 q 571 1365 560 1354 q 582 1394 582 1376 l 582 1404 l 676 1404 l 676 1394 q 643 1308 676 1340 q 551 1276 610 1276 m 189 1083 l 346 1235 l 543 1235 l 700 1083 l 553 1083 l 444 1185 l 335 1083 l 189 1083 z "},"Ë":{"ha":833,"x_min":135,"x_max":725,"o":"m 135 0 l 135 1014 l 725 1014 l 725 890 l 271 890 l 271 589 l 676 589 l 676 469 l 271 469 l 271 124 l 725 124 l 725 0 l 135 0 m 601 1132 q 533 1156 558 1132 q 508 1222 508 1181 q 533 1290 508 1265 q 601 1315 558 1315 q 668 1290 643 1315 q 693 1222 693 1265 q 668 1156 693 1181 q 601 1132 643 1132 m 288 1132 q 221 1156 246 1132 q 196 1222 196 1181 q 221 1290 196 1265 q 288 1315 246 1315 q 356 1290 331 1315 q 381 1222 381 1265 q 356 1156 381 1181 q 288 1132 331 1132 z "},"Ė":{"ha":833,"x_min":135,"x_max":725,"o":"m 135 0 l 135 1014 l 725 1014 l 725 890 l 271 890 l 271 589 l 676 589 l 676 469 l 271 469 l 271 124 l 725 124 l 725 0 l 135 0 m 444 1131 q 369 1156 397 1131 q 342 1222 342 1181 q 369 1289 342 1264 q 444 1314 397 1314 q 519 1289 492 1314 q 547 1222 547 1264 q 519 1156 547 1181 q 444 1131 492 1131 z "},"Ẹ":{"ha":833,"x_min":135,"x_max":725,"o":"m 135 0 l 135 1014 l 725 1014 l 725 890 l 271 890 l 271 589 l 676 589 l 676 469 l 271 469 l 271 124 l 725 124 l 725 0 l 135 0 m 444 -300 q 369 -276 397 -300 q 342 -210 342 -251 q 369 -142 342 -167 q 444 -117 397 -117 q 519 -142 492 -117 q 547 -210 547 -167 q 519 -276 547 -251 q 444 -300 492 -300 z "},"È":{"ha":833,"x_min":135,"x_max":725,"o":"m 135 0 l 135 1014 l 725 1014 l 725 890 l 271 890 l 271 589 l 676 589 l 676 469 l 271 469 l 271 124 l 725 124 l 725 0 l 135 0 m 393 1125 l 232 1319 l 385 1319 l 536 1125 l 393 1125 z "},"Ẻ":{"ha":833,"x_min":135,"x_max":725,"o":"m 135 0 l 135 1014 l 725 1014 l 725 890 l 271 890 l 271 589 l 676 589 l 676 469 l 271 469 l 271 124 l 725 124 l 725 0 l 135 0 m 383 1110 l 446 1197 q 467 1240 467 1224 q 422 1268 467 1268 l 318 1268 l 318 1363 l 433 1363 q 540 1333 500 1363 q 579 1256 579 1304 q 556 1181 579 1215 l 507 1110 l 383 1110 z "},"Ē":{"ha":833,"x_min":135,"x_max":725,"o":"m 135 0 l 135 1014 l 725 1014 l 725 890 l 271 890 l 271 589 l 676 589 l 676 469 l 271 469 l 271 124 l 725 124 l 725 0 l 135 0 m 218 1163 l 218 1274 l 671 1274 l 671 1163 l 218 1163 z "},"Ę":{"ha":833,"x_min":135,"x_max":731,"o":"m 135 0 l 135 1014 l 725 1014 l 725 890 l 271 890 l 271 589 l 676 589 l 676 469 l 271 469 l 271 124 l 725 124 l 725 0 l 658 0 l 656 -3 q 591 -69 611 -39 q 571 -126 571 -100 q 591 -175 571 -156 q 646 -194 611 -194 l 731 -194 l 731 -286 l 617 -286 q 492 -249 539 -286 q 446 -154 446 -211 q 469 -78 446 -117 q 549 0 493 -40 l 135 0 z "},"Ɛ":{"ha":833,"x_min":92,"x_max":763,"o":"m 431 -14 q 602 22 528 -14 q 719 121 676 57 q 763 269 761 185 l 625 269 q 569 153 622 197 q 432 108 517 108 q 287 158 342 108 q 232 288 232 207 q 287 418 232 368 q 432 468 342 468 l 560 468 l 560 588 l 432 588 q 302 631 351 588 q 253 746 253 675 q 302 863 253 818 q 432 907 351 907 q 564 861 514 907 q 614 740 614 815 l 751 740 q 711 891 751 826 q 598 992 671 956 q 426 1028 525 1028 q 263 994 333 1028 q 153 899 192 960 q 114 757 114 839 q 158 613 114 671 q 281 538 203 556 q 142 453 193 519 q 92 288 92 388 q 134 129 92 197 q 253 24 176 61 q 431 -14 329 -14 z "},"Ẽ":{"ha":833,"x_min":135,"x_max":725,"o":"m 135 0 l 135 1014 l 725 1014 l 725 890 l 271 890 l 271 589 l 676 589 l 676 469 l 271 469 l 271 124 l 725 124 l 725 0 l 135 0 m 542 1129 q 474 1143 500 1129 q 429 1176 447 1157 q 394 1210 411 1196 q 354 1224 378 1224 q 313 1176 313 1224 l 313 1136 l 218 1136 l 218 1179 q 253 1279 218 1243 q 347 1315 289 1315 q 415 1301 389 1315 q 460 1268 442 1288 q 494 1235 478 1249 q 535 1221 511 1221 q 576 1268 576 1221 l 576 1308 l 671 1308 l 671 1267 q 635 1165 671 1201 q 542 1129 600 1129 z "},"F":{"ha":833,"x_min":126,"x_max":732,"o":"m 126 0 l 126 1014 l 732 1014 l 732 888 l 261 888 l 261 568 l 696 568 l 696 443 l 264 443 l 264 0 l 126 0 z "},"G":{"ha":833,"x_min":117,"x_max":726,"o":"m 422 -14 q 199 65 282 -14 q 117 281 117 143 l 117 735 q 199 949 117 871 q 422 1028 282 1028 q 644 949 561 1028 q 726 735 726 869 l 589 735 q 544 861 589 817 q 422 906 500 906 q 299 861 343 906 q 254 735 254 817 l 254 281 q 299 153 254 197 q 422 108 343 108 q 544 153 500 108 q 589 281 589 197 l 589 399 l 392 399 l 392 522 l 726 522 l 726 281 q 644 65 726 144 q 422 -14 561 -14 z "},"Ǵ":{"ha":833,"x_min":117,"x_max":726,"o":"m 422 -14 q 199 65 282 -14 q 117 281 117 143 l 117 735 q 199 949 117 871 q 422 1028 282 1028 q 644 949 561 1028 q 726 735 726 869 l 589 735 q 544 861 589 817 q 422 906 500 906 q 299 861 343 906 q 254 735 254 817 l 254 281 q 299 153 254 197 q 422 108 343 108 q 544 153 500 108 q 589 281 589 197 l 589 399 l 392 399 l 392 522 l 726 522 l 726 281 q 644 65 726 144 q 422 -14 561 -14 m 331 1125 l 476 1319 l 625 1319 l 469 1125 l 331 1125 z "},"Ğ":{"ha":833,"x_min":117,"x_max":726,"o":"m 422 -14 q 199 65 282 -14 q 117 281 117 143 l 117 735 q 199 949 117 871 q 422 1028 282 1028 q 644 949 561 1028 q 726 735 726 869 l 589 735 q 544 861 589 817 q 422 906 500 906 q 299 861 343 906 q 254 735 254 817 l 254 281 q 299 153 254 197 q 422 108 343 108 q 544 153 500 108 q 589 281 589 197 l 589 399 l 392 399 l 392 522 l 726 522 l 726 281 q 644 65 726 144 q 422 -14 561 -14 m 417 1117 q 251 1172 314 1117 q 189 1319 189 1228 l 297 1319 q 330 1236 297 1268 q 415 1204 363 1204 q 503 1236 469 1204 q 536 1319 536 1268 l 644 1319 q 582 1172 644 1228 q 417 1117 519 1117 z "},"Ǧ":{"ha":833,"x_min":117,"x_max":726,"o":"m 422 -14 q 199 65 282 -14 q 117 281 117 143 l 117 735 q 199 949 117 871 q 422 1028 282 1028 q 644 949 561 1028 q 726 735 726 869 l 589 735 q 544 861 589 817 q 422 906 500 906 q 299 861 343 906 q 254 735 254 817 l 254 281 q 299 153 254 197 q 422 108 343 108 q 544 153 500 108 q 589 281 589 197 l 589 399 l 392 399 l 392 522 l 726 522 l 726 281 q 644 65 726 144 q 422 -14 561 -14 m 354 1125 l 160 1319 l 306 1319 l 417 1213 l 525 1319 l 674 1319 l 481 1125 l 354 1125 z "},"Ĝ":{"ha":833,"x_min":117,"x_max":726,"o":"m 422 -14 q 199 65 282 -14 q 117 281 117 143 l 117 735 q 199 949 117 871 q 422 1028 282 1028 q 644 949 561 1028 q 726 735 726 869 l 589 735 q 544 861 589 817 q 422 906 500 906 q 299 861 343 906 q 254 735 254 817 l 254 281 q 299 153 254 197 q 422 108 343 108 q 544 153 500 108 q 589 281 589 197 l 589 399 l 392 399 l 392 522 l 726 522 l 726 281 q 644 65 726 144 q 422 -14 561 -14 m 160 1125 l 353 1319 l 479 1319 l 674 1125 l 528 1125 l 417 1232 l 308 1125 l 160 1125 z "},"Ģ":{"ha":833,"x_min":117,"x_max":726,"o":"m 422 -14 q 199 65 282 -14 q 117 281 117 143 l 117 735 q 199 949 117 871 q 422 1028 282 1028 q 644 949 561 1028 q 726 735 726 869 l 589 735 q 544 861 589 817 q 422 906 500 906 q 299 861 343 906 q 254 735 254 817 l 254 281 q 299 153 254 197 q 422 108 343 108 q 544 153 500 108 q 589 281 589 197 l 589 399 l 392 399 l 392 522 l 726 522 l 726 281 q 644 65 726 144 q 422 -14 561 -14 m 267 -333 l 399 -132 l 554 -132 l 406 -333 l 267 -333 z "},"Ġ":{"ha":833,"x_min":117,"x_max":726,"o":"m 422 -14 q 199 65 282 -14 q 117 281 117 143 l 117 735 q 199 949 117 871 q 422 1028 282 1028 q 644 949 561 1028 q 726 735 726 869 l 589 735 q 544 861 589 817 q 422 906 500 906 q 299 861 343 906 q 254 735 254 817 l 254 281 q 299 153 254 197 q 422 108 343 108 q 544 153 500 108 q 589 281 589 197 l 589 399 l 392 399 l 392 522 l 726 522 l 726 281 q 644 65 726 144 q 422 -14 561 -14 m 417 1131 q 342 1156 369 1131 q 314 1222 314 1181 q 342 1289 314 1264 q 417 1314 369 1314 q 492 1289 464 1314 q 519 1222 519 1264 q 492 1156 519 1181 q 417 1131 464 1131 z "},"H":{"ha":833,"x_min":124,"x_max":710,"o":"m 124 0 l 124 1014 l 261 1014 l 261 588 l 572 588 l 572 1014 l 710 1014 l 710 0 l 572 0 l 572 463 l 261 463 l 261 0 l 124 0 z "},"Ħ":{"ha":833,"x_min":14,"x_max":819,"o":"m 124 0 l 124 729 l 14 729 l 14 838 l 124 838 l 124 1014 l 261 1014 l 261 838 l 572 838 l 572 1014 l 710 1014 l 710 838 l 819 838 l 819 729 l 710 729 l 710 0 l 572 0 l 572 463 l 261 463 l 261 0 l 124 0 m 261 588 l 572 588 l 572 729 l 261 729 l 261 588 z "},"Ĥ":{"ha":833,"x_min":124,"x_max":710,"o":"m 124 0 l 124 1014 l 261 1014 l 261 588 l 572 588 l 572 1014 l 710 1014 l 710 0 l 572 0 l 572 463 l 261 463 l 261 0 l 124 0 m 160 1125 l 353 1319 l 479 1319 l 674 1125 l 528 1125 l 417 1232 l 308 1125 l 160 1125 z "},"I":{"ha":833,"x_min":140,"x_max":693,"o":"m 140 0 l 140 125 l 347 125 l 347 889 l 140 889 l 140 1014 l 693 1014 l 693 889 l 486 889 l 486 125 l 693 125 l 693 0 l 140 0 z "},"Í":{"ha":833,"x_min":140,"x_max":693,"o":"m 140 0 l 140 125 l 347 125 l 347 889 l 140 889 l 140 1014 l 693 1014 l 693 889 l 486 889 l 486 125 l 693 125 l 693 0 l 140 0 m 331 1125 l 476 1319 l 625 1319 l 469 1125 l 331 1125 z "},"Ĭ":{"ha":833,"x_min":140,"x_max":693,"o":"m 140 0 l 140 125 l 347 125 l 347 889 l 140 889 l 140 1014 l 693 1014 l 693 889 l 486 889 l 486 125 l 693 125 l 693 0 l 140 0 m 417 1117 q 251 1172 314 1117 q 189 1319 189 1228 l 297 1319 q 330 1236 297 1268 q 415 1204 363 1204 q 503 1236 469 1204 q 536 1319 536 1268 l 644 1319 q 582 1172 644 1228 q 417 1117 519 1117 z "},"Î":{"ha":833,"x_min":140,"x_max":693,"o":"m 140 0 l 140 125 l 347 125 l 347 889 l 140 889 l 140 1014 l 693 1014 l 693 889 l 486 889 l 486 125 l 693 125 l 693 0 l 140 0 m 160 1125 l 353 1319 l 479 1319 l 674 1125 l 528 1125 l 417 1232 l 308 1125 l 160 1125 z "},"Ï":{"ha":833,"x_min":140,"x_max":693,"o":"m 140 0 l 140 125 l 347 125 l 347 889 l 140 889 l 140 1014 l 693 1014 l 693 889 l 486 889 l 486 125 l 693 125 l 693 0 l 140 0 m 574 1132 q 506 1156 531 1132 q 481 1222 481 1181 q 506 1290 481 1265 q 574 1315 531 1315 q 640 1290 615 1315 q 665 1222 665 1265 q 640 1156 665 1181 q 574 1132 615 1132 m 260 1132 q 193 1156 218 1132 q 168 1222 168 1181 q 193 1290 168 1265 q 260 1315 218 1315 q 328 1290 303 1315 q 353 1222 353 1265 q 328 1156 353 1181 q 260 1132 303 1132 z "},"İ":{"ha":833,"x_min":140,"x_max":693,"o":"m 140 0 l 140 125 l 347 125 l 347 889 l 140 889 l 140 1014 l 693 1014 l 693 889 l 486 889 l 486 125 l 693 125 l 693 0 l 140 0 m 417 1131 q 342 1156 369 1131 q 314 1222 314 1181 q 342 1289 314 1264 q 417 1314 369 1314 q 492 1289 464 1314 q 519 1222 519 1264 q 492 1156 519 1181 q 417 1131 464 1131 z "},"Ị":{"ha":833,"x_min":140,"x_max":693,"o":"m 140 0 l 140 125 l 347 125 l 347 889 l 140 889 l 140 1014 l 693 1014 l 693 889 l 486 889 l 486 125 l 693 125 l 693 0 l 140 0 m 417 -300 q 342 -276 369 -300 q 314 -210 314 -251 q 342 -142 314 -167 q 417 -117 369 -117 q 492 -142 464 -117 q 519 -210 519 -167 q 492 -276 519 -251 q 417 -300 464 -300 z "},"Ì":{"ha":833,"x_min":140,"x_max":693,"o":"m 140 0 l 140 125 l 347 125 l 347 889 l 140 889 l 140 1014 l 693 1014 l 693 889 l 486 889 l 486 125 l 693 125 l 693 0 l 140 0 m 365 1125 l 204 1319 l 357 1319 l 508 1125 l 365 1125 z "},"Ỉ":{"ha":833,"x_min":140,"x_max":693,"o":"m 140 0 l 140 125 l 347 125 l 347 889 l 140 889 l 140 1014 l 693 1014 l 693 889 l 486 889 l 486 125 l 693 125 l 693 0 l 140 0 m 356 1110 l 418 1197 q 439 1240 439 1224 q 394 1268 439 1268 l 290 1268 l 290 1363 l 406 1363 q 512 1333 472 1363 q 551 1256 551 1304 q 528 1181 551 1215 l 479 1110 l 356 1110 z "},"Ī":{"ha":833,"x_min":140,"x_max":693,"o":"m 140 0 l 140 125 l 347 125 l 347 889 l 140 889 l 140 1014 l 693 1014 l 693 889 l 486 889 l 486 125 l 693 125 l 693 0 l 140 0 m 190 1163 l 190 1274 l 643 1274 l 643 1163 l 190 1163 z "},"Į":{"ha":833,"x_min":140,"x_max":693,"o":"m 140 0 l 140 125 l 347 125 l 347 889 l 140 889 l 140 1014 l 693 1014 l 693 889 l 486 889 l 486 125 l 693 125 l 693 0 l 467 0 l 463 -3 q 399 -69 419 -39 q 379 -126 379 -100 q 399 -175 379 -156 q 454 -194 419 -194 l 539 -194 l 539 -286 l 424 -286 q 299 -249 346 -286 q 253 -154 253 -211 q 276 -78 253 -117 q 356 0 300 -40 l 140 0 z "},"Ĩ":{"ha":833,"x_min":140,"x_max":693,"o":"m 140 0 l 140 125 l 347 125 l 347 889 l 140 889 l 140 1014 l 693 1014 l 693 889 l 486 889 l 486 125 l 693 125 l 693 0 l 140 0 m 514 1129 q 446 1143 472 1129 q 401 1176 419 1157 q 367 1210 383 1196 q 326 1224 350 1224 q 285 1176 285 1224 l 285 1136 l 190 1136 l 190 1179 q 226 1279 190 1243 q 319 1315 261 1315 q 388 1301 361 1315 q 432 1268 414 1288 q 467 1235 450 1249 q 507 1221 483 1221 q 549 1268 549 1221 l 549 1308 l 643 1308 l 643 1267 q 608 1165 643 1201 q 514 1129 572 1129 z "},"J":{"ha":833,"x_min":57,"x_max":693,"o":"m 375 -14 q 142 69 226 -14 q 57 294 57 151 l 194 294 q 242 157 194 206 q 375 108 290 108 q 508 157 460 108 q 556 293 556 206 l 556 889 l 271 889 l 271 1014 l 693 1014 l 693 293 q 608 69 693 151 q 375 -14 522 -14 z "},"Ĵ":{"ha":833,"x_min":57,"x_max":757,"o":"m 375 -14 q 142 69 226 -14 q 57 294 57 151 l 194 294 q 242 157 194 206 q 375 108 290 108 q 508 157 460 108 q 556 293 556 206 l 556 889 l 271 889 l 271 1014 l 693 1014 l 693 293 q 608 69 693 151 q 375 -14 522 -14 m 243 1125 l 436 1319 l 563 1319 l 757 1125 l 611 1125 l 500 1232 l 392 1125 l 243 1125 z "},"K":{"ha":833,"x_min":122,"x_max":781,"o":"m 122 0 l 122 1014 l 260 1014 l 260 585 l 401 585 l 618 1014 l 768 1014 l 522 528 l 781 0 l 625 0 l 399 464 l 260 464 l 260 0 l 122 0 z "},"Ķ":{"ha":833,"x_min":122,"x_max":781,"o":"m 122 0 l 122 1014 l 260 1014 l 260 585 l 401 585 l 618 1014 l 768 1014 l 522 528 l 781 0 l 625 0 l 399 464 l 260 464 l 260 0 l 122 0 m 261 -333 l 393 -132 l 549 -132 l 400 -333 l 261 -333 z "},"L":{"ha":833,"x_min":178,"x_max":767,"o":"m 178 0 l 178 1014 l 315 1014 l 315 125 l 767 125 l 767 0 l 178 0 z "},"Ĺ":{"ha":833,"x_min":160,"x_max":767,"o":"m 178 0 l 178 1014 l 315 1014 l 315 125 l 767 125 l 767 0 l 178 0 m 160 1125 l 306 1319 l 454 1319 l 299 1125 l 160 1125 z "},"Ľ":{"ha":833,"x_min":178,"x_max":976,"o":"m 178 0 l 178 1014 l 315 1014 l 315 125 l 767 125 l 767 0 l 178 0 m 833 1014 l 847 1264 l 976 1264 l 949 1014 l 833 1014 z "},"Ļ":{"ha":833,"x_min":178,"x_max":767,"o":"m 178 0 l 178 1014 l 315 1014 l 315 125 l 767 125 l 767 0 l 178 0 m 317 -333 l 449 -132 l 604 -132 l 456 -333 l 317 -333 z "},"Ŀ":{"ha":833,"x_min":178,"x_max":767,"o":"m 178 0 l 178 1014 l 315 1014 l 315 125 l 767 125 l 767 0 l 178 0 m 624 368 q 537 399 569 368 q 504 485 504 431 q 537 573 504 540 q 624 606 569 606 q 710 573 678 606 q 743 485 743 540 q 710 399 743 431 q 624 368 678 368 z "},"Ł":{"ha":833,"x_min":28,"x_max":768,"o":"m 179 0 l 179 418 l 28 319 l 28 443 l 179 542 l 179 1014 l 317 1014 l 317 631 l 544 778 l 544 654 l 317 507 l 317 125 l 768 125 l 768 0 l 179 0 z "},"M":{"ha":833,"x_min":99,"x_max":735,"o":"m 99 0 l 99 1014 l 274 1014 l 379 688 q 403 599 393 642 q 419 535 414 557 q 434 599 424 557 q 458 689 444 642 l 560 1014 l 735 1014 l 735 0 l 603 0 l 603 465 q 613 713 603 593 q 639 942 624 833 l 481 443 l 353 443 l 193 939 q 219 721 207 836 q 231 465 231 606 l 231 0 l 99 0 z "},"N":{"ha":833,"x_min":119,"x_max":715,"o":"m 119 0 l 119 1014 l 297 1014 l 600 158 q 592 248 596 194 q 587 359 589 301 q 585 468 585 417 l 585 1014 l 715 1014 l 715 0 l 536 0 l 236 856 q 242 767 239 819 q 247 658 244 715 q 249 551 249 601 l 249 0 l 119 0 z "},"Ń":{"ha":833,"x_min":119,"x_max":715,"o":"m 119 0 l 119 1014 l 297 1014 l 600 158 q 592 248 596 194 q 587 359 589 301 q 585 468 585 417 l 585 1014 l 715 1014 l 715 0 l 536 0 l 236 856 q 242 767 239 819 q 247 658 244 715 q 249 551 249 601 l 249 0 l 119 0 m 331 1125 l 476 1319 l 625 1319 l 469 1125 l 331 1125 z "},"Ň":{"ha":833,"x_min":119,"x_max":715,"o":"m 119 0 l 119 1014 l 297 1014 l 600 158 q 592 248 596 194 q 587 359 589 301 q 585 468 585 417 l 585 1014 l 715 1014 l 715 0 l 536 0 l 236 856 q 242 767 239 819 q 247 658 244 715 q 249 551 249 601 l 249 0 l 119 0 m 354 1125 l 160 1319 l 306 1319 l 417 1213 l 525 1319 l 674 1319 l 481 1125 l 354 1125 z "},"Ņ":{"ha":833,"x_min":119,"x_max":715,"o":"m 119 0 l 119 1014 l 297 1014 l 600 158 q 592 248 596 194 q 587 359 589 301 q 585 468 585 417 l 585 1014 l 715 1014 l 715 0 l 536 0 l 236 856 q 242 767 239 819 q 247 658 244 715 q 249 551 249 601 l 249 0 l 119 0 m 261 -333 l 393 -132 l 549 -132 l 400 -333 l 261 -333 z "},"Ŋ":{"ha":833,"x_min":119,"x_max":715,"o":"m 336 -250 l 336 -124 l 425 -124 q 537 -83 496 -124 q 578 26 578 -43 l 236 856 q 242 767 239 819 q 247 658 244 715 q 249 551 249 601 l 249 0 l 119 0 l 119 1014 l 297 1014 l 600 268 q 592 359 596 306 q 587 470 589 413 q 585 578 585 528 l 585 1014 l 715 1014 l 715 24 q 678 -121 715 -60 q 576 -216 642 -182 q 422 -250 511 -250 l 336 -250 z "},"Ñ":{"ha":833,"x_min":119,"x_max":715,"o":"m 119 0 l 119 1014 l 297 1014 l 600 158 q 592 248 596 194 q 587 359 589 301 q 585 468 585 417 l 585 1014 l 715 1014 l 715 0 l 536 0 l 236 856 q 242 767 239 819 q 247 658 244 715 q 249 551 249 601 l 249 0 l 119 0 m 514 1129 q 446 1143 472 1129 q 401 1176 419 1157 q 367 1210 383 1196 q 326 1224 350 1224 q 285 1176 285 1224 l 285 1136 l 190 1136 l 190 1179 q 226 1279 190 1243 q 319 1315 261 1315 q 388 1301 361 1315 q 432 1268 414 1288 q 467 1235 450 1249 q 507 1221 483 1221 q 549 1268 549 1221 l 549 1308 l 643 1308 l 643 1267 q 608 1165 643 1201 q 514 1129 572 1129 z "},"O":{"ha":833,"x_min":117,"x_max":717,"o":"m 417 -14 q 197 65 278 -14 q 117 281 117 143 l 117 735 q 197 949 117 871 q 417 1028 278 1028 q 636 949 556 1028 q 717 735 717 871 l 717 281 q 636 65 717 143 q 417 -14 556 -14 m 417 108 q 537 153 494 108 q 579 281 579 197 l 579 735 q 538 861 579 817 q 417 906 496 906 q 296 861 338 906 q 254 735 254 817 l 254 281 q 297 153 254 197 q 417 108 339 108 z "},"Ó":{"ha":833,"x_min":117,"x_max":717,"o":"m 417 -14 q 197 65 278 -14 q 117 281 117 143 l 117 735 q 197 949 117 871 q 417 1028 278 1028 q 636 949 556 1028 q 717 735 717 871 l 717 281 q 636 65 717 143 q 417 -14 556 -14 m 417 108 q 537 153 494 108 q 579 281 579 197 l 579 735 q 538 861 579 817 q 417 906 496 906 q 296 861 338 906 q 254 735 254 817 l 254 281 q 297 153 254 197 q 417 108 339 108 m 331 1125 l 476 1319 l 625 1319 l 469 1125 l 331 1125 z "},"Ŏ":{"ha":833,"x_min":117,"x_max":717,"o":"m 417 -14 q 197 65 278 -14 q 117 281 117 143 l 117 735 q 197 949 117 871 q 417 1028 278 1028 q 636 949 556 1028 q 717 735 717 871 l 717 281 q 636 65 717 143 q 417 -14 556 -14 m 417 108 q 537 153 494 108 q 579 281 579 197 l 579 735 q 538 861 579 817 q 417 906 496 906 q 296 861 338 906 q 254 735 254 817 l 254 281 q 297 153 254 197 q 417 108 339 108 m 417 1117 q 251 1172 314 1117 q 189 1319 189 1228 l 297 1319 q 330 1236 297 1268 q 415 1204 363 1204 q 503 1236 469 1204 q 536 1319 536 1268 l 644 1319 q 582 1172 644 1228 q 417 1117 519 1117 z "},"Ô":{"ha":833,"x_min":117,"x_max":717,"o":"m 417 -14 q 197 65 278 -14 q 117 281 117 143 l 117 735 q 197 949 117 871 q 417 1028 278 1028 q 636 949 556 1028 q 717 735 717 871 l 717 281 q 636 65 717 143 q 417 -14 556 -14 m 417 108 q 537 153 494 108 q 579 281 579 197 l 579 735 q 538 861 579 817 q 417 906 496 906 q 296 861 338 906 q 254 735 254 817 l 254 281 q 297 153 254 197 q 417 108 339 108 m 160 1125 l 353 1319 l 479 1319 l 674 1125 l 528 1125 l 417 1232 l 308 1125 l 160 1125 z "},"Ố":{"ha":833,"x_min":117,"x_max":865,"o":"m 417 -14 q 197 65 278 -14 q 117 281 117 143 l 117 735 q 197 949 117 871 q 417 1028 278 1028 q 636 949 556 1028 q 717 735 717 871 l 717 281 q 636 65 717 143 q 417 -14 556 -14 m 417 108 q 537 153 494 108 q 579 281 579 197 l 579 735 q 538 861 579 817 q 417 906 496 906 q 296 861 338 906 q 254 735 254 817 l 254 281 q 297 153 254 197 q 417 108 339 108 m 569 1251 l 715 1417 l 865 1417 l 713 1251 l 569 1251 m 161 1083 l 353 1278 l 481 1278 l 674 1083 l 525 1083 l 417 1190 l 307 1083 l 161 1083 z "},"Ộ":{"ha":833,"x_min":117,"x_max":717,"o":"m 417 -14 q 197 65 278 -14 q 117 281 117 143 l 117 735 q 197 949 117 871 q 417 1028 278 1028 q 636 949 556 1028 q 717 735 717 871 l 717 281 q 636 65 717 143 q 417 -14 556 -14 m 417 108 q 537 153 494 108 q 579 281 579 197 l 579 735 q 538 861 579 817 q 417 906 496 906 q 296 861 338 906 q 254 735 254 817 l 254 281 q 297 153 254 197 q 417 108 339 108 m 417 -300 q 342 -276 369 -300 q 314 -210 314 -251 q 342 -142 314 -167 q 417 -117 369 -117 q 492 -142 464 -117 q 519 -210 519 -167 q 492 -276 519 -251 q 417 -300 464 -300 m 160 1125 l 353 1319 l 479 1319 l 674 1125 l 528 1125 l 417 1232 l 308 1125 l 160 1125 z "},"Ồ":{"ha":833,"x_min":117,"x_max":761,"o":"m 417 -14 q 197 65 278 -14 q 117 281 117 143 l 117 735 q 197 949 117 871 q 417 1028 278 1028 q 636 949 556 1028 q 717 735 717 871 l 717 281 q 636 65 717 143 q 417 -14 556 -14 m 417 108 q 537 153 494 108 q 579 281 579 197 l 579 735 q 538 861 579 817 q 417 906 496 906 q 296 861 338 906 q 254 735 254 817 l 254 281 q 297 153 254 197 q 417 108 339 108 m 621 1251 l 454 1417 l 603 1417 l 761 1251 l 621 1251 m 161 1083 l 353 1278 l 481 1278 l 674 1083 l 525 1083 l 417 1190 l 307 1083 l 161 1083 z "},"Ổ":{"ha":833,"x_min":117,"x_max":772,"o":"m 417 -14 q 197 65 278 -14 q 117 281 117 143 l 117 735 q 197 949 117 871 q 417 1028 278 1028 q 636 949 556 1028 q 717 735 717 871 l 717 281 q 636 65 717 143 q 417 -14 556 -14 m 417 108 q 537 153 494 108 q 579 281 579 197 l 579 735 q 538 861 579 817 q 417 906 496 906 q 296 861 338 906 q 254 735 254 817 l 254 281 q 297 153 254 197 q 417 108 339 108 m 588 1221 l 651 1283 q 663 1310 663 1294 q 640 1332 663 1332 l 547 1332 l 547 1417 l 668 1417 q 744 1392 715 1417 q 772 1326 772 1368 q 749 1264 772 1288 l 703 1221 l 588 1221 m 161 1083 l 353 1278 l 481 1278 l 674 1083 l 525 1083 l 417 1190 l 307 1083 l 161 1083 z "},"Ỗ":{"ha":833,"x_min":117,"x_max":717,"o":"m 417 -14 q 197 65 278 -14 q 117 281 117 143 l 117 735 q 197 949 117 871 q 417 1028 278 1028 q 636 949 556 1028 q 717 735 717 871 l 717 281 q 636 65 717 143 q 417 -14 556 -14 m 417 108 q 537 153 494 108 q 579 281 579 197 l 579 735 q 538 861 579 817 q 417 906 496 906 q 296 861 338 906 q 254 735 254 817 l 254 281 q 297 153 254 197 q 417 108 339 108 m 524 1276 q 433 1292 467 1276 q 375 1323 400 1307 q 319 1339 350 1339 q 290 1328 301 1339 q 279 1297 279 1317 l 279 1289 l 185 1289 l 185 1297 q 219 1385 185 1353 q 311 1417 253 1417 q 384 1407 356 1417 q 433 1385 413 1397 q 472 1363 454 1372 q 514 1354 490 1354 q 543 1365 532 1354 q 554 1394 554 1376 l 554 1404 l 649 1404 l 649 1394 q 615 1308 649 1340 q 524 1276 582 1276 m 161 1083 l 318 1235 l 515 1235 l 672 1083 l 525 1083 l 417 1185 l 307 1083 l 161 1083 z "},"Ö":{"ha":833,"x_min":117,"x_max":717,"o":"m 417 -14 q 197 65 278 -14 q 117 281 117 143 l 117 735 q 197 949 117 871 q 417 1028 278 1028 q 636 949 556 1028 q 717 735 717 871 l 717 281 q 636 65 717 143 q 417 -14 556 -14 m 417 108 q 537 153 494 108 q 579 281 579 197 l 579 735 q 538 861 579 817 q 417 906 496 906 q 296 861 338 906 q 254 735 254 817 l 254 281 q 297 153 254 197 q 417 108 339 108 m 574 1132 q 506 1156 531 1132 q 481 1222 481 1181 q 506 1290 481 1265 q 574 1315 531 1315 q 640 1290 615 1315 q 665 1222 665 1265 q 640 1156 665 1181 q 574 1132 615 1132 m 260 1132 q 193 1156 218 1132 q 168 1222 168 1181 q 193 1290 168 1265 q 260 1315 218 1315 q 328 1290 303 1315 q 353 1222 353 1265 q 328 1156 353 1181 q 260 1132 303 1132 z "},"Ọ":{"ha":833,"x_min":117,"x_max":717,"o":"m 417 -14 q 197 65 278 -14 q 117 281 117 143 l 117 735 q 197 949 117 871 q 417 1028 278 1028 q 636 949 556 1028 q 717 735 717 871 l 717 281 q 636 65 717 143 q 417 -14 556 -14 m 417 108 q 537 153 494 108 q 579 281 579 197 l 579 735 q 538 861 579 817 q 417 906 496 906 q 296 861 338 906 q 254 735 254 817 l 254 281 q 297 153 254 197 q 417 108 339 108 m 417 -300 q 342 -276 369 -300 q 314 -210 314 -251 q 342 -142 314 -167 q 417 -117 369 -117 q 492 -142 464 -117 q 519 -210 519 -167 q 492 -276 519 -251 q 417 -300 464 -300 z "},"Ò":{"ha":833,"x_min":117,"x_max":717,"o":"m 417 -14 q 197 65 278 -14 q 117 281 117 143 l 117 735 q 197 949 117 871 q 417 1028 278 1028 q 636 949 556 1028 q 717 735 717 871 l 717 281 q 636 65 717 143 q 417 -14 556 -14 m 417 108 q 537 153 494 108 q 579 281 579 197 l 579 735 q 538 861 579 817 q 417 906 496 906 q 296 861 338 906 q 254 735 254 817 l 254 281 q 297 153 254 197 q 417 108 339 108 m 365 1125 l 204 1319 l 357 1319 l 508 1125 l 365 1125 z "},"Ỏ":{"ha":833,"x_min":117,"x_max":717,"o":"m 417 -14 q 197 65 278 -14 q 117 281 117 143 l 117 735 q 197 949 117 871 q 417 1028 278 1028 q 636 949 556 1028 q 717 735 717 871 l 717 281 q 636 65 717 143 q 417 -14 556 -14 m 417 108 q 537 153 494 108 q 579 281 579 197 l 579 735 q 538 861 579 817 q 417 906 496 906 q 296 861 338 906 q 254 735 254 817 l 254 281 q 297 153 254 197 q 417 108 339 108 m 356 1110 l 418 1197 q 439 1240 439 1224 q 394 1268 439 1268 l 290 1268 l 290 1363 l 406 1363 q 512 1333 472 1363 q 551 1256 551 1304 q 528 1181 551 1215 l 479 1110 l 356 1110 z "},"Ơ":{"ha":833,"x_min":117,"x_max":747,"o":"m 417 -14 q 197 65 278 -14 q 117 281 117 143 l 117 735 q 197 949 117 871 q 417 1028 278 1028 q 604 975 529 1028 q 635 1021 635 986 l 635 1125 l 747 1125 l 747 1015 q 679 894 747 931 q 717 735 717 826 l 717 281 q 636 65 717 143 q 417 -14 556 -14 m 417 108 q 537 153 494 108 q 579 281 579 197 l 579 735 q 538 861 579 817 q 417 906 496 906 q 296 861 338 906 q 254 735 254 817 l 254 281 q 297 153 254 197 q 417 108 339 108 z "},"Ớ":{"ha":833,"x_min":117,"x_max":747,"o":"m 417 -14 q 197 65 278 -14 q 117 281 117 143 l 117 735 q 197 949 117 871 q 417 1028 278 1028 q 604 975 529 1028 q 635 1021 635 986 l 635 1125 l 747 1125 l 747 1015 q 679 894 747 931 q 717 735 717 826 l 717 281 q 636 65 717 143 q 417 -14 556 -14 m 417 108 q 537 153 494 108 q 579 281 579 197 l 579 735 q 538 861 579 817 q 417 906 496 906 q 296 861 338 906 q 254 735 254 817 l 254 281 q 297 153 254 197 q 417 108 339 108 m 317 1125 l 463 1319 l 611 1319 l 456 1125 l 317 1125 z "},"Ợ":{"ha":833,"x_min":117,"x_max":747,"o":"m 417 -14 q 197 65 278 -14 q 117 281 117 143 l 117 735 q 197 949 117 871 q 417 1028 278 1028 q 604 975 529 1028 q 635 1021 635 986 l 635 1125 l 747 1125 l 747 1015 q 679 894 747 931 q 717 735 717 826 l 717 281 q 636 65 717 143 q 417 -14 556 -14 m 417 108 q 537 153 494 108 q 579 281 579 197 l 579 735 q 538 861 579 817 q 417 906 496 906 q 296 861 338 906 q 254 735 254 817 l 254 281 q 297 153 254 197 q 417 108 339 108 m 417 -300 q 342 -276 369 -300 q 314 -210 314 -251 q 342 -142 314 -167 q 417 -117 369 -117 q 492 -142 464 -117 q 519 -210 519 -167 q 492 -276 519 -251 q 417 -300 464 -300 z "},"Ờ":{"ha":833,"x_min":117,"x_max":747,"o":"m 417 -14 q 197 65 278 -14 q 117 281 117 143 l 117 735 q 197 949 117 871 q 417 1028 278 1028 q 604 975 529 1028 q 635 1021 635 986 l 635 1125 l 747 1125 l 747 1015 q 679 894 747 931 q 717 735 717 826 l 717 281 q 636 65 717 143 q 417 -14 556 -14 m 417 108 q 537 153 494 108 q 579 281 579 197 l 579 735 q 538 861 579 817 q 417 906 496 906 q 296 861 338 906 q 254 735 254 817 l 254 281 q 297 153 254 197 q 417 108 339 108 m 351 1125 l 190 1319 l 343 1319 l 494 1125 l 351 1125 z "},"Ở":{"ha":833,"x_min":117,"x_max":747,"o":"m 417 -14 q 197 65 278 -14 q 117 281 117 143 l 117 735 q 197 949 117 871 q 417 1028 278 1028 q 604 975 529 1028 q 635 1021 635 986 l 635 1125 l 747 1125 l 747 1015 q 679 894 747 931 q 717 735 717 826 l 717 281 q 636 65 717 143 q 417 -14 556 -14 m 417 108 q 537 153 494 108 q 579 281 579 197 l 579 735 q 538 861 579 817 q 417 906 496 906 q 296 861 338 906 q 254 735 254 817 l 254 281 q 297 153 254 197 q 417 108 339 108 m 342 1110 l 404 1197 q 425 1240 425 1224 q 381 1268 425 1268 l 276 1268 l 276 1363 l 392 1363 q 498 1333 458 1363 q 538 1256 538 1304 q 514 1181 538 1215 l 465 1110 l 342 1110 z "},"Ỡ":{"ha":833,"x_min":117,"x_max":747,"o":"m 417 -14 q 197 65 278 -14 q 117 281 117 143 l 117 735 q 197 949 117 871 q 417 1028 278 1028 q 604 975 529 1028 q 635 1021 635 986 l 635 1125 l 747 1125 l 747 1015 q 679 894 747 931 q 717 735 717 826 l 717 281 q 636 65 717 143 q 417 -14 556 -14 m 417 108 q 537 153 494 108 q 579 281 579 197 l 579 735 q 538 861 579 817 q 417 906 496 906 q 296 861 338 906 q 254 735 254 817 l 254 281 q 297 153 254 197 q 417 108 339 108 m 500 1129 q 432 1143 458 1129 q 388 1176 406 1157 q 353 1210 369 1196 q 313 1224 336 1224 q 271 1176 271 1224 l 271 1136 l 176 1136 l 176 1179 q 212 1279 176 1243 q 306 1315 247 1315 q 374 1301 347 1315 q 418 1268 400 1288 q 453 1235 436 1249 q 493 1221 469 1221 q 535 1268 535 1221 l 535 1308 l 629 1308 l 629 1267 q 594 1165 629 1201 q 500 1129 558 1129 z "},"Ő":{"ha":833,"x_min":117,"x_max":742,"o":"m 417 -14 q 197 65 278 -14 q 117 281 117 143 l 117 735 q 197 949 117 871 q 417 1028 278 1028 q 636 949 556 1028 q 717 735 717 871 l 717 281 q 636 65 717 143 q 417 -14 556 -14 m 417 108 q 537 153 494 108 q 579 281 579 197 l 579 735 q 538 861 579 817 q 417 906 496 906 q 296 861 338 906 q 254 735 254 817 l 254 281 q 297 153 254 197 q 417 108 339 108 m 451 1125 l 604 1319 l 742 1319 l 582 1125 l 451 1125 m 196 1125 l 347 1319 l 486 1319 l 326 1125 l 196 1125 z "},"Ō":{"ha":833,"x_min":117,"x_max":717,"o":"m 417 -14 q 197 65 278 -14 q 117 281 117 143 l 117 735 q 197 949 117 871 q 417 1028 278 1028 q 636 949 556 1028 q 717 735 717 871 l 717 281 q 636 65 717 143 q 417 -14 556 -14 m 417 108 q 537 153 494 108 q 579 281 579 197 l 579 735 q 538 861 579 817 q 417 906 496 906 q 296 861 338 906 q 254 735 254 817 l 254 281 q 297 153 254 197 q 417 108 339 108 m 190 1163 l 190 1274 l 643 1274 l 643 1163 l 190 1163 z "},"Ǫ":{"ha":833,"x_min":117,"x_max":717,"o":"m 521 -286 q 397 -249 443 -286 q 350 -154 350 -211 q 375 -83 350 -122 q 442 -7 400 -43 q 432 -11 439 -8 q 417 -14 425 -14 q 197 65 278 -14 q 117 281 117 143 l 117 735 q 197 949 117 871 q 417 1028 278 1028 q 636 949 556 1028 q 717 735 717 871 l 717 281 q 685 134 717 197 q 599 33 654 71 l 554 -3 q 494 -69 511 -39 q 476 -126 476 -100 q 496 -175 476 -156 q 550 -194 515 -194 l 636 -194 l 636 -286 l 521 -286 m 417 108 q 537 153 494 108 q 579 281 579 197 l 579 735 q 538 861 579 817 q 417 906 496 906 q 296 861 338 906 q 254 735 254 817 l 254 281 q 297 153 254 197 q 417 108 339 108 z "},"Ø":{"ha":833,"x_min":44,"x_max":789,"o":"m 44 -56 l 150 129 q 117 281 117 194 l 117 735 q 197 949 117 871 q 417 1028 278 1028 q 621 964 542 1028 l 665 1042 l 789 1042 l 692 869 q 717 735 717 810 l 717 281 q 636 65 717 143 q 417 -14 556 -14 q 224 42 300 -14 l 168 -56 l 44 -56 m 253 735 l 253 313 l 553 843 q 417 906 511 906 q 295 861 338 906 q 253 735 253 817 m 417 108 q 538 153 496 108 q 581 281 581 197 l 581 674 l 290 160 q 417 108 332 108 z "},"Ǿ":{"ha":833,"x_min":44,"x_max":789,"o":"m 44 -56 l 150 129 q 117 281 117 194 l 117 735 q 197 949 117 871 q 417 1028 278 1028 q 621 964 542 1028 l 665 1042 l 789 1042 l 692 869 q 717 735 717 810 l 717 281 q 636 65 717 143 q 417 -14 556 -14 q 224 42 300 -14 l 168 -56 l 44 -56 m 253 735 l 253 313 l 553 843 q 417 906 511 906 q 295 861 338 906 q 253 735 253 817 m 417 108 q 538 153 496 108 q 581 281 581 197 l 581 674 l 290 160 q 417 108 332 108 m 331 1125 l 476 1319 l 625 1319 l 469 1125 l 331 1125 z "},"Õ":{"ha":833,"x_min":117,"x_max":717,"o":"m 417 -14 q 197 65 278 -14 q 117 281 117 143 l 117 735 q 197 949 117 871 q 417 1028 278 1028 q 636 949 556 1028 q 717 735 717 871 l 717 281 q 636 65 717 143 q 417 -14 556 -14 m 417 108 q 537 153 494 108 q 579 281 579 197 l 579 735 q 538 861 579 817 q 417 906 496 906 q 296 861 338 906 q 254 735 254 817 l 254 281 q 297 153 254 197 q 417 108 339 108 m 514 1129 q 446 1143 472 1129 q 401 1176 419 1157 q 367 1210 383 1196 q 326 1224 350 1224 q 285 1176 285 1224 l 285 1136 l 190 1136 l 190 1179 q 226 1279 190 1243 q 319 1315 261 1315 q 388 1301 361 1315 q 432 1268 414 1288 q 467 1235 450 1249 q 507 1221 483 1221 q 549 1268 549 1221 l 549 1308 l 643 1308 l 643 1267 q 608 1165 643 1201 q 514 1129 572 1129 z "},"Œ":{"ha":833,"x_min":54,"x_max":800,"o":"m 267 -12 q 111 59 168 -12 q 54 253 54 131 l 54 763 q 111 956 54 885 q 267 1028 168 1028 q 347 1008 315 1028 q 397 959 379 988 q 419 903 415 931 l 426 903 l 426 1014 l 800 1014 l 800 892 l 557 892 l 557 585 l 765 585 l 765 461 l 557 461 l 557 124 l 800 124 l 800 0 l 426 0 l 426 113 l 419 113 q 397 56 415 85 q 347 8 379 28 q 267 -12 315 -12 m 307 108 q 394 147 363 108 q 425 253 425 186 l 425 763 q 394 868 425 829 q 307 907 363 907 q 220 868 251 907 q 189 763 189 829 l 189 253 q 220 147 189 186 q 307 108 251 108 z "},"P":{"ha":833,"x_min":122,"x_max":768,"o":"m 122 0 l 122 1014 l 451 1014 q 619 976 549 1014 q 729 872 690 939 q 768 711 768 804 q 729 552 768 619 q 619 447 690 485 q 451 410 547 410 l 260 410 l 260 0 l 122 0 m 260 532 l 451 532 q 579 581 532 532 q 626 711 626 631 q 579 842 626 793 q 451 892 532 892 l 260 892 l 260 532 z "},"Þ":{"ha":833,"x_min":121,"x_max":768,"o":"m 121 0 l 121 1014 l 258 1014 l 258 808 l 464 808 q 625 774 557 808 q 731 676 693 739 q 768 528 768 613 q 685 323 768 399 q 464 247 603 247 l 258 247 l 258 0 l 121 0 m 258 368 l 458 368 q 582 410 538 368 q 626 528 626 453 q 581 646 626 603 q 458 689 536 689 l 258 689 l 258 368 z "},"Q":{"ha":833,"x_min":107,"x_max":738,"o":"m 582 -250 l 438 -12 q 428 -14 433 -14 q 417 -14 422 -14 q 191 68 275 -14 q 107 286 107 150 l 107 728 q 191 947 107 865 q 417 1028 275 1028 q 642 947 558 1028 q 726 728 726 865 l 726 286 q 686 124 726 193 q 574 19 646 54 l 738 -250 l 582 -250 m 417 108 q 542 156 496 108 q 589 286 589 204 l 589 728 q 542 858 589 810 q 417 907 496 907 q 291 858 338 907 q 244 728 244 810 l 244 286 q 291 156 244 204 q 417 108 338 108 z "},"R":{"ha":833,"x_min":122,"x_max":761,"o":"m 122 0 l 122 1014 l 438 1014 q 600 977 531 1014 q 708 874 669 940 q 747 719 747 808 q 694 543 747 617 q 551 440 642 469 l 761 0 l 601 0 l 413 424 l 260 424 l 260 0 l 122 0 m 260 546 l 438 546 q 560 593 515 546 q 606 718 606 640 q 560 844 606 797 q 438 892 514 892 l 260 892 l 260 546 z "},"Ŕ":{"ha":833,"x_min":122,"x_max":761,"o":"m 122 0 l 122 1014 l 438 1014 q 600 977 531 1014 q 708 874 669 940 q 747 719 747 808 q 694 543 747 617 q 551 440 642 469 l 761 0 l 601 0 l 413 424 l 260 424 l 260 0 l 122 0 m 260 546 l 438 546 q 560 593 515 546 q 606 718 606 640 q 560 844 606 797 q 438 892 514 892 l 260 892 l 260 546 m 331 1125 l 476 1319 l 625 1319 l 469 1125 l 331 1125 z "},"Ř":{"ha":833,"x_min":122,"x_max":761,"o":"m 122 0 l 122 1014 l 438 1014 q 600 977 531 1014 q 708 874 669 940 q 747 719 747 808 q 694 543 747 617 q 551 440 642 469 l 761 0 l 601 0 l 413 424 l 260 424 l 260 0 l 122 0 m 260 546 l 438 546 q 560 593 515 546 q 606 718 606 640 q 560 844 606 797 q 438 892 514 892 l 260 892 l 260 546 m 354 1125 l 160 1319 l 306 1319 l 417 1213 l 525 1319 l 674 1319 l 481 1125 l 354 1125 z "},"Ŗ":{"ha":833,"x_min":122,"x_max":761,"o":"m 122 0 l 122 1014 l 438 1014 q 600 977 531 1014 q 708 874 669 940 q 747 719 747 808 q 694 543 747 617 q 551 440 642 469 l 761 0 l 601 0 l 413 424 l 260 424 l 260 0 l 122 0 m 260 546 l 438 546 q 560 593 515 546 q 606 718 606 640 q 560 844 606 797 q 438 892 514 892 l 260 892 l 260 546 m 261 -333 l 393 -132 l 549 -132 l 400 -333 l 261 -333 z "},"S":{"ha":833,"x_min":94,"x_max":739,"o":"m 421 -14 q 249 21 322 -14 q 135 119 175 56 q 94 268 94 182 l 232 268 q 284 152 232 196 q 422 108 336 108 q 554 152 506 108 q 603 268 603 196 q 572 369 603 325 q 489 428 542 413 l 346 471 q 180 578 239 503 q 121 754 121 653 q 203 953 121 879 q 424 1028 285 1028 q 643 953 561 1028 q 725 756 725 879 l 588 756 q 543 865 588 824 q 424 907 499 907 q 301 866 347 907 q 256 757 256 825 q 287 664 256 703 q 374 608 318 625 l 521 563 q 681 453 622 531 q 739 269 739 375 q 699 119 739 183 q 589 21 660 56 q 421 -14 518 -14 z "},"Ś":{"ha":833,"x_min":94,"x_max":739,"o":"m 421 -14 q 249 21 322 -14 q 135 119 175 56 q 94 268 94 182 l 232 268 q 284 152 232 196 q 422 108 336 108 q 554 152 506 108 q 603 268 603 196 q 572 369 603 325 q 489 428 542 413 l 346 471 q 180 578 239 503 q 121 754 121 653 q 203 953 121 879 q 424 1028 285 1028 q 643 953 561 1028 q 725 756 725 879 l 588 756 q 543 865 588 824 q 424 907 499 907 q 301 866 347 907 q 256 757 256 825 q 287 664 256 703 q 374 608 318 625 l 521 563 q 681 453 622 531 q 739 269 739 375 q 699 119 739 183 q 589 21 660 56 q 421 -14 518 -14 m 331 1125 l 476 1319 l 625 1319 l 469 1125 l 331 1125 z "},"Š":{"ha":833,"x_min":94,"x_max":739,"o":"m 421 -14 q 249 21 322 -14 q 135 119 175 56 q 94 268 94 182 l 232 268 q 284 152 232 196 q 422 108 336 108 q 554 152 506 108 q 603 268 603 196 q 572 369 603 325 q 489 428 542 413 l 346 471 q 180 578 239 503 q 121 754 121 653 q 203 953 121 879 q 424 1028 285 1028 q 643 953 561 1028 q 725 756 725 879 l 588 756 q 543 865 588 824 q 424 907 499 907 q 301 866 347 907 q 256 757 256 825 q 287 664 256 703 q 374 608 318 625 l 521 563 q 681 453 622 531 q 739 269 739 375 q 699 119 739 183 q 589 21 660 56 q 421 -14 518 -14 m 354 1125 l 160 1319 l 306 1319 l 417 1213 l 525 1319 l 674 1319 l 481 1125 l 354 1125 z "},"Ş":{"ha":833,"x_min":94,"x_max":739,"o":"m 283 -286 l 283 -207 l 382 -207 q 432 -191 413 -207 q 451 -157 451 -175 q 413 -114 451 -132 q 303 -96 374 -96 l 336 -7 q 160 86 225 14 q 94 268 94 158 l 232 268 q 284 152 232 196 q 422 108 336 108 q 554 152 506 108 q 603 268 603 196 q 572 369 603 325 q 489 428 542 413 l 346 471 q 180 578 239 503 q 121 754 121 653 q 203 953 121 879 q 424 1028 285 1028 q 643 953 561 1028 q 725 756 725 879 l 588 756 q 543 865 588 824 q 424 907 499 907 q 301 866 347 907 q 256 757 256 825 q 287 664 256 703 q 374 608 318 625 l 521 563 q 681 453 622 531 q 739 269 739 375 q 699 119 739 183 q 589 21 660 56 q 421 -14 518 -14 l 418 -14 l 406 -50 q 483 -67 443 -53 q 549 -107 522 -82 q 576 -169 576 -132 q 530 -252 576 -218 q 406 -286 483 -286 l 283 -286 z "},"Ŝ":{"ha":833,"x_min":94,"x_max":739,"o":"m 421 -14 q 249 21 322 -14 q 135 119 175 56 q 94 268 94 182 l 232 268 q 284 152 232 196 q 422 108 336 108 q 554 152 506 108 q 603 268 603 196 q 572 369 603 325 q 489 428 542 413 l 346 471 q 180 578 239 503 q 121 754 121 653 q 203 953 121 879 q 424 1028 285 1028 q 643 953 561 1028 q 725 756 725 879 l 588 756 q 543 865 588 824 q 424 907 499 907 q 301 866 347 907 q 256 757 256 825 q 287 664 256 703 q 374 608 318 625 l 521 563 q 681 453 622 531 q 739 269 739 375 q 699 119 739 183 q 589 21 660 56 q 421 -14 518 -14 m 160 1125 l 353 1319 l 479 1319 l 674 1125 l 528 1125 l 417 1232 l 308 1125 l 160 1125 z "},"Ș":{"ha":833,"x_min":94,"x_max":739,"o":"m 421 -14 q 249 21 322 -14 q 135 119 175 56 q 94 268 94 182 l 232 268 q 284 152 232 196 q 422 108 336 108 q 554 152 506 108 q 603 268 603 196 q 572 369 603 325 q 489 428 542 413 l 346 471 q 180 578 239 503 q 121 754 121 653 q 203 953 121 879 q 424 1028 285 1028 q 643 953 561 1028 q 725 756 725 879 l 588 756 q 543 865 588 824 q 424 907 499 907 q 301 866 347 907 q 256 757 256 825 q 287 664 256 703 q 374 608 318 625 l 521 563 q 681 453 622 531 q 739 269 739 375 q 699 119 739 183 q 589 21 660 56 q 421 -14 518 -14 m 261 -333 l 393 -132 l 549 -132 l 400 -333 l 261 -333 z "},"ẞ":{"ha":833,"x_min":121,"x_max":754,"o":"m 121 0 l 121 725 q 158 877 121 813 q 263 978 196 942 q 418 1014 329 1014 l 739 1014 l 739 881 l 514 588 q 689 500 624 578 q 754 299 754 422 q 716 142 754 208 q 609 38 678 75 q 449 0 540 0 l 358 0 l 358 122 l 436 122 q 563 171 517 122 q 610 301 610 219 q 563 428 610 382 q 436 475 517 475 l 372 475 l 372 590 l 599 892 l 418 892 q 299 847 343 892 q 256 725 256 803 l 256 0 l 121 0 z "},"Ə":{"ha":833,"x_min":119,"x_max":715,"o":"m 417 -14 q 199 67 279 -14 q 119 281 119 147 l 119 558 l 578 558 l 578 735 q 537 862 578 817 q 417 907 496 907 q 298 862 339 907 q 257 735 257 817 l 119 735 q 199 949 119 869 q 417 1028 278 1028 q 636 949 557 1028 q 715 735 715 871 l 715 281 q 635 67 715 147 q 417 -14 556 -14 m 417 99 q 539 145 500 99 q 578 281 578 192 l 578 453 l 257 453 l 257 281 q 296 145 257 192 q 417 99 335 99 z "},"T":{"ha":833,"x_min":74,"x_max":760,"o":"m 349 0 l 349 889 l 74 889 l 74 1014 l 760 1014 l 760 889 l 486 889 l 486 0 l 349 0 z "},"Ŧ":{"ha":833,"x_min":74,"x_max":760,"o":"m 349 0 l 349 404 l 151 404 l 151 518 l 349 518 l 349 889 l 74 889 l 74 1014 l 760 1014 l 760 889 l 486 889 l 486 518 l 683 518 l 683 404 l 486 404 l 486 0 l 349 0 z "},"Ť":{"ha":833,"x_min":74,"x_max":760,"o":"m 349 0 l 349 889 l 74 889 l 74 1014 l 760 1014 l 760 889 l 486 889 l 486 0 l 349 0 m 354 1125 l 160 1319 l 306 1319 l 417 1213 l 525 1319 l 674 1319 l 481 1125 l 354 1125 z "},"Ţ":{"ha":833,"x_min":74,"x_max":760,"o":"m 349 0 l 349 889 l 74 889 l 74 1014 l 760 1014 l 760 889 l 486 889 l 486 0 l 468 -50 q 545 -67 506 -53 q 613 -107 585 -82 q 640 -169 640 -132 q 593 -252 640 -218 q 469 -286 546 -286 l 346 -286 l 346 -207 l 444 -207 q 495 -191 476 -207 q 514 -157 514 -175 q 476 -114 514 -132 q 367 -96 438 -96 l 401 0 l 349 0 z "},"Ț":{"ha":833,"x_min":74,"x_max":760,"o":"m 349 0 l 349 889 l 74 889 l 74 1014 l 760 1014 l 760 889 l 486 889 l 486 0 l 349 0 m 261 -333 l 393 -132 l 549 -132 l 400 -333 l 261 -333 z "},"U":{"ha":833,"x_min":119,"x_max":715,"o":"m 417 -14 q 197 65 274 -14 q 119 281 119 144 l 119 1014 l 257 1014 l 257 281 q 297 154 257 200 q 417 108 336 108 q 537 154 496 108 q 578 281 578 200 l 578 1014 l 715 1014 l 715 281 q 638 65 715 143 q 417 -14 561 -14 z "},"Ú":{"ha":833,"x_min":119,"x_max":715,"o":"m 417 -14 q 197 65 274 -14 q 119 281 119 144 l 119 1014 l 257 1014 l 257 281 q 297 154 257 200 q 417 108 336 108 q 537 154 496 108 q 578 281 578 200 l 578 1014 l 715 1014 l 715 281 q 638 65 715 143 q 417 -14 561 -14 m 331 1125 l 476 1319 l 625 1319 l 469 1125 l 331 1125 z "},"Ŭ":{"ha":833,"x_min":119,"x_max":715,"o":"m 417 -14 q 197 65 274 -14 q 119 281 119 144 l 119 1014 l 257 1014 l 257 281 q 297 154 257 200 q 417 108 336 108 q 537 154 496 108 q 578 281 578 200 l 578 1014 l 715 1014 l 715 281 q 638 65 715 143 q 417 -14 561 -14 m 417 1117 q 251 1172 314 1117 q 189 1319 189 1228 l 297 1319 q 330 1236 297 1268 q 415 1204 363 1204 q 503 1236 469 1204 q 536 1319 536 1268 l 644 1319 q 582 1172 644 1228 q 417 1117 519 1117 z "},"Û":{"ha":833,"x_min":119,"x_max":715,"o":"m 417 -14 q 197 65 274 -14 q 119 281 119 144 l 119 1014 l 257 1014 l 257 281 q 297 154 257 200 q 417 108 336 108 q 537 154 496 108 q 578 281 578 200 l 578 1014 l 715 1014 l 715 281 q 638 65 715 143 q 417 -14 561 -14 m 160 1125 l 353 1319 l 479 1319 l 674 1125 l 528 1125 l 417 1232 l 308 1125 l 160 1125 z "},"Ü":{"ha":833,"x_min":119,"x_max":715,"o":"m 417 -14 q 197 65 274 -14 q 119 281 119 144 l 119 1014 l 257 1014 l 257 281 q 297 154 257 200 q 417 108 336 108 q 537 154 496 108 q 578 281 578 200 l 578 1014 l 715 1014 l 715 281 q 638 65 715 143 q 417 -14 561 -14 m 574 1132 q 506 1156 531 1132 q 481 1222 481 1181 q 506 1290 481 1265 q 574 1315 531 1315 q 640 1290 615 1315 q 665 1222 665 1265 q 640 1156 665 1181 q 574 1132 615 1132 m 260 1132 q 193 1156 218 1132 q 168 1222 168 1181 q 193 1290 168 1265 q 260 1315 218 1315 q 328 1290 303 1315 q 353 1222 353 1265 q 328 1156 353 1181 q 260 1132 303 1132 z "},"Ụ":{"ha":833,"x_min":119,"x_max":715,"o":"m 417 -14 q 197 65 274 -14 q 119 281 119 144 l 119 1014 l 257 1014 l 257 281 q 297 154 257 200 q 417 108 336 108 q 537 154 496 108 q 578 281 578 200 l 578 1014 l 715 1014 l 715 281 q 638 65 715 143 q 417 -14 561 -14 m 417 -300 q 342 -276 369 -300 q 314 -210 314 -251 q 342 -142 314 -167 q 417 -117 369 -117 q 492 -142 464 -117 q 519 -210 519 -167 q 492 -276 519 -251 q 417 -300 464 -300 z "},"Ù":{"ha":833,"x_min":119,"x_max":715,"o":"m 417 -14 q 197 65 274 -14 q 119 281 119 144 l 119 1014 l 257 1014 l 257 281 q 297 154 257 200 q 417 108 336 108 q 537 154 496 108 q 578 281 578 200 l 578 1014 l 715 1014 l 715 281 q 638 65 715 143 q 417 -14 561 -14 m 365 1125 l 204 1319 l 357 1319 l 508 1125 l 365 1125 z "},"Ủ":{"ha":833,"x_min":119,"x_max":715,"o":"m 417 -14 q 197 65 274 -14 q 119 281 119 144 l 119 1014 l 257 1014 l 257 281 q 297 154 257 200 q 417 108 336 108 q 537 154 496 108 q 578 281 578 200 l 578 1014 l 715 1014 l 715 281 q 638 65 715 143 q 417 -14 561 -14 m 356 1110 l 418 1197 q 439 1240 439 1224 q 394 1268 439 1268 l 290 1268 l 290 1363 l 406 1363 q 512 1333 472 1363 q 551 1256 551 1304 q 528 1181 551 1215 l 479 1110 l 356 1110 z "},"Ư":{"ha":833,"x_min":119,"x_max":838,"o":"m 417 -14 q 197 65 274 -14 q 119 281 119 144 l 119 1014 l 257 1014 l 257 281 q 297 154 257 200 q 417 108 336 108 q 537 154 496 108 q 578 281 578 200 l 578 1014 l 676 1014 q 712 1027 699 1014 q 725 1063 725 1040 l 725 1167 l 838 1167 l 838 1057 q 805 963 838 1000 q 715 918 772 926 l 715 281 q 638 65 715 143 q 417 -14 561 -14 z "},"Ứ":{"ha":833,"x_min":119,"x_max":838,"o":"m 417 -14 q 197 65 274 -14 q 119 281 119 144 l 119 1014 l 257 1014 l 257 281 q 297 154 257 200 q 417 108 336 108 q 537 154 496 108 q 578 281 578 200 l 578 1014 l 676 1014 q 712 1027 699 1014 q 725 1063 725 1040 l 725 1167 l 838 1167 l 838 1057 q 805 963 838 1000 q 715 918 772 926 l 715 281 q 638 65 715 143 q 417 -14 561 -14 m 331 1125 l 476 1319 l 625 1319 l 469 1125 l 331 1125 z "},"Ự":{"ha":833,"x_min":119,"x_max":838,"o":"m 417 -14 q 197 65 274 -14 q 119 281 119 144 l 119 1014 l 257 1014 l 257 281 q 297 154 257 200 q 417 108 336 108 q 537 154 496 108 q 578 281 578 200 l 578 1014 l 676 1014 q 712 1027 699 1014 q 725 1063 725 1040 l 725 1167 l 838 1167 l 838 1057 q 805 963 838 1000 q 715 918 772 926 l 715 281 q 638 65 715 143 q 417 -14 561 -14 m 417 -300 q 342 -276 369 -300 q 314 -210 314 -251 q 342 -142 314 -167 q 417 -117 369 -117 q 492 -142 464 -117 q 519 -210 519 -167 q 492 -276 519 -251 q 417 -300 464 -300 z "},"Ừ":{"ha":833,"x_min":119,"x_max":838,"o":"m 417 -14 q 197 65 274 -14 q 119 281 119 144 l 119 1014 l 257 1014 l 257 281 q 297 154 257 200 q 417 108 336 108 q 537 154 496 108 q 578 281 578 200 l 578 1014 l 676 1014 q 712 1027 699 1014 q 725 1063 725 1040 l 725 1167 l 838 1167 l 838 1057 q 805 963 838 1000 q 715 918 772 926 l 715 281 q 638 65 715 143 q 417 -14 561 -14 m 365 1125 l 204 1319 l 357 1319 l 508 1125 l 365 1125 z "},"Ử":{"ha":833,"x_min":119,"x_max":838,"o":"m 417 -14 q 197 65 274 -14 q 119 281 119 144 l 119 1014 l 257 1014 l 257 281 q 297 154 257 200 q 417 108 336 108 q 537 154 496 108 q 578 281 578 200 l 578 1014 l 676 1014 q 712 1027 699 1014 q 725 1063 725 1040 l 725 1167 l 838 1167 l 838 1057 q 805 963 838 1000 q 715 918 772 926 l 715 281 q 638 65 715 143 q 417 -14 561 -14 m 356 1110 l 418 1197 q 439 1240 439 1224 q 394 1268 439 1268 l 290 1268 l 290 1363 l 406 1363 q 512 1333 472 1363 q 551 1256 551 1304 q 528 1181 551 1215 l 479 1110 l 356 1110 z "},"Ữ":{"ha":833,"x_min":119,"x_max":838,"o":"m 417 -14 q 197 65 274 -14 q 119 281 119 144 l 119 1014 l 257 1014 l 257 281 q 297 154 257 200 q 417 108 336 108 q 537 154 496 108 q 578 281 578 200 l 578 1014 l 676 1014 q 712 1027 699 1014 q 725 1063 725 1040 l 725 1167 l 838 1167 l 838 1057 q 805 963 838 1000 q 715 918 772 926 l 715 281 q 638 65 715 143 q 417 -14 561 -14 m 514 1129 q 446 1143 472 1129 q 401 1176 419 1157 q 367 1210 383 1196 q 326 1224 350 1224 q 285 1176 285 1224 l 285 1136 l 190 1136 l 190 1179 q 226 1279 190 1243 q 319 1315 261 1315 q 388 1301 361 1315 q 432 1268 414 1288 q 467 1235 450 1249 q 507 1221 483 1221 q 549 1268 549 1221 l 549 1308 l 643 1308 l 643 1267 q 608 1165 643 1201 q 514 1129 572 1129 z "},"Ű":{"ha":833,"x_min":119,"x_max":742,"o":"m 417 -14 q 197 65 274 -14 q 119 281 119 144 l 119 1014 l 257 1014 l 257 281 q 297 154 257 200 q 417 108 336 108 q 537 154 496 108 q 578 281 578 200 l 578 1014 l 715 1014 l 715 281 q 638 65 715 143 q 417 -14 561 -14 m 451 1125 l 604 1319 l 742 1319 l 582 1125 l 451 1125 m 196 1125 l 347 1319 l 486 1319 l 326 1125 l 196 1125 z "},"Ū":{"ha":833,"x_min":119,"x_max":715,"o":"m 417 -14 q 197 65 274 -14 q 119 281 119 144 l 119 1014 l 257 1014 l 257 281 q 297 154 257 200 q 417 108 336 108 q 537 154 496 108 q 578 281 578 200 l 578 1014 l 715 1014 l 715 281 q 638 65 715 143 q 417 -14 561 -14 m 190 1163 l 190 1274 l 643 1274 l 643 1163 l 190 1163 z "},"Ų":{"ha":833,"x_min":119,"x_max":715,"o":"m 521 -286 q 397 -249 443 -286 q 350 -154 350 -211 q 375 -83 350 -122 q 442 -7 400 -43 q 432 -11 439 -8 q 417 -14 425 -14 q 199 65 278 -14 q 119 281 119 143 l 119 1014 l 257 1014 l 257 281 q 298 153 257 197 q 417 108 339 108 q 536 153 494 108 q 578 281 578 197 l 578 1014 l 715 1014 l 715 281 q 599 33 715 110 l 554 -3 q 494 -69 511 -39 q 476 -126 476 -100 q 496 -175 476 -156 q 550 -194 515 -194 l 636 -194 l 636 -286 l 521 -286 z "},"Ů":{"ha":833,"x_min":119,"x_max":715,"o":"m 417 -14 q 197 65 274 -14 q 119 281 119 144 l 119 1014 l 257 1014 l 257 281 q 297 154 257 200 q 417 108 336 108 q 537 154 496 108 q 578 281 578 200 l 578 1014 l 715 1014 l 715 281 q 638 65 715 143 q 417 -14 561 -14 m 417 1061 q 293 1106 340 1061 q 246 1222 246 1150 q 293 1339 246 1294 q 417 1383 340 1383 q 540 1339 493 1383 q 588 1222 588 1294 q 540 1106 588 1150 q 417 1061 493 1061 m 417 1139 q 477 1162 454 1139 q 500 1222 500 1185 q 477 1283 500 1260 q 417 1307 454 1307 q 356 1283 379 1307 q 333 1222 333 1260 q 356 1162 333 1185 q 417 1139 379 1139 z "},"Ũ":{"ha":833,"x_min":119,"x_max":715,"o":"m 417 -14 q 197 65 274 -14 q 119 281 119 144 l 119 1014 l 257 1014 l 257 281 q 297 154 257 200 q 417 108 336 108 q 537 154 496 108 q 578 281 578 200 l 578 1014 l 715 1014 l 715 281 q 638 65 715 143 q 417 -14 561 -14 m 514 1129 q 446 1143 472 1129 q 401 1176 419 1157 q 367 1210 383 1196 q 326 1224 350 1224 q 285 1176 285 1224 l 285 1136 l 190 1136 l 190 1179 q 226 1279 190 1243 q 319 1315 261 1315 q 388 1301 361 1315 q 432 1268 414 1288 q 467 1235 450 1249 q 507 1221 483 1221 q 549 1268 549 1221 l 549 1308 l 643 1308 l 643 1267 q 608 1165 643 1201 q 514 1129 572 1129 z "},"V":{"ha":833,"x_min":64,"x_max":769,"o":"m 324 0 l 64 1014 l 206 1014 l 374 331 q 402 205 390 265 q 419 113 414 144 q 437 206 424 144 q 465 332 450 267 l 628 1014 l 769 1014 l 508 0 l 324 0 z "},"W":{"ha":833,"x_min":32,"x_max":801,"o":"m 144 0 l 32 1014 l 158 1014 l 232 275 q 238 180 235 231 q 243 97 242 129 q 251 180 247 129 q 261 275 256 231 l 353 1014 l 486 1014 l 571 275 q 581 180 575 231 q 590 97 588 129 q 597 180 593 129 q 604 275 600 231 l 679 1014 l 801 1014 l 685 0 l 519 0 l 436 750 q 426 844 431 796 q 419 921 421 892 q 411 844 415 892 q 401 750 407 796 l 311 0 l 144 0 z "},"Ẃ":{"ha":833,"x_min":32,"x_max":801,"o":"m 144 0 l 32 1014 l 158 1014 l 232 275 q 238 180 235 231 q 243 97 242 129 q 251 180 247 129 q 261 275 256 231 l 353 1014 l 486 1014 l 571 275 q 581 180 575 231 q 590 97 588 129 q 597 180 593 129 q 604 275 600 231 l 679 1014 l 801 1014 l 685 0 l 519 0 l 436 750 q 426 844 431 796 q 419 921 421 892 q 411 844 415 892 q 401 750 407 796 l 311 0 l 144 0 m 331 1125 l 476 1319 l 625 1319 l 469 1125 l 331 1125 z "},"Ŵ":{"ha":833,"x_min":32,"x_max":801,"o":"m 144 0 l 32 1014 l 158 1014 l 232 275 q 238 180 235 231 q 243 97 242 129 q 251 180 247 129 q 261 275 256 231 l 353 1014 l 486 1014 l 571 275 q 581 180 575 231 q 590 97 588 129 q 597 180 593 129 q 604 275 600 231 l 679 1014 l 801 1014 l 685 0 l 519 0 l 436 750 q 426 844 431 796 q 419 921 421 892 q 411 844 415 892 q 401 750 407 796 l 311 0 l 144 0 m 160 1125 l 353 1319 l 479 1319 l 674 1125 l 528 1125 l 417 1232 l 308 1125 l 160 1125 z "},"Ẅ":{"ha":833,"x_min":32,"x_max":801,"o":"m 144 0 l 32 1014 l 158 1014 l 232 275 q 238 180 235 231 q 243 97 242 129 q 251 180 247 129 q 261 275 256 231 l 353 1014 l 486 1014 l 571 275 q 581 180 575 231 q 590 97 588 129 q 597 180 593 129 q 604 275 600 231 l 679 1014 l 801 1014 l 685 0 l 519 0 l 436 750 q 426 844 431 796 q 419 921 421 892 q 411 844 415 892 q 401 750 407 796 l 311 0 l 144 0 m 574 1132 q 506 1156 531 1132 q 481 1222 481 1181 q 506 1290 481 1265 q 574 1315 531 1315 q 640 1290 615 1315 q 665 1222 665 1265 q 640 1156 665 1181 q 574 1132 615 1132 m 260 1132 q 193 1156 218 1132 q 168 1222 168 1181 q 193 1290 168 1265 q 260 1315 218 1315 q 328 1290 303 1315 q 353 1222 353 1265 q 328 1156 353 1181 q 260 1132 303 1132 z "},"Ẁ":{"ha":833,"x_min":32,"x_max":801,"o":"m 144 0 l 32 1014 l 158 1014 l 232 275 q 238 180 235 231 q 243 97 242 129 q 251 180 247 129 q 261 275 256 231 l 353 1014 l 486 1014 l 571 275 q 581 180 575 231 q 590 97 588 129 q 597 180 593 129 q 604 275 600 231 l 679 1014 l 801 1014 l 685 0 l 519 0 l 436 750 q 426 844 431 796 q 419 921 421 892 q 411 844 415 892 q 401 750 407 796 l 311 0 l 144 0 m 365 1125 l 204 1319 l 357 1319 l 508 1125 l 365 1125 z "},"X":{"ha":833,"x_min":51,"x_max":782,"o":"m 51 0 l 340 515 l 67 1014 l 224 1014 l 374 725 q 399 674 386 700 q 419 633 413 647 q 439 674 426 647 q 464 725 451 700 l 615 1014 l 767 1014 l 493 522 l 782 0 l 626 0 l 460 311 q 435 363 447 336 q 415 407 422 390 q 396 363 408 390 q 369 313 383 336 l 203 0 l 51 0 z "},"Y":{"ha":833,"x_min":44,"x_max":789,"o":"m 349 0 l 349 376 l 44 1014 l 188 1014 l 378 614 q 405 549 394 578 q 418 507 415 519 q 433 549 422 519 q 461 614 443 578 l 647 1014 l 789 1014 l 486 376 l 486 0 l 349 0 z "},"Ý":{"ha":833,"x_min":44,"x_max":789,"o":"m 349 0 l 349 376 l 44 1014 l 188 1014 l 378 614 q 405 549 394 578 q 418 507 415 519 q 433 549 422 519 q 461 614 443 578 l 647 1014 l 789 1014 l 486 376 l 486 0 l 349 0 m 331 1125 l 476 1319 l 625 1319 l 469 1125 l 331 1125 z "},"Ŷ":{"ha":833,"x_min":44,"x_max":789,"o":"m 349 0 l 349 376 l 44 1014 l 188 1014 l 378 614 q 405 549 394 578 q 418 507 415 519 q 433 549 422 519 q 461 614 443 578 l 647 1014 l 789 1014 l 486 376 l 486 0 l 349 0 m 160 1125 l 353 1319 l 479 1319 l 674 1125 l 528 1125 l 417 1232 l 308 1125 l 160 1125 z "},"Ÿ":{"ha":833,"x_min":44,"x_max":789,"o":"m 349 0 l 349 376 l 44 1014 l 188 1014 l 378 614 q 405 549 394 578 q 418 507 415 519 q 433 549 422 519 q 461 614 443 578 l 647 1014 l 789 1014 l 486 376 l 486 0 l 349 0 m 574 1132 q 506 1156 531 1132 q 481 1222 481 1181 q 506 1290 481 1265 q 574 1315 531 1315 q 640 1290 615 1315 q 665 1222 665 1265 q 640 1156 665 1181 q 574 1132 615 1132 m 260 1132 q 193 1156 218 1132 q 168 1222 168 1181 q 193 1290 168 1265 q 260 1315 218 1315 q 328 1290 303 1315 q 353 1222 353 1265 q 328 1156 353 1181 q 260 1132 303 1132 z "},"Ỵ":{"ha":833,"x_min":44,"x_max":789,"o":"m 349 0 l 349 376 l 44 1014 l 188 1014 l 378 614 q 405 549 394 578 q 418 507 415 519 q 433 549 422 519 q 461 614 443 578 l 647 1014 l 789 1014 l 486 376 l 486 0 l 349 0 m 417 -300 q 342 -276 369 -300 q 314 -210 314 -251 q 342 -142 314 -167 q 417 -117 369 -117 q 492 -142 464 -117 q 519 -210 519 -167 q 492 -276 519 -251 q 417 -300 464 -300 z "},"Ỳ":{"ha":833,"x_min":44,"x_max":789,"o":"m 349 0 l 349 376 l 44 1014 l 188 1014 l 378 614 q 405 549 394 578 q 418 507 415 519 q 433 549 422 519 q 461 614 443 578 l 647 1014 l 789 1014 l 486 376 l 486 0 l 349 0 m 365 1125 l 204 1319 l 357 1319 l 508 1125 l 365 1125 z "},"Ỷ":{"ha":833,"x_min":44,"x_max":789,"o":"m 349 0 l 349 376 l 44 1014 l 188 1014 l 378 614 q 405 549 394 578 q 418 507 415 519 q 433 549 422 519 q 461 614 443 578 l 647 1014 l 789 1014 l 486 376 l 486 0 l 349 0 m 356 1110 l 418 1197 q 439 1240 439 1224 q 394 1268 439 1268 l 290 1268 l 290 1363 l 406 1363 q 512 1333 472 1363 q 551 1256 551 1304 q 528 1181 551 1215 l 479 1110 l 356 1110 z "},"Ȳ":{"ha":833,"x_min":44,"x_max":789,"o":"m 349 0 l 349 376 l 44 1014 l 188 1014 l 378 614 q 405 549 394 578 q 418 507 415 519 q 433 549 422 519 q 461 614 443 578 l 647 1014 l 789 1014 l 486 376 l 486 0 l 349 0 m 190 1163 l 190 1274 l 643 1274 l 643 1163 l 190 1163 z "},"Ỹ":{"ha":833,"x_min":44,"x_max":789,"o":"m 349 0 l 349 376 l 44 1014 l 188 1014 l 378 614 q 405 549 394 578 q 418 507 415 519 q 433 549 422 519 q 461 614 443 578 l 647 1014 l 789 1014 l 486 376 l 486 0 l 349 0 m 514 1129 q 446 1143 472 1129 q 401 1176 419 1157 q 367 1210 383 1196 q 326 1224 350 1224 q 285 1176 285 1224 l 285 1136 l 190 1136 l 190 1179 q 226 1279 190 1243 q 319 1315 261 1315 q 388 1301 361 1315 q 432 1268 414 1288 q 467 1235 450 1249 q 507 1221 483 1221 q 549 1268 549 1221 l 549 1308 l 643 1308 l 643 1267 q 608 1165 643 1201 q 514 1129 572 1129 z "},"Z":{"ha":833,"x_min":117,"x_max":718,"o":"m 117 0 l 117 135 l 560 889 l 124 889 l 124 1014 l 703 1014 l 703 879 l 258 125 l 718 125 l 718 0 l 117 0 z "},"Ź":{"ha":833,"x_min":117,"x_max":718,"o":"m 117 0 l 117 135 l 560 889 l 124 889 l 124 1014 l 703 1014 l 703 879 l 258 125 l 718 125 l 718 0 l 117 0 m 331 1125 l 476 1319 l 625 1319 l 469 1125 l 331 1125 z "},"Ž":{"ha":833,"x_min":117,"x_max":718,"o":"m 117 0 l 117 135 l 560 889 l 124 889 l 124 1014 l 703 1014 l 703 879 l 258 125 l 718 125 l 718 0 l 117 0 m 354 1125 l 160 1319 l 306 1319 l 417 1213 l 525 1319 l 674 1319 l 481 1125 l 354 1125 z "},"Ż":{"ha":833,"x_min":117,"x_max":718,"o":"m 117 0 l 117 135 l 560 889 l 124 889 l 124 1014 l 703 1014 l 703 879 l 258 125 l 718 125 l 718 0 l 117 0 m 417 1131 q 342 1156 369 1131 q 314 1222 314 1181 q 342 1289 314 1264 q 417 1314 369 1314 q 492 1289 464 1314 q 519 1222 519 1264 q 492 1156 519 1181 q 417 1131 464 1131 z "},"a":{"ha":833,"x_min":88,"x_max":714,"o":"m 346 -14 q 156 48 225 -14 q 88 215 88 110 q 159 385 88 324 q 354 447 231 447 l 576 447 l 576 519 q 535 623 576 586 q 422 660 494 660 q 313 631 357 660 q 260 557 269 603 l 125 557 q 171 673 131 624 q 276 750 211 722 q 424 778 342 778 q 635 709 557 778 q 714 524 714 640 l 714 0 l 579 0 l 579 142 l 578 142 q 506 28 568 69 q 346 -14 443 -14 m 383 93 q 522 135 467 93 q 576 244 576 178 l 576 349 l 357 349 q 260 315 296 349 q 225 225 225 282 q 267 128 225 163 q 383 93 308 93 z "},"á":{"ha":833,"x_min":88,"x_max":714,"o":"m 346 -14 q 156 48 225 -14 q 88 215 88 110 q 159 385 88 324 q 354 447 231 447 l 576 447 l 576 519 q 535 623 576 586 q 422 660 494 660 q 313 631 357 660 q 260 557 269 603 l 125 557 q 171 673 131 624 q 276 750 211 722 q 424 778 342 778 q 635 709 557 778 q 714 524 714 640 l 714 0 l 579 0 l 579 142 l 578 142 q 506 28 568 69 q 346 -14 443 -14 m 383 93 q 522 135 467 93 q 576 244 576 178 l 576 349 l 357 349 q 260 315 296 349 q 225 225 225 282 q 267 128 225 163 q 383 93 308 93 m 338 896 l 483 1090 l 632 1090 l 476 896 l 338 896 z "},"ă":{"ha":833,"x_min":88,"x_max":714,"o":"m 346 -14 q 156 48 225 -14 q 88 215 88 110 q 159 385 88 324 q 354 447 231 447 l 576 447 l 576 519 q 535 623 576 586 q 422 660 494 660 q 313 631 357 660 q 260 557 269 603 l 125 557 q 171 673 131 624 q 276 750 211 722 q 424 778 342 778 q 635 709 557 778 q 714 524 714 640 l 714 0 l 579 0 l 579 142 l 578 142 q 506 28 568 69 q 346 -14 443 -14 m 383 93 q 522 135 467 93 q 576 244 576 178 l 576 349 l 357 349 q 260 315 296 349 q 225 225 225 282 q 267 128 225 163 q 383 93 308 93 m 424 888 q 258 943 321 888 q 196 1090 196 999 l 304 1090 q 337 1007 304 1039 q 422 975 369 975 q 510 1007 476 975 q 543 1090 543 1039 l 651 1090 q 589 943 651 999 q 424 888 526 888 z "},"ắ":{"ha":833,"x_min":88,"x_max":714,"o":"m 346 -14 q 156 48 225 -14 q 88 215 88 110 q 159 385 88 324 q 354 447 231 447 l 576 447 l 576 519 q 535 623 576 586 q 422 660 494 660 q 313 631 357 660 q 260 557 269 603 l 125 557 q 171 673 131 624 q 276 750 211 722 q 424 778 342 778 q 635 709 557 778 q 714 524 714 640 l 714 0 l 579 0 l 579 142 l 578 142 q 506 28 568 69 q 346 -14 443 -14 m 383 93 q 522 135 467 93 q 576 244 576 178 l 576 349 l 357 349 q 260 315 296 349 q 225 225 225 282 q 267 128 225 163 q 383 93 308 93 m 336 1063 l 496 1244 l 636 1244 l 468 1063 l 336 1063 m 424 889 q 251 939 317 889 q 185 1072 185 989 l 290 1072 q 326 1004 290 1029 q 424 979 363 979 q 521 1004 485 979 q 557 1072 557 1029 l 663 1072 q 597 939 663 989 q 424 889 531 889 z "},"ặ":{"ha":833,"x_min":88,"x_max":714,"o":"m 346 -14 q 156 48 225 -14 q 88 215 88 110 q 159 385 88 324 q 354 447 231 447 l 576 447 l 576 519 q 535 623 576 586 q 422 660 494 660 q 313 631 357 660 q 260 557 269 603 l 125 557 q 171 673 131 624 q 276 750 211 722 q 424 778 342 778 q 635 709 557 778 q 714 524 714 640 l 714 0 l 579 0 l 579 142 l 578 142 q 506 28 568 69 q 346 -14 443 -14 m 383 93 q 522 135 467 93 q 576 244 576 178 l 576 349 l 357 349 q 260 315 296 349 q 225 225 225 282 q 267 128 225 163 q 383 93 308 93 m 424 -300 q 349 -276 376 -300 q 321 -210 321 -251 q 349 -142 321 -167 q 424 -117 376 -117 q 499 -142 471 -117 q 526 -210 526 -167 q 499 -276 526 -251 q 424 -300 471 -300 m 424 888 q 258 943 321 888 q 196 1090 196 999 l 304 1090 q 337 1007 304 1039 q 422 975 369 975 q 510 1007 476 975 q 543 1090 543 1039 l 651 1090 q 589 943 651 999 q 424 888 526 888 z "},"ằ":{"ha":833,"x_min":88,"x_max":714,"o":"m 346 -14 q 156 48 225 -14 q 88 215 88 110 q 159 385 88 324 q 354 447 231 447 l 576 447 l 576 519 q 535 623 576 586 q 422 660 494 660 q 313 631 357 660 q 260 557 269 603 l 125 557 q 171 673 131 624 q 276 750 211 722 q 424 778 342 778 q 635 709 557 778 q 714 524 714 640 l 714 0 l 579 0 l 579 142 l 578 142 q 506 28 568 69 q 346 -14 443 -14 m 383 93 q 522 135 467 93 q 576 244 576 178 l 576 349 l 357 349 q 260 315 296 349 q 225 225 225 282 q 267 128 225 163 q 383 93 308 93 m 379 1063 l 211 1244 l 351 1244 l 511 1063 l 379 1063 m 424 889 q 251 939 317 889 q 185 1072 185 989 l 290 1072 q 326 1004 290 1029 q 424 979 363 979 q 521 1004 485 979 q 557 1072 557 1029 l 663 1072 q 597 939 663 989 q 424 889 531 889 z "},"ẳ":{"ha":833,"x_min":88,"x_max":714,"o":"m 346 -14 q 156 48 225 -14 q 88 215 88 110 q 159 385 88 324 q 354 447 231 447 l 576 447 l 576 519 q 535 623 576 586 q 422 660 494 660 q 313 631 357 660 q 260 557 269 603 l 125 557 q 171 673 131 624 q 276 750 211 722 q 424 778 342 778 q 635 709 557 778 q 714 524 714 640 l 714 0 l 579 0 l 579 142 l 578 142 q 506 28 568 69 q 346 -14 443 -14 m 383 93 q 522 135 467 93 q 576 244 576 178 l 576 349 l 357 349 q 260 315 296 349 q 225 225 225 282 q 267 128 225 163 q 383 93 308 93 m 356 1063 l 418 1144 q 432 1181 432 1163 q 394 1213 432 1213 l 314 1213 l 314 1301 l 411 1301 q 508 1273 472 1301 q 544 1200 544 1244 q 538 1163 544 1181 q 519 1129 531 1144 l 472 1063 l 356 1063 m 424 889 q 251 939 317 889 q 185 1072 185 989 l 290 1072 q 326 1004 290 1029 q 424 979 363 979 q 521 1004 485 979 q 557 1072 557 1029 l 663 1072 q 597 939 663 989 q 424 889 531 889 z "},"ẵ":{"ha":833,"x_min":88,"x_max":714,"o":"m 346 -14 q 156 48 225 -14 q 88 215 88 110 q 159 385 88 324 q 354 447 231 447 l 576 447 l 576 519 q 535 623 576 586 q 422 660 494 660 q 313 631 357 660 q 260 557 269 603 l 125 557 q 171 673 131 624 q 276 750 211 722 q 424 778 342 778 q 635 709 557 778 q 714 524 714 640 l 714 0 l 579 0 l 579 142 l 578 142 q 506 28 568 69 q 346 -14 443 -14 m 383 93 q 522 135 467 93 q 576 244 576 178 l 576 349 l 357 349 q 260 315 296 349 q 225 225 225 282 q 267 128 225 163 q 383 93 308 93 m 517 1126 q 447 1140 472 1126 q 404 1171 421 1153 q 372 1202 388 1189 q 333 1215 357 1215 q 292 1174 292 1215 l 292 1138 l 197 1138 l 197 1168 q 234 1260 197 1225 q 331 1296 271 1296 q 401 1282 375 1296 q 444 1251 428 1268 q 475 1220 460 1233 q 514 1207 490 1207 q 556 1247 556 1207 l 556 1285 l 650 1285 l 650 1254 q 613 1161 650 1196 q 517 1126 576 1126 m 424 894 q 259 945 322 894 q 196 1078 196 996 l 296 1078 q 331 1009 296 1035 q 422 983 365 983 q 516 1009 481 983 q 551 1078 551 1035 l 651 1078 q 588 945 651 996 q 424 894 525 894 z "},"ǎ":{"ha":833,"x_min":88,"x_max":714,"o":"m 346 -14 q 156 48 225 -14 q 88 215 88 110 q 159 385 88 324 q 354 447 231 447 l 576 447 l 576 519 q 535 623 576 586 q 422 660 494 660 q 313 631 357 660 q 260 557 269 603 l 125 557 q 171 673 131 624 q 276 750 211 722 q 424 778 342 778 q 635 709 557 778 q 714 524 714 640 l 714 0 l 579 0 l 579 142 l 578 142 q 506 28 568 69 q 346 -14 443 -14 m 383 93 q 522 135 467 93 q 576 244 576 178 l 576 349 l 357 349 q 260 315 296 349 q 225 225 225 282 q 267 128 225 163 q 383 93 308 93 m 361 896 l 167 1090 l 313 1090 l 424 983 l 532 1090 l 681 1090 l 488 896 l 361 896 z "},"â":{"ha":833,"x_min":88,"x_max":714,"o":"m 346 -14 q 156 48 225 -14 q 88 215 88 110 q 159 385 88 324 q 354 447 231 447 l 576 447 l 576 519 q 535 623 576 586 q 422 660 494 660 q 313 631 357 660 q 260 557 269 603 l 125 557 q 171 673 131 624 q 276 750 211 722 q 424 778 342 778 q 635 709 557 778 q 714 524 714 640 l 714 0 l 579 0 l 579 142 l 578 142 q 506 28 568 69 q 346 -14 443 -14 m 383 93 q 522 135 467 93 q 576 244 576 178 l 576 349 l 357 349 q 260 315 296 349 q 225 225 225 282 q 267 128 225 163 q 383 93 308 93 m 167 896 l 360 1090 l 486 1090 l 681 896 l 535 896 l 424 1003 l 315 896 l 167 896 z "},"ấ":{"ha":833,"x_min":88,"x_max":888,"o":"m 346 -14 q 156 48 225 -14 q 88 215 88 110 q 159 385 88 324 q 354 447 231 447 l 576 447 l 576 519 q 535 623 576 586 q 422 660 494 660 q 313 631 357 660 q 260 557 269 603 l 125 557 q 171 673 131 624 q 276 750 211 722 q 424 778 342 778 q 635 709 557 778 q 714 524 714 640 l 714 0 l 579 0 l 579 142 l 578 142 q 506 28 568 69 q 346 -14 443 -14 m 383 93 q 522 135 467 93 q 576 244 576 178 l 576 349 l 357 349 q 260 315 296 349 q 225 225 225 282 q 267 128 225 163 q 383 93 308 93 m 579 1056 l 739 1250 l 888 1250 l 719 1056 l 579 1056 m 168 896 l 360 1090 l 488 1090 l 681 896 l 532 896 l 424 1003 l 314 896 l 168 896 z "},"ậ":{"ha":833,"x_min":88,"x_max":714,"o":"m 346 -14 q 156 48 225 -14 q 88 215 88 110 q 159 385 88 324 q 354 447 231 447 l 576 447 l 576 519 q 535 623 576 586 q 422 660 494 660 q 313 631 357 660 q 260 557 269 603 l 125 557 q 171 673 131 624 q 276 750 211 722 q 424 778 342 778 q 635 709 557 778 q 714 524 714 640 l 714 0 l 579 0 l 579 142 l 578 142 q 506 28 568 69 q 346 -14 443 -14 m 383 93 q 522 135 467 93 q 576 244 576 178 l 576 349 l 357 349 q 260 315 296 349 q 225 225 225 282 q 267 128 225 163 q 383 93 308 93 m 424 -300 q 349 -276 376 -300 q 321 -210 321 -251 q 349 -142 321 -167 q 424 -117 376 -117 q 499 -142 471 -117 q 526 -210 526 -167 q 499 -276 526 -251 q 424 -300 471 -300 m 167 896 l 360 1090 l 486 1090 l 681 896 l 535 896 l 424 1003 l 315 896 l 167 896 z "},"ầ":{"ha":833,"x_min":88,"x_max":778,"o":"m 346 -14 q 156 48 225 -14 q 88 215 88 110 q 159 385 88 324 q 354 447 231 447 l 576 447 l 576 519 q 535 623 576 586 q 422 660 494 660 q 313 631 357 660 q 260 557 269 603 l 125 557 q 171 673 131 624 q 276 750 211 722 q 424 778 342 778 q 635 709 557 778 q 714 524 714 640 l 714 0 l 579 0 l 579 142 l 578 142 q 506 28 568 69 q 346 -14 443 -14 m 383 93 q 522 135 467 93 q 576 244 576 178 l 576 349 l 357 349 q 260 315 296 349 q 225 225 225 282 q 267 128 225 163 q 383 93 308 93 m 638 1056 l 457 1250 l 606 1250 l 778 1056 l 638 1056 m 168 896 l 360 1090 l 488 1090 l 681 896 l 532 896 l 424 1003 l 314 896 l 168 896 z "},"ẩ":{"ha":833,"x_min":88,"x_max":779,"o":"m 346 -14 q 156 48 225 -14 q 88 215 88 110 q 159 385 88 324 q 354 447 231 447 l 576 447 l 576 519 q 535 623 576 586 q 422 660 494 660 q 313 631 357 660 q 260 557 269 603 l 125 557 q 171 673 131 624 q 276 750 211 722 q 424 778 342 778 q 635 709 557 778 q 714 524 714 640 l 714 0 l 579 0 l 579 142 l 578 142 q 506 28 568 69 q 346 -14 443 -14 m 383 93 q 522 135 467 93 q 576 244 576 178 l 576 349 l 357 349 q 260 315 296 349 q 225 225 225 282 q 267 128 225 163 q 383 93 308 93 m 594 1056 l 658 1140 q 672 1174 672 1160 q 628 1207 672 1207 l 553 1207 l 553 1296 l 639 1296 q 741 1267 703 1296 q 779 1189 779 1238 q 754 1124 779 1157 l 706 1056 l 594 1056 m 168 896 l 360 1090 l 488 1090 l 681 896 l 532 896 l 424 1003 l 314 896 l 168 896 z "},"ẫ":{"ha":833,"x_min":88,"x_max":714,"o":"m 346 -14 q 156 48 225 -14 q 88 215 88 110 q 159 385 88 324 q 354 447 231 447 l 576 447 l 576 519 q 535 623 576 586 q 422 660 494 660 q 313 631 357 660 q 260 557 269 603 l 125 557 q 171 673 131 624 q 276 750 211 722 q 424 778 342 778 q 635 709 557 778 q 714 524 714 640 l 714 0 l 579 0 l 579 142 l 578 142 q 506 28 568 69 q 346 -14 443 -14 m 383 93 q 522 135 467 93 q 576 244 576 178 l 576 349 l 357 349 q 260 315 296 349 q 225 225 225 282 q 267 128 225 163 q 383 93 308 93 m 517 1131 q 447 1144 472 1131 q 404 1174 421 1157 q 372 1205 388 1192 q 333 1218 357 1218 q 292 1175 292 1218 l 292 1142 l 197 1142 l 197 1169 q 234 1263 197 1228 q 331 1297 271 1297 q 401 1284 375 1297 q 444 1254 428 1271 q 475 1224 460 1238 q 514 1211 490 1211 q 556 1253 556 1211 l 556 1288 l 650 1288 l 650 1258 q 613 1166 650 1201 q 517 1131 576 1131 m 168 896 l 360 1090 l 488 1090 l 681 896 l 532 896 l 424 1003 l 314 896 l 168 896 z "},"ä":{"ha":833,"x_min":88,"x_max":714,"o":"m 346 -14 q 156 48 225 -14 q 88 215 88 110 q 159 385 88 324 q 354 447 231 447 l 576 447 l 576 519 q 535 623 576 586 q 422 660 494 660 q 313 631 357 660 q 260 557 269 603 l 125 557 q 171 673 131 624 q 276 750 211 722 q 424 778 342 778 q 635 709 557 778 q 714 524 714 640 l 714 0 l 579 0 l 579 142 l 578 142 q 506 28 568 69 q 346 -14 443 -14 m 383 93 q 522 135 467 93 q 576 244 576 178 l 576 349 l 357 349 q 260 315 296 349 q 225 225 225 282 q 267 128 225 163 q 383 93 308 93 m 581 899 q 513 923 538 899 q 488 989 488 947 q 513 1057 488 1032 q 581 1082 538 1082 q 647 1057 622 1082 q 672 989 672 1032 q 647 923 672 947 q 581 899 622 899 m 267 899 q 200 923 225 899 q 175 989 175 947 q 200 1057 175 1032 q 267 1082 225 1082 q 335 1057 310 1082 q 360 989 360 1032 q 335 923 360 947 q 267 899 310 899 z "},"ạ":{"ha":833,"x_min":88,"x_max":714,"o":"m 346 -14 q 156 48 225 -14 q 88 215 88 110 q 159 385 88 324 q 354 447 231 447 l 576 447 l 576 519 q 535 623 576 586 q 422 660 494 660 q 313 631 357 660 q 260 557 269 603 l 125 557 q 171 673 131 624 q 276 750 211 722 q 424 778 342 778 q 635 709 557 778 q 714 524 714 640 l 714 0 l 579 0 l 579 142 l 578 142 q 506 28 568 69 q 346 -14 443 -14 m 383 93 q 522 135 467 93 q 576 244 576 178 l 576 349 l 357 349 q 260 315 296 349 q 225 225 225 282 q 267 128 225 163 q 383 93 308 93 m 424 -300 q 349 -276 376 -300 q 321 -210 321 -251 q 349 -142 321 -167 q 424 -117 376 -117 q 499 -142 471 -117 q 526 -210 526 -167 q 499 -276 526 -251 q 424 -300 471 -300 z "},"à":{"ha":833,"x_min":88,"x_max":714,"o":"m 346 -14 q 156 48 225 -14 q 88 215 88 110 q 159 385 88 324 q 354 447 231 447 l 576 447 l 576 519 q 535 623 576 586 q 422 660 494 660 q 313 631 357 660 q 260 557 269 603 l 125 557 q 171 673 131 624 q 276 750 211 722 q 424 778 342 778 q 635 709 557 778 q 714 524 714 640 l 714 0 l 579 0 l 579 142 l 578 142 q 506 28 568 69 q 346 -14 443 -14 m 383 93 q 522 135 467 93 q 576 244 576 178 l 576 349 l 357 349 q 260 315 296 349 q 225 225 225 282 q 267 128 225 163 q 383 93 308 93 m 372 896 l 211 1090 l 364 1090 l 515 896 l 372 896 z "},"ả":{"ha":833,"x_min":88,"x_max":714,"o":"m 346 -14 q 156 48 225 -14 q 88 215 88 110 q 159 385 88 324 q 354 447 231 447 l 576 447 l 576 519 q 535 623 576 586 q 422 660 494 660 q 313 631 357 660 q 260 557 269 603 l 125 557 q 171 673 131 624 q 276 750 211 722 q 424 778 342 778 q 635 709 557 778 q 714 524 714 640 l 714 0 l 579 0 l 579 142 l 578 142 q 506 28 568 69 q 346 -14 443 -14 m 383 93 q 522 135 467 93 q 576 244 576 178 l 576 349 l 357 349 q 260 315 296 349 q 225 225 225 282 q 267 128 225 163 q 383 93 308 93 m 363 896 l 432 982 q 451 1026 451 1008 q 408 1053 451 1053 l 297 1053 l 297 1147 l 443 1147 q 531 1119 497 1147 q 565 1043 565 1092 q 540 967 565 997 l 486 896 l 363 896 z "},"ā":{"ha":833,"x_min":88,"x_max":714,"o":"m 346 -14 q 156 48 225 -14 q 88 215 88 110 q 159 385 88 324 q 354 447 231 447 l 576 447 l 576 519 q 535 623 576 586 q 422 660 494 660 q 313 631 357 660 q 260 557 269 603 l 125 557 q 171 673 131 624 q 276 750 211 722 q 424 778 342 778 q 635 709 557 778 q 714 524 714 640 l 714 0 l 579 0 l 579 142 l 578 142 q 506 28 568 69 q 346 -14 443 -14 m 383 93 q 522 135 467 93 q 576 244 576 178 l 576 349 l 357 349 q 260 315 296 349 q 225 225 225 282 q 267 128 225 163 q 383 93 308 93 m 197 928 l 197 1039 l 650 1039 l 650 928 l 197 928 z "},"ą":{"ha":833,"x_min":88,"x_max":785,"o":"m 346 -14 q 156 48 225 -14 q 88 215 88 110 q 159 385 88 324 q 354 447 231 447 l 576 447 l 576 519 q 535 623 576 586 q 422 660 494 660 q 313 631 357 660 q 260 557 269 603 l 125 557 q 171 673 131 624 q 276 750 211 722 q 424 778 342 778 q 635 709 557 778 q 714 524 714 640 l 714 0 q 646 -69 667 -39 q 625 -126 625 -100 q 645 -175 625 -156 q 700 -194 665 -194 l 785 -194 l 785 -286 l 671 -286 q 547 -249 593 -286 q 500 -154 500 -211 q 524 -78 500 -117 q 603 0 547 -40 l 579 0 l 579 142 l 578 142 q 506 28 568 69 q 346 -14 443 -14 m 383 93 q 522 135 467 93 q 576 244 576 178 l 576 349 l 357 349 q 260 315 296 349 q 225 225 225 282 q 267 128 225 163 q 383 93 308 93 z "},"å":{"ha":833,"x_min":88,"x_max":714,"o":"m 346 -14 q 156 48 225 -14 q 88 215 88 110 q 159 385 88 324 q 354 447 231 447 l 576 447 l 576 519 q 535 623 576 586 q 422 660 494 660 q 313 631 357 660 q 260 557 269 603 l 125 557 q 171 673 131 624 q 276 750 211 722 q 424 778 342 778 q 635 709 557 778 q 714 524 714 640 l 714 0 l 579 0 l 579 142 l 578 142 q 506 28 568 69 q 346 -14 443 -14 m 383 93 q 522 135 467 93 q 576 244 576 178 l 576 349 l 357 349 q 260 315 296 349 q 225 225 225 282 q 267 128 225 163 q 383 93 308 93 m 424 843 q 300 888 347 843 q 253 1004 253 932 q 300 1121 253 1076 q 424 1165 347 1165 q 547 1121 500 1165 q 594 1004 594 1076 q 547 888 594 932 q 424 843 500 843 m 424 919 q 484 942 461 919 q 507 1004 507 965 q 484 1065 507 1042 q 424 1089 461 1089 q 363 1065 386 1089 q 340 1004 340 1042 q 363 942 340 965 q 424 919 386 919 z "},"ã":{"ha":833,"x_min":88,"x_max":714,"o":"m 346 -14 q 156 48 225 -14 q 88 215 88 110 q 159 385 88 324 q 354 447 231 447 l 576 447 l 576 519 q 535 623 576 586 q 422 660 494 660 q 313 631 357 660 q 260 557 269 603 l 125 557 q 171 673 131 624 q 276 750 211 722 q 424 778 342 778 q 635 709 557 778 q 714 524 714 640 l 714 0 l 579 0 l 579 142 l 578 142 q 506 28 568 69 q 346 -14 443 -14 m 383 93 q 522 135 467 93 q 576 244 576 178 l 576 349 l 357 349 q 260 315 296 349 q 225 225 225 282 q 267 128 225 163 q 383 93 308 93 m 521 900 q 453 914 479 900 q 408 947 426 928 q 374 981 390 967 q 333 994 357 994 q 292 947 292 994 l 292 907 l 197 907 l 197 950 q 233 1050 197 1014 q 326 1086 268 1086 q 394 1072 368 1086 q 439 1039 421 1058 q 474 1006 457 1019 q 514 992 490 992 q 556 1039 556 992 l 556 1079 l 650 1079 l 650 1038 q 615 936 650 972 q 521 900 579 900 z "},"æ":{"ha":833,"x_min":49,"x_max":785,"o":"m 236 -14 q 99 40 150 -14 q 49 183 49 93 l 49 264 q 107 401 49 350 q 264 453 165 453 l 360 453 l 360 557 q 272 667 360 667 q 210 643 233 667 q 188 579 188 619 l 63 579 q 114 723 63 668 q 250 778 165 778 q 340 760 304 778 q 394 717 375 742 q 417 668 413 692 l 424 668 q 446 717 428 692 q 498 760 464 742 q 583 778 532 778 q 731 719 676 778 q 785 558 785 660 l 785 353 l 479 353 l 479 207 q 503 127 479 157 q 568 97 528 97 q 636 120 611 97 q 661 183 661 143 l 785 183 q 729 40 785 94 q 583 -14 674 -14 q 497 4 531 -14 q 444 47 463 22 q 424 96 426 72 l 417 96 q 392 47 413 72 q 333 4 372 22 q 236 -14 294 -14 m 479 453 l 661 453 l 661 558 q 636 637 661 607 q 568 667 611 667 q 503 637 526 667 q 479 558 479 607 l 479 453 m 265 97 q 334 127 308 97 q 360 207 360 157 l 360 353 l 267 353 q 202 329 225 353 q 179 264 179 306 l 179 183 q 202 120 179 143 q 265 97 225 97 z "},"ǽ":{"ha":833,"x_min":49,"x_max":785,"o":"m 236 -14 q 99 40 150 -14 q 49 183 49 93 l 49 264 q 107 401 49 350 q 264 453 165 453 l 360 453 l 360 557 q 272 667 360 667 q 210 643 233 667 q 188 579 188 619 l 63 579 q 114 723 63 668 q 250 778 165 778 q 340 760 304 778 q 394 717 375 742 q 417 668 413 692 l 424 668 q 446 717 428 692 q 498 760 464 742 q 583 778 532 778 q 731 719 676 778 q 785 558 785 660 l 785 353 l 479 353 l 479 207 q 503 127 479 157 q 568 97 528 97 q 636 120 611 97 q 661 183 661 143 l 785 183 q 729 40 785 94 q 583 -14 674 -14 q 497 4 531 -14 q 444 47 463 22 q 424 96 426 72 l 417 96 q 392 47 413 72 q 333 4 372 22 q 236 -14 294 -14 m 479 453 l 661 453 l 661 558 q 636 637 661 607 q 568 667 611 667 q 503 637 526 667 q 479 558 479 607 l 479 453 m 265 97 q 334 127 308 97 q 360 207 360 157 l 360 353 l 267 353 q 202 329 225 353 q 179 264 179 306 l 179 183 q 202 120 179 143 q 265 97 225 97 m 331 896 l 476 1090 l 625 1090 l 469 896 l 331 896 z "},"b":{"ha":833,"x_min":122,"x_max":721,"o":"m 467 -14 q 325 28 381 -14 q 260 146 269 71 l 258 146 l 258 0 l 122 0 l 122 1014 l 260 1014 l 260 794 l 257 618 l 260 618 q 326 735 271 692 q 467 778 382 778 q 651 701 582 778 q 721 492 721 624 l 721 272 q 651 63 721 139 q 467 -14 581 -14 m 419 106 q 540 151 496 106 q 583 281 583 196 l 583 485 q 540 613 583 568 q 419 658 496 658 q 303 613 346 658 q 260 485 260 567 l 260 281 q 303 151 260 197 q 419 106 346 106 z "},"c":{"ha":833,"x_min":113,"x_max":725,"o":"m 422 -14 q 197 65 282 -14 q 113 281 113 143 l 113 485 q 197 699 113 621 q 422 778 282 778 q 639 706 557 778 q 725 511 721 635 l 589 511 q 540 619 585 581 q 422 657 496 657 q 297 612 343 657 q 250 485 250 567 l 250 281 q 297 153 250 197 q 422 108 343 108 q 540 146 496 108 q 589 253 585 183 l 725 253 q 639 58 721 129 q 422 -14 557 -14 z "},"ć":{"ha":833,"x_min":113,"x_max":725,"o":"m 422 -14 q 197 65 282 -14 q 113 281 113 143 l 113 485 q 197 699 113 621 q 422 778 282 778 q 639 706 557 778 q 725 511 721 635 l 589 511 q 540 619 585 581 q 422 657 496 657 q 297 612 343 657 q 250 485 250 567 l 250 281 q 297 153 250 197 q 422 108 343 108 q 540 146 496 108 q 589 253 585 183 l 725 253 q 639 58 721 129 q 422 -14 557 -14 m 336 896 l 482 1090 l 631 1090 l 475 896 l 336 896 z "},"č":{"ha":833,"x_min":113,"x_max":725,"o":"m 422 -14 q 197 65 282 -14 q 113 281 113 143 l 113 485 q 197 699 113 621 q 422 778 282 778 q 639 706 557 778 q 725 511 721 635 l 589 511 q 540 619 585 581 q 422 657 496 657 q 297 612 343 657 q 250 485 250 567 l 250 281 q 297 153 250 197 q 422 108 343 108 q 540 146 496 108 q 589 253 585 183 l 725 253 q 639 58 721 129 q 422 -14 557 -14 m 360 896 l 165 1090 l 311 1090 l 422 983 l 531 1090 l 679 1090 l 486 896 l 360 896 z "},"ç":{"ha":833,"x_min":113,"x_max":725,"o":"m 288 -286 l 288 -207 l 386 -207 q 436 -191 417 -207 q 456 -157 456 -175 q 417 -114 456 -132 q 307 -96 378 -96 l 340 -6 q 174 90 235 15 q 113 281 113 164 l 113 485 q 197 699 113 621 q 422 778 282 778 q 639 706 557 778 q 725 511 721 635 l 589 511 q 540 619 585 581 q 422 657 496 657 q 297 612 343 657 q 250 485 250 567 l 250 281 q 297 153 250 197 q 422 108 343 108 q 540 146 496 108 q 589 253 585 183 l 725 253 q 639 58 721 129 q 422 -14 557 -14 l 410 -50 q 487 -67 447 -53 q 553 -107 526 -82 q 581 -169 581 -132 q 534 -252 581 -218 q 410 -286 488 -286 l 288 -286 z "},"ĉ":{"ha":833,"x_min":113,"x_max":725,"o":"m 422 -14 q 197 65 282 -14 q 113 281 113 143 l 113 485 q 197 699 113 621 q 422 778 282 778 q 639 706 557 778 q 725 511 721 635 l 589 511 q 540 619 585 581 q 422 657 496 657 q 297 612 343 657 q 250 485 250 567 l 250 281 q 297 153 250 197 q 422 108 343 108 q 540 146 496 108 q 589 253 585 183 l 725 253 q 639 58 721 129 q 422 -14 557 -14 m 165 896 l 358 1090 l 485 1090 l 679 896 l 533 896 l 422 1003 l 314 896 l 165 896 z "},"ċ":{"ha":833,"x_min":113,"x_max":725,"o":"m 422 -14 q 197 65 282 -14 q 113 281 113 143 l 113 485 q 197 699 113 621 q 422 778 282 778 q 639 706 557 778 q 725 511 721 635 l 589 511 q 540 619 585 581 q 422 657 496 657 q 297 612 343 657 q 250 485 250 567 l 250 281 q 297 153 250 197 q 422 108 343 108 q 540 146 496 108 q 589 253 585 183 l 725 253 q 639 58 721 129 q 422 -14 557 -14 m 422 899 q 347 923 375 899 q 319 989 319 947 q 347 1057 319 1032 q 422 1082 375 1082 q 497 1057 469 1082 q 525 989 525 1032 q 497 923 525 947 q 422 899 469 899 z "},"d":{"ha":833,"x_min":113,"x_max":711,"o":"m 367 -14 q 182 63 251 -14 q 113 272 113 140 l 113 492 q 182 701 113 624 q 367 778 251 778 q 505 735 450 778 q 574 621 560 693 l 576 621 l 574 794 l 574 1014 l 711 1014 l 711 0 l 575 0 l 575 144 l 574 144 q 505 28 560 69 q 367 -14 450 -14 m 414 106 q 531 151 488 106 q 574 281 574 197 l 574 483 q 531 613 574 567 q 414 658 488 658 q 294 613 338 658 q 250 485 250 568 l 250 281 q 294 151 250 196 q 414 106 338 106 z "},"ð":{"ha":833,"x_min":92,"x_max":743,"o":"m 415 -11 q 245 28 318 -11 q 132 138 172 67 q 92 303 92 208 q 128 465 92 396 q 229 572 164 533 q 382 610 294 610 q 488 581 444 610 q 547 526 531 553 l 564 526 q 537 576 560 539 q 472 668 514 613 l 385 790 l 160 689 l 160 806 l 321 878 l 222 1014 l 379 1014 l 438 929 l 647 1024 l 647 907 l 501 842 l 604 694 q 706 503 669 601 q 743 315 743 404 q 702 143 743 217 q 588 29 661 69 q 415 -11 514 -11 m 415 108 q 553 162 501 108 q 606 303 606 215 q 553 444 606 390 q 415 497 501 497 q 281 444 332 497 q 229 303 229 390 q 281 162 229 215 q 415 108 332 108 z "},"ď":{"ha":833,"x_min":83,"x_max":836,"o":"m 707 764 l 707 1014 l 836 1014 l 822 764 l 707 764 m 311 -14 q 145 61 207 -14 q 83 265 83 136 l 83 499 q 145 702 83 626 q 311 778 207 778 q 438 735 389 778 q 496 618 486 692 l 500 618 l 496 794 l 496 1014 l 632 1014 l 632 0 l 497 0 l 497 146 l 496 146 q 438 29 486 72 q 311 -14 389 -14 m 358 103 q 460 148 424 103 q 496 274 496 193 l 496 492 q 460 616 496 571 q 358 661 424 661 q 255 616 292 661 q 218 492 218 571 l 218 274 q 255 148 218 193 q 358 103 292 103 z "},"đ":{"ha":833,"x_min":119,"x_max":833,"o":"m 367 -14 q 186 63 253 -14 q 119 272 119 139 l 119 408 q 185 617 119 540 q 367 694 251 694 q 506 651 451 694 q 569 535 560 608 l 575 535 l 571 711 l 571 789 l 346 789 l 346 896 l 571 896 l 571 1014 l 708 1014 l 708 896 l 833 896 l 833 789 l 708 789 l 708 0 l 572 0 l 572 146 l 569 146 q 506 28 560 71 q 367 -14 453 -14 m 414 106 q 529 151 488 106 q 571 281 571 197 l 571 401 q 529 529 571 483 q 414 575 488 575 q 297 530 338 575 q 257 401 257 485 l 257 281 q 297 151 257 196 q 414 106 338 106 z "},"e":{"ha":833,"x_min":113,"x_max":721,"o":"m 417 -14 q 256 23 325 -14 q 150 126 188 60 q 113 281 113 192 l 113 485 q 150 638 113 572 q 256 741 188 704 q 417 778 325 778 q 577 741 508 778 q 683 638 646 704 q 721 485 721 572 l 721 349 l 247 349 l 247 281 q 291 146 247 192 q 417 100 335 100 q 528 124 486 100 q 581 197 569 149 l 717 197 q 620 43 703 100 q 417 -14 538 -14 m 247 485 l 247 447 l 588 447 l 588 485 q 544 619 588 572 q 417 665 500 665 q 290 619 333 665 q 247 485 247 572 z "},"é":{"ha":833,"x_min":113,"x_max":721,"o":"m 417 -14 q 256 23 325 -14 q 150 126 188 60 q 113 281 113 192 l 113 485 q 150 638 113 572 q 256 741 188 704 q 417 778 325 778 q 577 741 508 778 q 683 638 646 704 q 721 485 721 572 l 721 349 l 247 349 l 247 281 q 291 146 247 192 q 417 100 335 100 q 528 124 486 100 q 581 197 569 149 l 717 197 q 620 43 703 100 q 417 -14 538 -14 m 247 485 l 247 447 l 588 447 l 588 485 q 544 619 588 572 q 417 665 500 665 q 290 619 333 665 q 247 485 247 572 m 331 896 l 476 1090 l 625 1090 l 469 896 l 331 896 z "},"ĕ":{"ha":833,"x_min":113,"x_max":721,"o":"m 417 -14 q 256 23 325 -14 q 150 126 188 60 q 113 281 113 192 l 113 485 q 150 638 113 572 q 256 741 188 704 q 417 778 325 778 q 577 741 508 778 q 683 638 646 704 q 721 485 721 572 l 721 349 l 247 349 l 247 281 q 291 146 247 192 q 417 100 335 100 q 528 124 486 100 q 581 197 569 149 l 717 197 q 620 43 703 100 q 417 -14 538 -14 m 247 485 l 247 447 l 588 447 l 588 485 q 544 619 588 572 q 417 665 500 665 q 290 619 333 665 q 247 485 247 572 m 417 888 q 251 943 314 888 q 189 1090 189 999 l 297 1090 q 330 1007 297 1039 q 415 975 363 975 q 503 1007 469 975 q 536 1090 536 1039 l 644 1090 q 582 943 644 999 q 417 888 519 888 z "},"ě":{"ha":833,"x_min":113,"x_max":721,"o":"m 417 -14 q 256 23 325 -14 q 150 126 188 60 q 113 281 113 192 l 113 485 q 150 638 113 572 q 256 741 188 704 q 417 778 325 778 q 577 741 508 778 q 683 638 646 704 q 721 485 721 572 l 721 349 l 247 349 l 247 281 q 291 146 247 192 q 417 100 335 100 q 528 124 486 100 q 581 197 569 149 l 717 197 q 620 43 703 100 q 417 -14 538 -14 m 247 485 l 247 447 l 588 447 l 588 485 q 544 619 588 572 q 417 665 500 665 q 290 619 333 665 q 247 485 247 572 m 354 896 l 160 1090 l 306 1090 l 417 983 l 525 1090 l 674 1090 l 481 896 l 354 896 z "},"ê":{"ha":833,"x_min":113,"x_max":721,"o":"m 417 -14 q 256 23 325 -14 q 150 126 188 60 q 113 281 113 192 l 113 485 q 150 638 113 572 q 256 741 188 704 q 417 778 325 778 q 577 741 508 778 q 683 638 646 704 q 721 485 721 572 l 721 349 l 247 349 l 247 281 q 291 146 247 192 q 417 100 335 100 q 528 124 486 100 q 581 197 569 149 l 717 197 q 620 43 703 100 q 417 -14 538 -14 m 247 485 l 247 447 l 588 447 l 588 485 q 544 619 588 572 q 417 665 500 665 q 290 619 333 665 q 247 485 247 572 m 160 896 l 353 1090 l 479 1090 l 674 896 l 528 896 l 417 1003 l 308 896 l 160 896 z "},"ế":{"ha":833,"x_min":113,"x_max":881,"o":"m 417 -14 q 256 23 325 -14 q 150 126 188 60 q 113 281 113 192 l 113 485 q 150 638 113 572 q 256 741 188 704 q 417 778 325 778 q 577 741 508 778 q 683 638 646 704 q 721 485 721 572 l 721 349 l 247 349 l 247 281 q 291 146 247 192 q 417 100 335 100 q 528 124 486 100 q 581 197 569 149 l 717 197 q 620 43 703 100 q 417 -14 538 -14 m 247 485 l 247 447 l 588 447 l 588 485 q 544 619 588 572 q 417 665 500 665 q 290 619 333 665 q 247 485 247 572 m 572 1056 l 732 1250 l 881 1250 l 713 1056 l 572 1056 m 161 896 l 353 1090 l 481 1090 l 674 896 l 525 896 l 417 1003 l 307 896 l 161 896 z "},"ệ":{"ha":833,"x_min":113,"x_max":721,"o":"m 417 -14 q 256 23 325 -14 q 150 126 188 60 q 113 281 113 192 l 113 485 q 150 638 113 572 q 256 741 188 704 q 417 778 325 778 q 577 741 508 778 q 683 638 646 704 q 721 485 721 572 l 721 349 l 247 349 l 247 281 q 291 146 247 192 q 417 100 335 100 q 528 124 486 100 q 581 197 569 149 l 717 197 q 620 43 703 100 q 417 -14 538 -14 m 247 485 l 247 447 l 588 447 l 588 485 q 544 619 588 572 q 417 665 500 665 q 290 619 333 665 q 247 485 247 572 m 417 -300 q 342 -276 369 -300 q 314 -210 314 -251 q 342 -142 314 -167 q 417 -117 369 -117 q 492 -142 464 -117 q 519 -210 519 -167 q 492 -276 519 -251 q 417 -300 464 -300 m 160 896 l 353 1090 l 479 1090 l 674 896 l 528 896 l 417 1003 l 308 896 l 160 896 z "},"ề":{"ha":833,"x_min":113,"x_max":771,"o":"m 417 -14 q 256 23 325 -14 q 150 126 188 60 q 113 281 113 192 l 113 485 q 150 638 113 572 q 256 741 188 704 q 417 778 325 778 q 577 741 508 778 q 683 638 646 704 q 721 485 721 572 l 721 349 l 247 349 l 247 281 q 291 146 247 192 q 417 100 335 100 q 528 124 486 100 q 581 197 569 149 l 717 197 q 620 43 703 100 q 417 -14 538 -14 m 247 485 l 247 447 l 588 447 l 588 485 q 544 619 588 572 q 417 665 500 665 q 290 619 333 665 q 247 485 247 572 m 631 1056 l 450 1250 l 599 1250 l 771 1056 l 631 1056 m 161 896 l 353 1090 l 481 1090 l 674 896 l 525 896 l 417 1003 l 307 896 l 161 896 z "},"ể":{"ha":833,"x_min":113,"x_max":772,"o":"m 417 -14 q 256 23 325 -14 q 150 126 188 60 q 113 281 113 192 l 113 485 q 150 638 113 572 q 256 741 188 704 q 417 778 325 778 q 577 741 508 778 q 683 638 646 704 q 721 485 721 572 l 721 349 l 247 349 l 247 281 q 291 146 247 192 q 417 100 335 100 q 528 124 486 100 q 581 197 569 149 l 717 197 q 620 43 703 100 q 417 -14 538 -14 m 247 485 l 247 447 l 588 447 l 588 485 q 544 619 588 572 q 417 665 500 665 q 290 619 333 665 q 247 485 247 572 m 588 1056 l 651 1140 q 665 1174 665 1160 q 621 1207 665 1207 l 546 1207 l 546 1296 l 632 1296 q 734 1267 696 1296 q 772 1189 772 1238 q 747 1124 772 1157 l 699 1056 l 588 1056 m 161 896 l 353 1090 l 481 1090 l 674 896 l 525 896 l 417 1003 l 307 896 l 161 896 z "},"ễ":{"ha":833,"x_min":113,"x_max":721,"o":"m 417 -14 q 256 23 325 -14 q 150 126 188 60 q 113 281 113 192 l 113 485 q 150 638 113 572 q 256 741 188 704 q 417 778 325 778 q 577 741 508 778 q 683 638 646 704 q 721 485 721 572 l 721 349 l 247 349 l 247 281 q 291 146 247 192 q 417 100 335 100 q 528 124 486 100 q 581 197 569 149 l 717 197 q 620 43 703 100 q 417 -14 538 -14 m 247 485 l 247 447 l 588 447 l 588 485 q 544 619 588 572 q 417 665 500 665 q 290 619 333 665 q 247 485 247 572 m 510 1131 q 440 1144 465 1131 q 397 1174 414 1157 q 365 1205 381 1192 q 326 1218 350 1218 q 285 1175 285 1218 l 285 1142 l 190 1142 l 190 1169 q 227 1263 190 1228 q 324 1297 264 1297 q 394 1284 368 1297 q 437 1254 421 1271 q 468 1224 453 1238 q 507 1211 483 1211 q 549 1253 549 1211 l 549 1288 l 643 1288 l 643 1258 q 606 1166 643 1201 q 510 1131 569 1131 m 161 896 l 353 1090 l 481 1090 l 674 896 l 525 896 l 417 1003 l 307 896 l 161 896 z "},"ë":{"ha":833,"x_min":113,"x_max":721,"o":"m 417 -14 q 256 23 325 -14 q 150 126 188 60 q 113 281 113 192 l 113 485 q 150 638 113 572 q 256 741 188 704 q 417 778 325 778 q 577 741 508 778 q 683 638 646 704 q 721 485 721 572 l 721 349 l 247 349 l 247 281 q 291 146 247 192 q 417 100 335 100 q 528 124 486 100 q 581 197 569 149 l 717 197 q 620 43 703 100 q 417 -14 538 -14 m 247 485 l 247 447 l 588 447 l 588 485 q 544 619 588 572 q 417 665 500 665 q 290 619 333 665 q 247 485 247 572 m 574 899 q 506 923 531 899 q 481 989 481 947 q 506 1057 481 1032 q 574 1082 531 1082 q 640 1057 615 1082 q 665 989 665 1032 q 640 923 665 947 q 574 899 615 899 m 260 899 q 193 923 218 899 q 168 989 168 947 q 193 1057 168 1032 q 260 1082 218 1082 q 328 1057 303 1082 q 353 989 353 1032 q 328 923 353 947 q 260 899 303 899 z "},"ė":{"ha":833,"x_min":113,"x_max":721,"o":"m 417 -14 q 256 23 325 -14 q 150 126 188 60 q 113 281 113 192 l 113 485 q 150 638 113 572 q 256 741 188 704 q 417 778 325 778 q 577 741 508 778 q 683 638 646 704 q 721 485 721 572 l 721 349 l 247 349 l 247 281 q 291 146 247 192 q 417 100 335 100 q 528 124 486 100 q 581 197 569 149 l 717 197 q 620 43 703 100 q 417 -14 538 -14 m 247 485 l 247 447 l 588 447 l 588 485 q 544 619 588 572 q 417 665 500 665 q 290 619 333 665 q 247 485 247 572 m 417 899 q 342 923 369 899 q 314 989 314 947 q 342 1057 314 1032 q 417 1082 369 1082 q 492 1057 464 1082 q 519 989 519 1032 q 492 923 519 947 q 417 899 464 899 z "},"ẹ":{"ha":833,"x_min":113,"x_max":721,"o":"m 417 -14 q 256 23 325 -14 q 150 126 188 60 q 113 281 113 192 l 113 485 q 150 638 113 572 q 256 741 188 704 q 417 778 325 778 q 577 741 508 778 q 683 638 646 704 q 721 485 721 572 l 721 349 l 247 349 l 247 281 q 291 146 247 192 q 417 100 335 100 q 528 124 486 100 q 581 197 569 149 l 717 197 q 620 43 703 100 q 417 -14 538 -14 m 247 485 l 247 447 l 588 447 l 588 485 q 544 619 588 572 q 417 665 500 665 q 290 619 333 665 q 247 485 247 572 m 417 -300 q 342 -276 369 -300 q 314 -210 314 -251 q 342 -142 314 -167 q 417 -117 369 -117 q 492 -142 464 -117 q 519 -210 519 -167 q 492 -276 519 -251 q 417 -300 464 -300 z "},"è":{"ha":833,"x_min":113,"x_max":721,"o":"m 417 -14 q 256 23 325 -14 q 150 126 188 60 q 113 281 113 192 l 113 485 q 150 638 113 572 q 256 741 188 704 q 417 778 325 778 q 577 741 508 778 q 683 638 646 704 q 721 485 721 572 l 721 349 l 247 349 l 247 281 q 291 146 247 192 q 417 100 335 100 q 528 124 486 100 q 581 197 569 149 l 717 197 q 620 43 703 100 q 417 -14 538 -14 m 247 485 l 247 447 l 588 447 l 588 485 q 544 619 588 572 q 417 665 500 665 q 290 619 333 665 q 247 485 247 572 m 365 896 l 204 1090 l 357 1090 l 508 896 l 365 896 z "},"ẻ":{"ha":833,"x_min":113,"x_max":721,"o":"m 417 -14 q 256 23 325 -14 q 150 126 188 60 q 113 281 113 192 l 113 485 q 150 638 113 572 q 256 741 188 704 q 417 778 325 778 q 577 741 508 778 q 683 638 646 704 q 721 485 721 572 l 721 349 l 247 349 l 247 281 q 291 146 247 192 q 417 100 335 100 q 528 124 486 100 q 581 197 569 149 l 717 197 q 620 43 703 100 q 417 -14 538 -14 m 247 485 l 247 447 l 588 447 l 588 485 q 544 619 588 572 q 417 665 500 665 q 290 619 333 665 q 247 485 247 572 m 356 896 l 425 982 q 444 1026 444 1008 q 401 1053 444 1053 l 290 1053 l 290 1147 l 436 1147 q 524 1119 490 1147 q 558 1043 558 1092 q 533 967 558 997 l 479 896 l 356 896 z "},"ē":{"ha":833,"x_min":113,"x_max":721,"o":"m 417 -14 q 256 23 325 -14 q 150 126 188 60 q 113 281 113 192 l 113 485 q 150 638 113 572 q 256 741 188 704 q 417 778 325 778 q 577 741 508 778 q 683 638 646 704 q 721 485 721 572 l 721 349 l 247 349 l 247 281 q 291 146 247 192 q 417 100 335 100 q 528 124 486 100 q 581 197 569 149 l 717 197 q 620 43 703 100 q 417 -14 538 -14 m 247 485 l 247 447 l 588 447 l 588 485 q 544 619 588 572 q 417 665 500 665 q 290 619 333 665 q 247 485 247 572 m 190 928 l 190 1039 l 643 1039 l 643 928 l 190 928 z "},"ę":{"ha":833,"x_min":117,"x_max":717,"o":"m 515 -286 q 391 -249 438 -286 q 344 -154 344 -211 q 438 -8 344 -83 q 417 -14 429 -14 q 198 67 279 -14 q 117 281 117 147 l 117 485 q 198 697 117 617 q 417 778 279 778 q 635 697 554 778 q 717 485 717 617 l 717 349 l 250 349 l 250 281 q 417 100 250 100 q 576 197 556 100 l 714 197 q 671 93 706 138 q 583 22 636 49 l 554 -3 q 490 -69 510 -39 q 471 -126 471 -100 q 490 -175 471 -156 q 544 -194 510 -194 l 631 -194 l 631 -286 l 515 -286 m 250 485 l 250 447 l 583 447 l 583 485 q 542 619 583 572 q 417 665 500 665 q 292 619 333 665 q 250 485 250 572 z "},"ẽ":{"ha":833,"x_min":113,"x_max":721,"o":"m 417 -14 q 256 23 325 -14 q 150 126 188 60 q 113 281 113 192 l 113 485 q 150 638 113 572 q 256 741 188 704 q 417 778 325 778 q 577 741 508 778 q 683 638 646 704 q 721 485 721 572 l 721 349 l 247 349 l 247 281 q 291 146 247 192 q 417 100 335 100 q 528 124 486 100 q 581 197 569 149 l 717 197 q 620 43 703 100 q 417 -14 538 -14 m 247 485 l 247 447 l 588 447 l 588 485 q 544 619 588 572 q 417 665 500 665 q 290 619 333 665 q 247 485 247 572 m 514 900 q 446 914 472 900 q 401 947 419 928 q 367 981 383 967 q 326 994 350 994 q 285 947 285 994 l 285 907 l 190 907 l 190 950 q 226 1050 190 1014 q 319 1086 261 1086 q 388 1072 361 1086 q 432 1039 414 1058 q 467 1006 450 1019 q 507 992 483 992 q 549 1039 549 992 l 549 1079 l 643 1079 l 643 1038 q 608 936 643 972 q 514 900 572 900 z "},"ə":{"ha":833,"x_min":119,"x_max":715,"o":"m 417 -14 q 199 67 279 -14 q 119 281 119 147 l 119 415 l 581 415 l 581 485 q 417 664 581 664 q 260 568 279 664 l 122 568 q 216 721 136 664 q 417 778 296 778 q 635 697 554 778 q 715 485 715 617 l 715 281 q 635 67 715 147 q 417 -14 554 -14 m 417 99 q 540 145 500 99 q 581 281 581 192 l 581 317 l 253 317 l 253 281 q 293 145 253 192 q 417 99 333 99 z "},"f":{"ha":833,"x_min":81,"x_max":746,"o":"m 300 0 l 300 561 l 81 561 l 81 686 l 300 686 l 300 814 q 360 960 300 906 q 522 1014 419 1014 l 746 1014 l 746 890 l 522 890 q 438 813 438 890 l 438 686 l 746 686 l 746 561 l 438 561 l 438 0 l 300 0 z "},"g":{"ha":833,"x_min":117,"x_max":710,"o":"m 221 -250 l 221 -128 l 460 -128 q 574 -19 574 -128 l 574 68 l 576 207 l 574 207 q 511 90 565 133 q 371 47 457 47 q 185 125 253 47 q 117 335 117 203 l 117 492 q 185 701 117 624 q 371 778 253 778 q 511 735 457 778 q 574 618 565 693 l 575 618 l 574 764 l 710 764 l 710 -21 q 643 -189 710 -128 q 460 -250 576 -250 l 221 -250 m 414 167 q 531 213 488 167 q 574 342 574 258 l 574 485 q 531 613 574 567 q 414 658 488 658 q 296 613 338 658 q 254 485 254 568 l 254 342 q 296 212 254 257 q 414 167 338 167 z "},"ǵ":{"ha":833,"x_min":117,"x_max":710,"o":"m 221 -250 l 221 -128 l 460 -128 q 574 -19 574 -128 l 574 68 l 576 207 l 574 207 q 511 90 565 133 q 371 47 457 47 q 185 125 253 47 q 117 335 117 203 l 117 492 q 185 701 117 624 q 371 778 253 778 q 511 735 457 778 q 574 618 565 693 l 575 618 l 574 764 l 710 764 l 710 -21 q 643 -189 710 -128 q 460 -250 576 -250 l 221 -250 m 414 167 q 531 213 488 167 q 574 342 574 258 l 574 485 q 531 613 574 567 q 414 658 488 658 q 296 613 338 658 q 254 485 254 568 l 254 342 q 296 212 254 257 q 414 167 338 167 m 326 896 l 472 1090 l 621 1090 l 465 896 l 326 896 z "},"ğ":{"ha":833,"x_min":117,"x_max":710,"o":"m 221 -250 l 221 -128 l 460 -128 q 574 -19 574 -128 l 574 68 l 576 207 l 574 207 q 511 90 565 133 q 371 47 457 47 q 185 125 253 47 q 117 335 117 203 l 117 492 q 185 701 117 624 q 371 778 253 778 q 511 735 457 778 q 574 618 565 693 l 575 618 l 574 764 l 710 764 l 710 -21 q 643 -189 710 -128 q 460 -250 576 -250 l 221 -250 m 414 167 q 531 213 488 167 q 574 342 574 258 l 574 485 q 531 613 574 567 q 414 658 488 658 q 296 613 338 658 q 254 485 254 568 l 254 342 q 296 212 254 257 q 414 167 338 167 m 413 888 q 247 943 310 888 q 185 1090 185 999 l 293 1090 q 326 1007 293 1039 q 411 975 358 975 q 499 1007 465 975 q 532 1090 532 1039 l 640 1090 q 578 943 640 999 q 413 888 515 888 z "},"ǧ":{"ha":833,"x_min":117,"x_max":710,"o":"m 221 -250 l 221 -128 l 460 -128 q 574 -19 574 -128 l 574 68 l 576 207 l 574 207 q 511 90 565 133 q 371 47 457 47 q 185 125 253 47 q 117 335 117 203 l 117 492 q 185 701 117 624 q 371 778 253 778 q 511 735 457 778 q 574 618 565 693 l 575 618 l 574 764 l 710 764 l 710 -21 q 643 -189 710 -128 q 460 -250 576 -250 l 221 -250 m 414 167 q 531 213 488 167 q 574 342 574 258 l 574 485 q 531 613 574 567 q 414 658 488 658 q 296 613 338 658 q 254 485 254 568 l 254 342 q 296 212 254 257 q 414 167 338 167 m 350 896 l 156 1090 l 301 1090 l 413 983 l 521 1090 l 669 1090 l 476 896 l 350 896 z "},"ĝ":{"ha":833,"x_min":117,"x_max":710,"o":"m 221 -250 l 221 -128 l 460 -128 q 574 -19 574 -128 l 574 68 l 576 207 l 574 207 q 511 90 565 133 q 371 47 457 47 q 185 125 253 47 q 117 335 117 203 l 117 492 q 185 701 117 624 q 371 778 253 778 q 511 735 457 778 q 574 618 565 693 l 575 618 l 574 764 l 710 764 l 710 -21 q 643 -189 710 -128 q 460 -250 576 -250 l 221 -250 m 414 167 q 531 213 488 167 q 574 342 574 258 l 574 485 q 531 613 574 567 q 414 658 488 658 q 296 613 338 658 q 254 485 254 568 l 254 342 q 296 212 254 257 q 414 167 338 167 m 156 896 l 349 1090 l 475 1090 l 669 896 l 524 896 l 413 1003 l 304 896 l 156 896 z "},"ģ":{"ha":833,"x_min":117,"x_max":710,"o":"m 221 -250 l 221 -128 l 460 -128 q 574 -19 574 -128 l 574 68 l 576 207 l 574 207 q 511 90 565 133 q 371 47 457 47 q 185 125 253 47 q 117 335 117 203 l 117 492 q 185 701 117 624 q 371 778 253 778 q 511 735 457 778 q 574 618 565 693 l 575 618 l 574 764 l 710 764 l 710 -21 q 643 -189 710 -128 q 460 -250 576 -250 l 221 -250 m 414 167 q 531 213 488 167 q 574 342 574 258 l 574 485 q 531 613 574 567 q 414 658 488 658 q 296 613 338 658 q 254 485 254 568 l 254 342 q 296 212 254 257 q 414 167 338 167 m 578 1222 l 467 896 l 283 896 l 464 1222 l 578 1222 z "},"ġ":{"ha":833,"x_min":117,"x_max":710,"o":"m 221 -250 l 221 -128 l 460 -128 q 574 -19 574 -128 l 574 68 l 576 207 l 574 207 q 511 90 565 133 q 371 47 457 47 q 185 125 253 47 q 117 335 117 203 l 117 492 q 185 701 117 624 q 371 778 253 778 q 511 735 457 778 q 574 618 565 693 l 575 618 l 574 764 l 710 764 l 710 -21 q 643 -189 710 -128 q 460 -250 576 -250 l 221 -250 m 414 167 q 531 213 488 167 q 574 342 574 258 l 574 485 q 531 613 574 567 q 414 658 488 658 q 296 613 338 658 q 254 485 254 568 l 254 342 q 296 212 254 257 q 414 167 338 167 m 413 899 q 338 923 365 899 q 310 989 310 947 q 338 1057 310 1032 q 413 1082 365 1082 q 488 1057 460 1082 q 515 989 515 1032 q 488 923 515 947 q 413 899 460 899 z "},"h":{"ha":833,"x_min":122,"x_max":714,"o":"m 122 0 l 122 1014 l 260 1014 l 260 764 l 258 618 l 261 618 q 324 736 271 694 q 464 778 376 778 q 646 706 578 778 q 714 511 714 633 l 714 0 l 576 0 l 576 496 q 535 617 576 574 q 421 661 493 661 q 303 615 346 661 q 260 485 260 568 l 260 0 l 122 0 z "},"ħ":{"ha":833,"x_min":0,"x_max":714,"o":"m 0 789 l 0 896 l 122 896 l 122 1014 l 260 1014 l 260 896 l 489 896 l 489 789 l 260 789 l 260 681 l 258 535 l 261 535 q 324 653 271 611 q 464 694 376 694 q 646 622 578 694 q 714 428 714 550 l 714 0 l 576 0 l 576 413 q 535 534 576 490 q 421 578 493 578 q 303 531 346 578 q 260 401 260 485 l 260 0 l 122 0 l 122 789 l 0 789 z "},"ĥ":{"ha":833,"x_min":-17,"x_max":714,"o":"m 122 0 l 122 1014 l 260 1014 l 260 764 l 258 618 l 261 618 q 324 736 271 694 q 464 778 376 778 q 646 706 578 778 q 714 511 714 633 l 714 0 l 576 0 l 576 496 q 535 617 576 574 q 421 661 493 661 q 303 615 346 661 q 260 485 260 568 l 260 0 l 122 0 m -17 1122 l 176 1317 l 303 1317 l 497 1122 l 351 1122 l 240 1229 l 132 1122 l -17 1122 z "},"i":{"ha":833,"x_min":115,"x_max":772,"o":"m 115 0 l 115 125 l 383 125 l 383 639 l 143 639 l 143 764 l 521 764 l 521 125 l 772 125 l 772 0 l 115 0 m 439 899 q 364 923 392 899 q 336 989 336 947 q 364 1057 336 1032 q 439 1082 392 1082 q 514 1057 486 1082 q 542 989 542 1032 q 514 923 542 947 q 439 899 486 899 z "},"ı":{"ha":833,"x_min":115,"x_max":772,"o":"m 115 0 l 115 125 l 383 125 l 383 639 l 143 639 l 143 764 l 521 764 l 521 125 l 772 125 l 772 0 l 115 0 z "},"í":{"ha":833,"x_min":115,"x_max":772,"o":"m 115 0 l 115 125 l 383 125 l 383 639 l 143 639 l 143 764 l 521 764 l 521 125 l 772 125 l 772 0 l 115 0 m 353 896 l 499 1090 l 647 1090 l 492 896 l 353 896 z "},"ĭ":{"ha":833,"x_min":115,"x_max":772,"o":"m 115 0 l 115 125 l 383 125 l 383 639 l 143 639 l 143 764 l 521 764 l 521 125 l 772 125 l 772 0 l 115 0 m 439 888 q 274 943 336 888 q 211 1090 211 999 l 319 1090 q 352 1007 319 1039 q 438 975 385 975 q 525 1007 492 975 q 558 1090 558 1039 l 667 1090 q 604 943 667 999 q 439 888 542 888 z "},"ǐ":{"ha":833,"x_min":115,"x_max":772,"o":"m 115 0 l 115 125 l 383 125 l 383 639 l 143 639 l 143 764 l 521 764 l 521 125 l 772 125 l 772 0 l 115 0 m 376 896 l 182 1090 l 328 1090 l 439 983 l 547 1090 l 696 1090 l 503 896 l 376 896 z "},"î":{"ha":833,"x_min":115,"x_max":772,"o":"m 115 0 l 115 125 l 383 125 l 383 639 l 143 639 l 143 764 l 521 764 l 521 125 l 772 125 l 772 0 l 115 0 m 182 896 l 375 1090 l 501 1090 l 696 896 l 550 896 l 439 1003 l 331 896 l 182 896 z "},"ï":{"ha":833,"x_min":115,"x_max":772,"o":"m 115 0 l 115 125 l 383 125 l 383 639 l 143 639 l 143 764 l 521 764 l 521 125 l 772 125 l 772 0 l 115 0 m 596 899 q 528 923 553 899 q 503 989 503 947 q 528 1057 503 1032 q 596 1082 553 1082 q 663 1057 638 1082 q 688 989 688 1032 q 663 923 688 947 q 596 899 638 899 m 282 899 q 215 923 240 899 q 190 989 190 947 q 215 1057 190 1032 q 282 1082 240 1082 q 350 1057 325 1082 q 375 989 375 1032 q 350 923 375 947 q 282 899 325 899 z "},"ị":{"ha":833,"x_min":115,"x_max":772,"o":"m 115 0 l 115 125 l 383 125 l 383 639 l 143 639 l 143 764 l 521 764 l 521 125 l 772 125 l 772 0 l 115 0 m 439 899 q 364 923 392 899 q 336 989 336 947 q 364 1057 336 1032 q 439 1082 392 1082 q 514 1057 486 1082 q 542 989 542 1032 q 514 923 542 947 q 439 899 486 899 m 439 -300 q 364 -276 392 -300 q 336 -210 336 -251 q 364 -142 336 -167 q 439 -117 392 -117 q 514 -142 486 -117 q 542 -210 542 -167 q 514 -276 542 -251 q 439 -300 486 -300 z "},"ì":{"ha":833,"x_min":115,"x_max":772,"o":"m 115 0 l 115 125 l 383 125 l 383 639 l 143 639 l 143 764 l 521 764 l 521 125 l 772 125 l 772 0 l 115 0 m 388 896 l 226 1090 l 379 1090 l 531 896 l 388 896 z "},"ỉ":{"ha":833,"x_min":115,"x_max":772,"o":"m 115 0 l 115 125 l 383 125 l 383 639 l 143 639 l 143 764 l 521 764 l 521 125 l 772 125 l 772 0 l 115 0 m 378 896 l 447 982 q 467 1026 467 1008 q 424 1053 467 1053 l 313 1053 l 313 1147 l 458 1147 q 547 1119 513 1147 q 581 1043 581 1092 q 556 967 581 997 l 501 896 l 378 896 z "},"ī":{"ha":833,"x_min":115,"x_max":772,"o":"m 115 0 l 115 125 l 383 125 l 383 639 l 143 639 l 143 764 l 521 764 l 521 125 l 772 125 l 772 0 l 115 0 m 213 928 l 213 1039 l 665 1039 l 665 928 l 213 928 z "},"į":{"ha":833,"x_min":115,"x_max":772,"o":"m 439 899 q 364 923 392 899 q 336 989 336 947 q 364 1057 336 1032 q 439 1082 392 1082 q 514 1057 486 1082 q 542 989 542 1032 q 514 923 542 947 q 439 899 486 899 m 115 0 l 115 125 l 383 125 l 383 639 l 143 639 l 143 764 l 521 764 l 521 125 l 772 125 l 772 0 l 488 0 l 485 -3 q 422 -69 442 -39 q 401 -126 401 -100 q 421 -175 401 -156 q 475 -194 440 -194 l 561 -194 l 561 -286 l 446 -286 q 322 -249 368 -286 q 275 -154 275 -211 q 299 -78 275 -117 q 378 0 322 -40 l 115 0 z "},"ĩ":{"ha":833,"x_min":115,"x_max":772,"o":"m 115 0 l 115 125 l 383 125 l 383 639 l 143 639 l 143 764 l 521 764 l 521 125 l 772 125 l 772 0 l 115 0 m 536 900 q 468 914 494 900 q 424 947 442 928 q 389 981 406 967 q 349 994 372 994 q 307 947 307 994 l 307 907 l 213 907 l 213 950 q 248 1050 213 1014 q 342 1086 283 1086 q 410 1072 383 1086 q 454 1039 436 1058 q 489 1006 472 1019 q 529 992 506 992 q 571 1039 571 992 l 571 1079 l 665 1079 l 665 1038 q 630 936 665 972 q 536 900 594 900 z "},"j":{"ha":833,"x_min":96,"x_max":640,"o":"m 96 -250 l 96 -124 l 301 -124 q 428 -79 383 -124 q 474 46 474 -35 l 474 639 l 124 639 l 124 764 l 611 764 l 611 44 q 528 -170 611 -90 q 304 -250 444 -250 l 96 -250 m 538 899 q 463 923 490 899 q 435 989 435 947 q 463 1057 435 1032 q 538 1082 490 1082 q 613 1057 585 1082 q 640 989 640 1032 q 613 923 640 947 q 538 899 585 899 z "},"ȷ":{"ha":833,"x_min":96,"x_max":611,"o":"m 96 -250 l 96 -124 l 301 -124 q 428 -79 383 -124 q 474 46 474 -35 l 474 639 l 124 639 l 124 764 l 611 764 l 611 44 q 528 -170 611 -90 q 304 -250 444 -250 l 96 -250 z "},"ĵ":{"ha":833,"x_min":96,"x_max":794,"o":"m 96 -250 l 96 -124 l 301 -124 q 428 -79 383 -124 q 474 46 474 -35 l 474 639 l 124 639 l 124 764 l 611 764 l 611 44 q 528 -170 611 -90 q 304 -250 444 -250 l 96 -250 m 281 896 l 474 1090 l 600 1090 l 794 896 l 649 896 l 538 1003 l 429 896 l 281 896 z "},"k":{"ha":833,"x_min":126,"x_max":778,"o":"m 126 0 l 126 1014 l 264 1014 l 264 453 l 406 453 l 618 764 l 774 764 l 524 399 l 778 0 l 619 0 l 406 335 l 264 335 l 264 0 l 126 0 z "},"ķ":{"ha":833,"x_min":126,"x_max":778,"o":"m 126 0 l 126 1014 l 264 1014 l 264 453 l 406 453 l 618 764 l 774 764 l 524 399 l 778 0 l 619 0 l 406 335 l 264 335 l 264 0 l 126 0 m 261 -333 l 393 -132 l 549 -132 l 400 -333 l 261 -333 z "},"ĸ":{"ha":833,"x_min":126,"x_max":778,"o":"m 126 0 l 126 764 l 264 764 l 264 453 l 404 453 l 618 764 l 774 764 l 524 399 l 778 0 l 618 0 l 406 335 l 264 335 l 264 0 l 126 0 z "},"l":{"ha":833,"x_min":40,"x_max":767,"o":"m 531 0 q 364 61 426 0 q 301 224 301 122 l 301 889 l 40 889 l 40 1014 l 439 1014 l 439 225 q 465 152 439 179 q 535 125 490 125 l 767 125 l 767 0 l 531 0 z "},"ĺ":{"ha":833,"x_min":40,"x_max":767,"o":"m 531 0 q 364 61 426 0 q 301 224 301 122 l 301 889 l 40 889 l 40 1014 l 439 1014 l 439 225 q 465 152 439 179 q 535 125 490 125 l 767 125 l 767 0 l 531 0 m 265 1125 l 411 1319 l 560 1319 l 404 1125 l 265 1125 z "},"ƛ":{"ha":833,"x_min":64,"x_max":769,"o":"m 64 0 l 349 753 l 347 758 l 125 647 l 125 764 l 308 856 l 246 1014 l 392 1014 l 429 915 l 653 1028 l 653 911 l 465 818 l 769 0 l 624 0 l 450 483 q 424 568 433 529 q 410 628 415 607 q 403 568 410 607 q 382 483 397 529 l 213 0 l 64 0 z "},"ľ":{"ha":833,"x_min":40,"x_max":976,"o":"m 531 0 q 364 61 426 0 q 301 224 301 122 l 301 889 l 40 889 l 40 1014 l 439 1014 l 439 225 q 465 152 439 179 q 535 125 490 125 l 767 125 l 767 0 l 531 0 m 833 1014 l 847 1264 l 976 1264 l 949 1014 l 833 1014 z "},"ļ":{"ha":833,"x_min":40,"x_max":767,"o":"m 531 0 q 364 61 426 0 q 301 224 301 122 l 301 889 l 40 889 l 40 1014 l 439 1014 l 439 225 q 465 152 439 179 q 535 125 490 125 l 767 125 l 767 0 l 531 0 m 289 -333 l 421 -132 l 576 -132 l 428 -333 l 289 -333 z "},"ŀ":{"ha":833,"x_min":13,"x_max":883,"o":"m 503 0 q 336 61 399 0 q 274 224 274 122 l 274 889 l 13 889 l 13 1014 l 411 1014 l 411 225 q 437 152 411 179 q 507 125 463 125 l 739 125 l 739 0 l 503 0 m 764 368 q 677 399 710 368 q 644 485 644 431 q 677 573 644 540 q 764 606 710 606 q 851 573 818 606 q 883 485 883 540 q 851 399 883 431 q 764 368 818 368 z "},"ł":{"ha":833,"x_min":40,"x_max":767,"o":"m 139 319 l 139 443 l 301 549 l 301 889 l 40 889 l 40 1014 l 439 1014 l 439 638 l 656 778 l 656 654 l 439 514 l 439 225 q 465 152 439 179 q 535 125 490 125 l 767 125 l 767 0 l 531 0 q 364 61 426 0 q 301 224 301 122 l 301 425 l 139 319 z "},"m":{"ha":833,"x_min":79,"x_max":754,"o":"m 79 0 l 79 764 l 197 764 l 197 669 l 206 669 q 249 748 214 718 q 333 778 283 778 q 413 749 379 778 q 461 669 446 719 l 468 669 q 512 748 476 718 q 599 778 547 778 q 710 723 667 778 q 754 581 754 668 l 754 0 l 629 0 l 629 579 q 551 674 629 674 q 492 649 513 674 q 471 579 471 625 l 471 0 l 363 0 l 363 579 q 341 649 363 624 q 282 674 319 674 q 204 579 204 674 l 204 0 l 79 0 z "},"n":{"ha":833,"x_min":122,"x_max":714,"o":"m 122 0 l 122 764 l 258 764 l 258 618 l 261 618 q 324 736 271 694 q 464 778 376 778 q 646 706 578 778 q 714 511 714 633 l 714 0 l 576 0 l 576 496 q 535 616 576 574 q 421 658 493 658 q 303 613 346 658 q 260 485 260 568 l 260 0 l 122 0 z "},"ń":{"ha":833,"x_min":122,"x_max":714,"o":"m 122 0 l 122 764 l 258 764 l 258 618 l 261 618 q 324 736 271 694 q 464 778 376 778 q 646 706 578 778 q 714 511 714 633 l 714 0 l 576 0 l 576 496 q 535 616 576 574 q 421 658 493 658 q 303 613 346 658 q 260 485 260 568 l 260 0 l 122 0 m 338 896 l 483 1090 l 632 1090 l 476 896 l 338 896 z "},"ŉ":{"ha":833,"x_min":-17,"x_max":714,"o":"m 122 0 l 122 764 l 258 764 l 258 618 l 261 618 q 324 736 271 694 q 464 778 376 778 q 646 706 578 778 q 714 511 714 633 l 714 0 l 576 0 l 576 496 q 535 616 576 574 q 421 658 493 658 q 303 613 346 658 q 260 485 260 568 l 260 0 l 122 0 m -17 896 l 115 1097 l 271 1097 l 122 896 l -17 896 z "},"ň":{"ha":833,"x_min":122,"x_max":714,"o":"m 122 0 l 122 764 l 258 764 l 258 618 l 261 618 q 324 736 271 694 q 464 778 376 778 q 646 706 578 778 q 714 511 714 633 l 714 0 l 576 0 l 576 496 q 535 616 576 574 q 421 658 493 658 q 303 613 346 658 q 260 485 260 568 l 260 0 l 122 0 m 361 896 l 167 1090 l 313 1090 l 424 983 l 532 1090 l 681 1090 l 488 896 l 361 896 z "},"ņ":{"ha":833,"x_min":122,"x_max":714,"o":"m 122 0 l 122 764 l 258 764 l 258 618 l 261 618 q 324 736 271 694 q 464 778 376 778 q 646 706 578 778 q 714 511 714 633 l 714 0 l 576 0 l 576 496 q 535 616 576 574 q 421 658 493 658 q 303 613 346 658 q 260 485 260 568 l 260 0 l 122 0 m 261 -333 l 393 -132 l 549 -132 l 400 -333 l 261 -333 z "},"ŋ":{"ha":833,"x_min":125,"x_max":711,"o":"m 335 -250 l 335 -124 l 421 -124 q 533 -83 492 -124 q 574 26 574 -43 l 574 496 q 533 617 574 574 q 421 661 493 661 q 304 615 346 661 q 263 485 263 568 l 263 0 l 125 0 l 125 764 l 261 764 l 261 618 l 263 618 q 324 736 272 694 q 464 778 376 778 q 644 706 578 778 q 711 511 711 633 l 711 24 q 675 -121 711 -60 q 573 -216 639 -182 q 419 -250 507 -250 l 335 -250 z "},"ñ":{"ha":833,"x_min":122,"x_max":714,"o":"m 122 0 l 122 764 l 258 764 l 258 618 l 261 618 q 324 736 271 694 q 464 778 376 778 q 646 706 578 778 q 714 511 714 633 l 714 0 l 576 0 l 576 496 q 535 616 576 574 q 421 658 493 658 q 303 613 346 658 q 260 485 260 568 l 260 0 l 122 0 m 521 900 q 453 914 479 900 q 408 947 426 928 q 374 981 390 967 q 333 994 357 994 q 292 947 292 994 l 292 907 l 197 907 l 197 950 q 233 1050 197 1014 q 326 1086 268 1086 q 394 1072 368 1086 q 439 1039 421 1058 q 474 1006 457 1019 q 514 992 490 992 q 556 1039 556 992 l 556 1079 l 650 1079 l 650 1038 q 615 936 650 972 q 521 900 579 900 z "},"o":{"ha":833,"x_min":113,"x_max":721,"o":"m 417 -11 q 194 67 276 -11 q 113 282 113 146 l 113 482 q 194 697 113 618 q 417 775 276 775 q 639 697 557 775 q 721 483 721 618 l 721 282 q 639 67 721 146 q 417 -11 557 -11 m 417 110 q 539 153 494 110 q 583 282 583 197 l 583 482 q 539 610 583 567 q 417 654 494 654 q 294 610 339 654 q 250 482 250 567 l 250 282 q 294 153 250 197 q 417 110 339 110 z "},"ó":{"ha":833,"x_min":113,"x_max":721,"o":"m 417 -11 q 194 67 276 -11 q 113 282 113 146 l 113 482 q 194 697 113 618 q 417 775 276 775 q 639 697 557 775 q 721 483 721 618 l 721 282 q 639 67 721 146 q 417 -11 557 -11 m 417 110 q 539 153 494 110 q 583 282 583 197 l 583 482 q 539 610 583 567 q 417 654 494 654 q 294 610 339 654 q 250 482 250 567 l 250 282 q 294 153 250 197 q 417 110 339 110 m 331 896 l 476 1090 l 625 1090 l 469 896 l 331 896 z "},"ŏ":{"ha":833,"x_min":113,"x_max":721,"o":"m 417 -11 q 194 67 276 -11 q 113 282 113 146 l 113 482 q 194 697 113 618 q 417 775 276 775 q 639 697 557 775 q 721 483 721 618 l 721 282 q 639 67 721 146 q 417 -11 557 -11 m 417 110 q 539 153 494 110 q 583 282 583 197 l 583 482 q 539 610 583 567 q 417 654 494 654 q 294 610 339 654 q 250 482 250 567 l 250 282 q 294 153 250 197 q 417 110 339 110 m 417 888 q 251 943 314 888 q 189 1090 189 999 l 297 1090 q 330 1007 297 1039 q 415 975 363 975 q 503 1007 469 975 q 536 1090 536 1039 l 644 1090 q 582 943 644 999 q 417 888 519 888 z "},"ǒ":{"ha":833,"x_min":113,"x_max":721,"o":"m 417 -11 q 194 67 276 -11 q 113 282 113 146 l 113 482 q 194 697 113 618 q 417 775 276 775 q 639 697 557 775 q 721 483 721 618 l 721 282 q 639 67 721 146 q 417 -11 557 -11 m 417 110 q 539 153 494 110 q 583 282 583 197 l 583 482 q 539 610 583 567 q 417 654 494 654 q 294 610 339 654 q 250 482 250 567 l 250 282 q 294 153 250 197 q 417 110 339 110 m 354 896 l 160 1090 l 306 1090 l 417 983 l 525 1090 l 674 1090 l 481 896 l 354 896 z "},"ô":{"ha":833,"x_min":113,"x_max":721,"o":"m 417 -11 q 194 67 276 -11 q 113 282 113 146 l 113 482 q 194 697 113 618 q 417 775 276 775 q 639 697 557 775 q 721 483 721 618 l 721 282 q 639 67 721 146 q 417 -11 557 -11 m 417 110 q 539 153 494 110 q 583 282 583 197 l 583 482 q 539 610 583 567 q 417 654 494 654 q 294 610 339 654 q 250 482 250 567 l 250 282 q 294 153 250 197 q 417 110 339 110 m 160 896 l 353 1090 l 479 1090 l 674 896 l 528 896 l 417 1003 l 308 896 l 160 896 z "},"ố":{"ha":833,"x_min":113,"x_max":881,"o":"m 417 -11 q 194 67 276 -11 q 113 282 113 146 l 113 482 q 194 697 113 618 q 417 775 276 775 q 639 697 557 775 q 721 483 721 618 l 721 282 q 639 67 721 146 q 417 -11 557 -11 m 417 110 q 539 153 494 110 q 583 282 583 197 l 583 482 q 539 610 583 567 q 417 654 494 654 q 294 610 339 654 q 250 482 250 567 l 250 282 q 294 153 250 197 q 417 110 339 110 m 572 1056 l 732 1250 l 881 1250 l 713 1056 l 572 1056 m 161 896 l 353 1090 l 481 1090 l 674 896 l 525 896 l 417 1003 l 307 896 l 161 896 z "},"ộ":{"ha":833,"x_min":113,"x_max":721,"o":"m 417 -11 q 194 67 276 -11 q 113 282 113 146 l 113 482 q 194 697 113 618 q 417 775 276 775 q 639 697 557 775 q 721 483 721 618 l 721 282 q 639 67 721 146 q 417 -11 557 -11 m 417 110 q 539 153 494 110 q 583 282 583 197 l 583 482 q 539 610 583 567 q 417 654 494 654 q 294 610 339 654 q 250 482 250 567 l 250 282 q 294 153 250 197 q 417 110 339 110 m 417 -300 q 342 -276 369 -300 q 314 -210 314 -251 q 342 -142 314 -167 q 417 -117 369 -117 q 492 -142 464 -117 q 519 -210 519 -167 q 492 -276 519 -251 q 417 -300 464 -300 m 160 896 l 353 1090 l 479 1090 l 674 896 l 528 896 l 417 1003 l 308 896 l 160 896 z "},"ồ":{"ha":833,"x_min":113,"x_max":771,"o":"m 417 -11 q 194 67 276 -11 q 113 282 113 146 l 113 482 q 194 697 113 618 q 417 775 276 775 q 639 697 557 775 q 721 483 721 618 l 721 282 q 639 67 721 146 q 417 -11 557 -11 m 417 110 q 539 153 494 110 q 583 282 583 197 l 583 482 q 539 610 583 567 q 417 654 494 654 q 294 610 339 654 q 250 482 250 567 l 250 282 q 294 153 250 197 q 417 110 339 110 m 631 1056 l 450 1250 l 599 1250 l 771 1056 l 631 1056 m 161 896 l 353 1090 l 481 1090 l 674 896 l 525 896 l 417 1003 l 307 896 l 161 896 z "},"ổ":{"ha":833,"x_min":113,"x_max":772,"o":"m 417 -11 q 194 67 276 -11 q 113 282 113 146 l 113 482 q 194 697 113 618 q 417 775 276 775 q 639 697 557 775 q 721 483 721 618 l 721 282 q 639 67 721 146 q 417 -11 557 -11 m 417 110 q 539 153 494 110 q 583 282 583 197 l 583 482 q 539 610 583 567 q 417 654 494 654 q 294 610 339 654 q 250 482 250 567 l 250 282 q 294 153 250 197 q 417 110 339 110 m 588 1056 l 651 1140 q 665 1174 665 1160 q 621 1207 665 1207 l 546 1207 l 546 1296 l 632 1296 q 734 1267 696 1296 q 772 1189 772 1238 q 747 1124 772 1157 l 699 1056 l 588 1056 m 161 896 l 353 1090 l 481 1090 l 674 896 l 525 896 l 417 1003 l 307 896 l 161 896 z "},"ỗ":{"ha":833,"x_min":113,"x_max":721,"o":"m 417 -11 q 194 67 276 -11 q 113 282 113 146 l 113 482 q 194 697 113 618 q 417 775 276 775 q 639 697 557 775 q 721 483 721 618 l 721 282 q 639 67 721 146 q 417 -11 557 -11 m 417 110 q 539 153 494 110 q 583 282 583 197 l 583 482 q 539 610 583 567 q 417 654 494 654 q 294 610 339 654 q 250 482 250 567 l 250 282 q 294 153 250 197 q 417 110 339 110 m 510 1131 q 440 1144 465 1131 q 397 1174 414 1157 q 365 1205 381 1192 q 326 1218 350 1218 q 285 1175 285 1218 l 285 1142 l 190 1142 l 190 1169 q 227 1263 190 1228 q 324 1297 264 1297 q 394 1284 368 1297 q 437 1254 421 1271 q 468 1224 453 1238 q 507 1211 483 1211 q 549 1253 549 1211 l 549 1288 l 643 1288 l 643 1258 q 606 1166 643 1201 q 510 1131 569 1131 m 161 896 l 353 1090 l 481 1090 l 674 896 l 525 896 l 417 1003 l 307 896 l 161 896 z "},"ö":{"ha":833,"x_min":113,"x_max":721,"o":"m 417 -11 q 194 67 276 -11 q 113 282 113 146 l 113 482 q 194 697 113 618 q 417 775 276 775 q 639 697 557 775 q 721 483 721 618 l 721 282 q 639 67 721 146 q 417 -11 557 -11 m 417 110 q 539 153 494 110 q 583 282 583 197 l 583 482 q 539 610 583 567 q 417 654 494 654 q 294 610 339 654 q 250 482 250 567 l 250 282 q 294 153 250 197 q 417 110 339 110 m 574 899 q 506 923 531 899 q 481 989 481 947 q 506 1057 481 1032 q 574 1082 531 1082 q 640 1057 615 1082 q 665 989 665 1032 q 640 923 665 947 q 574 899 615 899 m 260 899 q 193 923 218 899 q 168 989 168 947 q 193 1057 168 1032 q 260 1082 218 1082 q 328 1057 303 1082 q 353 989 353 1032 q 328 923 353 947 q 260 899 303 899 z "},"ọ":{"ha":833,"x_min":113,"x_max":721,"o":"m 417 -11 q 194 67 276 -11 q 113 282 113 146 l 113 482 q 194 697 113 618 q 417 775 276 775 q 639 697 557 775 q 721 483 721 618 l 721 282 q 639 67 721 146 q 417 -11 557 -11 m 417 110 q 539 153 494 110 q 583 282 583 197 l 583 482 q 539 610 583 567 q 417 654 494 654 q 294 610 339 654 q 250 482 250 567 l 250 282 q 294 153 250 197 q 417 110 339 110 m 417 -300 q 342 -276 369 -300 q 314 -210 314 -251 q 342 -142 314 -167 q 417 -117 369 -117 q 492 -142 464 -117 q 519 -210 519 -167 q 492 -276 519 -251 q 417 -300 464 -300 z "},"ò":{"ha":833,"x_min":113,"x_max":721,"o":"m 417 -11 q 194 67 276 -11 q 113 282 113 146 l 113 482 q 194 697 113 618 q 417 775 276 775 q 639 697 557 775 q 721 483 721 618 l 721 282 q 639 67 721 146 q 417 -11 557 -11 m 417 110 q 539 153 494 110 q 583 282 583 197 l 583 482 q 539 610 583 567 q 417 654 494 654 q 294 610 339 654 q 250 482 250 567 l 250 282 q 294 153 250 197 q 417 110 339 110 m 365 896 l 204 1090 l 357 1090 l 508 896 l 365 896 z "},"ỏ":{"ha":833,"x_min":113,"x_max":721,"o":"m 417 -11 q 194 67 276 -11 q 113 282 113 146 l 113 482 q 194 697 113 618 q 417 775 276 775 q 639 697 557 775 q 721 483 721 618 l 721 282 q 639 67 721 146 q 417 -11 557 -11 m 417 110 q 539 153 494 110 q 583 282 583 197 l 583 482 q 539 610 583 567 q 417 654 494 654 q 294 610 339 654 q 250 482 250 567 l 250 282 q 294 153 250 197 q 417 110 339 110 m 356 896 l 425 982 q 444 1026 444 1008 q 401 1053 444 1053 l 290 1053 l 290 1147 l 436 1147 q 524 1119 490 1147 q 558 1043 558 1092 q 533 967 558 997 l 479 896 l 356 896 z "},"ơ":{"ha":833,"x_min":113,"x_max":758,"o":"m 417 -11 q 194 67 276 -11 q 113 282 113 146 l 113 482 q 194 697 113 618 q 417 775 276 775 q 585 736 514 775 l 596 736 q 644 785 644 736 l 644 889 l 758 889 l 758 779 q 736 701 758 733 q 675 651 714 668 q 721 483 721 582 l 721 282 q 639 67 721 146 q 417 -11 557 -11 m 417 110 q 539 153 494 110 q 583 282 583 197 l 583 482 q 539 610 583 567 q 417 654 494 654 q 294 610 339 654 q 250 482 250 567 l 250 282 q 294 153 250 197 q 417 110 339 110 z "},"ớ":{"ha":833,"x_min":113,"x_max":758,"o":"m 417 -11 q 194 67 276 -11 q 113 282 113 146 l 113 482 q 194 697 113 618 q 417 775 276 775 q 585 736 514 775 l 596 736 q 644 785 644 736 l 644 889 l 758 889 l 758 779 q 736 701 758 733 q 675 651 714 668 q 721 483 721 582 l 721 282 q 639 67 721 146 q 417 -11 557 -11 m 417 110 q 539 153 494 110 q 583 282 583 197 l 583 482 q 539 610 583 567 q 417 654 494 654 q 294 610 339 654 q 250 482 250 567 l 250 282 q 294 153 250 197 q 417 110 339 110 m 317 896 l 463 1090 l 611 1090 l 456 896 l 317 896 z "},"ợ":{"ha":833,"x_min":113,"x_max":758,"o":"m 417 -11 q 194 67 276 -11 q 113 282 113 146 l 113 482 q 194 697 113 618 q 417 775 276 775 q 585 736 514 775 l 596 736 q 644 785 644 736 l 644 889 l 758 889 l 758 779 q 736 701 758 733 q 675 651 714 668 q 721 483 721 582 l 721 282 q 639 67 721 146 q 417 -11 557 -11 m 417 110 q 539 153 494 110 q 583 282 583 197 l 583 482 q 539 610 583 567 q 417 654 494 654 q 294 610 339 654 q 250 482 250 567 l 250 282 q 294 153 250 197 q 417 110 339 110 m 417 -300 q 342 -276 369 -300 q 314 -210 314 -251 q 342 -142 314 -167 q 417 -117 369 -117 q 492 -142 464 -117 q 519 -210 519 -167 q 492 -276 519 -251 q 417 -300 464 -300 z "},"ờ":{"ha":833,"x_min":113,"x_max":758,"o":"m 417 -11 q 194 67 276 -11 q 113 282 113 146 l 113 482 q 194 697 113 618 q 417 775 276 775 q 585 736 514 775 l 596 736 q 644 785 644 736 l 644 889 l 758 889 l 758 779 q 736 701 758 733 q 675 651 714 668 q 721 483 721 582 l 721 282 q 639 67 721 146 q 417 -11 557 -11 m 417 110 q 539 153 494 110 q 583 282 583 197 l 583 482 q 539 610 583 567 q 417 654 494 654 q 294 610 339 654 q 250 482 250 567 l 250 282 q 294 153 250 197 q 417 110 339 110 m 351 896 l 190 1090 l 343 1090 l 494 896 l 351 896 z "},"ở":{"ha":833,"x_min":113,"x_max":758,"o":"m 417 -11 q 194 67 276 -11 q 113 282 113 146 l 113 482 q 194 697 113 618 q 417 775 276 775 q 585 736 514 775 l 596 736 q 644 785 644 736 l 644 889 l 758 889 l 758 779 q 736 701 758 733 q 675 651 714 668 q 721 483 721 582 l 721 282 q 639 67 721 146 q 417 -11 557 -11 m 417 110 q 539 153 494 110 q 583 282 583 197 l 583 482 q 539 610 583 567 q 417 654 494 654 q 294 610 339 654 q 250 482 250 567 l 250 282 q 294 153 250 197 q 417 110 339 110 m 342 896 l 411 982 q 431 1026 431 1008 q 388 1053 431 1053 l 276 1053 l 276 1147 l 422 1147 q 510 1119 476 1147 q 544 1043 544 1092 q 519 967 544 997 l 465 896 l 342 896 z "},"ỡ":{"ha":833,"x_min":113,"x_max":758,"o":"m 417 -11 q 194 67 276 -11 q 113 282 113 146 l 113 482 q 194 697 113 618 q 417 775 276 775 q 585 736 514 775 l 596 736 q 644 785 644 736 l 644 889 l 758 889 l 758 779 q 736 701 758 733 q 675 651 714 668 q 721 483 721 582 l 721 282 q 639 67 721 146 q 417 -11 557 -11 m 417 110 q 539 153 494 110 q 583 282 583 197 l 583 482 q 539 610 583 567 q 417 654 494 654 q 294 610 339 654 q 250 482 250 567 l 250 282 q 294 153 250 197 q 417 110 339 110 m 500 900 q 432 914 458 900 q 388 947 406 928 q 353 981 369 967 q 313 994 336 994 q 271 947 271 994 l 271 907 l 176 907 l 176 950 q 212 1050 176 1014 q 306 1086 247 1086 q 374 1072 347 1086 q 418 1039 400 1058 q 453 1006 436 1019 q 493 992 469 992 q 535 1039 535 992 l 535 1079 l 629 1079 l 629 1038 q 594 936 629 972 q 500 900 558 900 z "},"ő":{"ha":833,"x_min":113,"x_max":742,"o":"m 417 -11 q 194 67 276 -11 q 113 282 113 146 l 113 482 q 194 697 113 618 q 417 775 276 775 q 639 697 557 775 q 721 483 721 618 l 721 282 q 639 67 721 146 q 417 -11 557 -11 m 417 110 q 539 153 494 110 q 583 282 583 197 l 583 482 q 539 610 583 567 q 417 654 494 654 q 294 610 339 654 q 250 482 250 567 l 250 282 q 294 153 250 197 q 417 110 339 110 m 451 896 l 604 1090 l 742 1090 l 582 896 l 451 896 m 196 896 l 347 1090 l 486 1090 l 326 896 l 196 896 z "},"ō":{"ha":833,"x_min":113,"x_max":721,"o":"m 417 -11 q 194 67 276 -11 q 113 282 113 146 l 113 482 q 194 697 113 618 q 417 775 276 775 q 639 697 557 775 q 721 483 721 618 l 721 282 q 639 67 721 146 q 417 -11 557 -11 m 417 110 q 539 153 494 110 q 583 282 583 197 l 583 482 q 539 610 583 567 q 417 654 494 654 q 294 610 339 654 q 250 482 250 567 l 250 282 q 294 153 250 197 q 417 110 339 110 m 190 928 l 190 1039 l 643 1039 l 643 928 l 190 928 z "},"ǫ":{"ha":833,"x_min":117,"x_max":717,"o":"m 514 -286 q 390 -249 436 -286 q 343 -154 343 -211 q 364 -85 343 -121 q 438 -7 385 -50 q 417 -14 428 -14 q 197 65 278 -14 q 117 281 117 143 l 117 485 q 197 699 117 621 q 417 778 278 778 q 636 699 556 778 q 717 485 717 621 l 717 281 q 684 131 717 194 q 593 32 651 68 l 553 -3 q 489 -69 508 -39 q 469 -126 469 -100 q 489 -175 469 -156 q 543 -194 508 -194 l 629 -194 l 629 -286 l 514 -286 m 417 108 q 537 152 494 108 q 579 281 579 196 l 579 485 q 537 613 579 568 q 417 657 494 657 q 297 613 339 657 q 254 485 254 568 l 254 281 q 297 152 254 196 q 417 108 339 108 z "},"ø":{"ha":833,"x_min":47,"x_max":788,"o":"m 47 -42 l 157 115 q 117 281 117 185 l 117 485 q 197 699 117 621 q 417 778 278 778 q 594 732 521 778 l 656 819 l 788 819 l 671 657 q 717 485 717 586 l 717 281 q 636 65 717 143 q 417 -14 556 -14 q 232 36 307 -14 l 176 -42 l 47 -42 m 246 281 q 249 244 246 261 l 521 629 q 417 657 479 657 q 291 611 336 657 q 246 485 246 565 l 246 281 m 417 108 q 542 153 497 108 q 588 281 588 199 l 588 483 q 583 532 588 510 l 306 140 q 417 108 349 108 z "},"ǿ":{"ha":833,"x_min":47,"x_max":788,"o":"m 47 -42 l 157 115 q 117 281 117 185 l 117 485 q 197 699 117 621 q 417 778 278 778 q 594 732 521 778 l 656 819 l 788 819 l 671 657 q 717 485 717 586 l 717 281 q 636 65 717 143 q 417 -14 556 -14 q 232 36 307 -14 l 176 -42 l 47 -42 m 246 281 q 249 244 246 261 l 521 629 q 417 657 479 657 q 291 611 336 657 q 246 485 246 565 l 246 281 m 417 108 q 542 153 497 108 q 588 281 588 199 l 588 483 q 583 532 588 510 l 306 140 q 417 108 349 108 m 331 896 l 476 1090 l 625 1090 l 469 896 l 331 896 z "},"õ":{"ha":833,"x_min":113,"x_max":721,"o":"m 417 -11 q 194 67 276 -11 q 113 282 113 146 l 113 482 q 194 697 113 618 q 417 775 276 775 q 639 697 557 775 q 721 483 721 618 l 721 282 q 639 67 721 146 q 417 -11 557 -11 m 417 110 q 539 153 494 110 q 583 282 583 197 l 583 482 q 539 610 583 567 q 417 654 494 654 q 294 610 339 654 q 250 482 250 567 l 250 282 q 294 153 250 197 q 417 110 339 110 m 514 900 q 446 914 472 900 q 401 947 419 928 q 367 981 383 967 q 326 994 350 994 q 285 947 285 994 l 285 907 l 190 907 l 190 950 q 226 1050 190 1014 q 319 1086 261 1086 q 388 1072 361 1086 q 432 1039 414 1058 q 467 1006 450 1019 q 507 992 483 992 q 549 1039 549 992 l 549 1079 l 643 1079 l 643 1038 q 608 936 643 972 q 514 900 572 900 z "},"œ":{"ha":833,"x_min":49,"x_max":785,"o":"m 250 -14 q 103 46 157 -14 q 49 207 49 106 l 49 558 q 103 718 49 658 q 250 778 157 778 q 340 760 306 778 q 393 717 375 742 q 414 668 411 692 l 419 668 q 440 717 422 692 q 492 760 457 742 q 583 778 528 778 q 731 718 676 778 q 785 558 785 658 l 785 347 l 479 347 l 479 207 q 503 126 479 156 q 568 97 528 97 q 627 119 603 97 q 657 176 651 140 l 781 176 q 716 38 769 89 q 583 -14 663 -14 q 492 4 528 -14 q 440 47 457 22 q 419 96 422 72 l 414 96 q 393 47 411 72 q 340 4 375 22 q 250 -14 306 -14 m 265 97 q 330 126 306 97 q 354 207 354 156 l 354 558 q 330 638 354 608 q 265 667 306 667 q 198 638 222 667 q 174 558 174 608 l 174 207 q 198 126 174 156 q 265 97 222 97 m 479 450 l 661 450 l 661 558 q 636 638 661 608 q 568 667 611 667 q 503 638 528 667 q 479 558 479 608 l 479 450 z "},"p":{"ha":833,"x_min":124,"x_max":722,"o":"m 124 -250 l 124 764 l 260 764 l 260 621 l 261 621 q 330 736 275 694 q 469 778 385 778 q 653 701 583 778 q 722 492 722 624 l 722 274 q 653 63 722 140 q 469 -14 585 -14 q 331 28 386 -14 q 261 144 275 71 l 258 144 l 261 -29 l 261 -250 l 124 -250 m 422 106 q 542 151 499 106 q 585 281 585 196 l 585 485 q 542 613 585 568 q 422 658 499 658 q 304 613 347 658 q 261 483 261 567 l 261 281 q 304 151 261 197 q 422 106 347 106 z "},"þ":{"ha":833,"x_min":117,"x_max":715,"o":"m 117 -236 l 117 1014 l 254 1014 l 254 794 l 250 618 l 254 618 q 319 735 264 692 q 461 778 375 778 q 646 701 576 778 q 715 492 715 624 l 715 272 q 645 63 715 139 q 461 -14 575 -14 q 319 28 375 -14 q 254 146 264 71 l 253 146 l 253 -236 l 117 -236 m 414 106 q 534 151 490 106 q 578 281 578 196 l 578 485 q 534 613 578 568 q 414 658 490 658 q 297 613 340 658 q 254 485 254 567 l 254 281 q 297 151 254 197 q 414 106 340 106 z "},"q":{"ha":833,"x_min":117,"x_max":711,"o":"m 574 -250 l 574 -29 l 576 144 l 574 144 q 505 28 560 71 q 367 -14 450 -14 q 184 63 251 -14 q 117 274 117 140 l 117 492 q 184 701 117 624 q 367 778 251 778 q 505 736 450 778 q 574 621 560 694 l 575 621 l 575 764 l 711 764 l 711 -250 l 574 -250 m 414 106 q 531 151 488 106 q 574 281 574 197 l 574 483 q 531 613 574 567 q 414 658 488 658 q 296 613 338 658 q 254 485 254 568 l 254 281 q 296 151 254 196 q 414 106 338 106 z "},"r":{"ha":833,"x_min":146,"x_max":749,"o":"m 146 0 l 146 764 l 282 764 l 282 618 l 285 618 q 348 736 294 694 q 489 778 401 778 q 678 701 607 778 q 749 496 749 625 l 749 440 l 610 440 l 610 485 q 567 613 610 567 q 443 658 525 658 q 283 482 283 658 l 283 0 l 146 0 z "},"ŕ":{"ha":833,"x_min":146,"x_max":749,"o":"m 146 0 l 146 764 l 282 764 l 282 618 l 285 618 q 348 736 294 694 q 489 778 401 778 q 678 701 607 778 q 749 496 749 625 l 749 440 l 610 440 l 610 485 q 567 613 610 567 q 443 658 525 658 q 283 482 283 658 l 283 0 l 146 0 m 358 896 l 504 1090 l 653 1090 l 497 896 l 358 896 z "},"ř":{"ha":833,"x_min":146,"x_max":749,"o":"m 146 0 l 146 764 l 282 764 l 282 618 l 285 618 q 348 736 294 694 q 489 778 401 778 q 678 701 607 778 q 749 496 749 625 l 749 440 l 610 440 l 610 485 q 567 613 610 567 q 443 658 525 658 q 283 482 283 658 l 283 0 l 146 0 m 382 896 l 188 1090 l 333 1090 l 444 983 l 553 1090 l 701 1090 l 508 896 l 382 896 z "},"ŗ":{"ha":833,"x_min":46,"x_max":749,"o":"m 146 0 l 146 764 l 282 764 l 282 618 l 285 618 q 348 736 294 694 q 489 778 401 778 q 678 701 607 778 q 749 496 749 625 l 749 440 l 610 440 l 610 485 q 567 613 610 567 q 443 658 525 658 q 283 482 283 658 l 283 0 l 146 0 m 46 -333 l 178 -132 l 333 -132 l 185 -333 l 46 -333 z "},"s":{"ha":833,"x_min":117,"x_max":729,"o":"m 392 -11 q 194 44 271 -11 q 117 196 117 100 l 257 196 q 295 130 257 153 q 394 107 333 107 l 453 107 q 560 135 525 107 q 594 211 594 164 q 561 285 594 258 q 467 322 528 311 l 363 338 q 135 558 135 374 q 204 719 135 664 q 403 775 274 775 l 456 775 q 647 722 575 775 q 719 581 719 668 l 579 581 q 545 636 579 615 q 453 657 511 657 l 400 657 q 303 631 336 657 q 269 558 269 606 q 383 460 269 478 l 488 443 q 671 370 613 424 q 729 217 729 317 q 659 49 729 110 q 450 -11 589 -11 l 392 -11 z "},"ś":{"ha":833,"x_min":117,"x_max":729,"o":"m 392 -11 q 194 44 271 -11 q 117 196 117 100 l 257 196 q 295 130 257 153 q 394 107 333 107 l 453 107 q 560 135 525 107 q 594 211 594 164 q 561 285 594 258 q 467 322 528 311 l 363 338 q 135 558 135 374 q 204 719 135 664 q 403 775 274 775 l 456 775 q 647 722 575 775 q 719 581 719 668 l 579 581 q 545 636 579 615 q 453 657 511 657 l 400 657 q 303 631 336 657 q 269 558 269 606 q 383 460 269 478 l 488 443 q 671 370 613 424 q 729 217 729 317 q 659 49 729 110 q 450 -11 589 -11 l 392 -11 m 331 896 l 476 1090 l 625 1090 l 469 896 l 331 896 z "},"š":{"ha":833,"x_min":117,"x_max":729,"o":"m 392 -11 q 194 44 271 -11 q 117 196 117 100 l 257 196 q 295 130 257 153 q 394 107 333 107 l 453 107 q 560 135 525 107 q 594 211 594 164 q 561 285 594 258 q 467 322 528 311 l 363 338 q 135 558 135 374 q 204 719 135 664 q 403 775 274 775 l 456 775 q 647 722 575 775 q 719 581 719 668 l 579 581 q 545 636 579 615 q 453 657 511 657 l 400 657 q 303 631 336 657 q 269 558 269 606 q 383 460 269 478 l 488 443 q 671 370 613 424 q 729 217 729 317 q 659 49 729 110 q 450 -11 589 -11 l 392 -11 m 354 896 l 160 1090 l 306 1090 l 417 983 l 525 1090 l 674 1090 l 481 896 l 354 896 z "},"ş":{"ha":833,"x_min":117,"x_max":729,"o":"m 296 -286 l 296 -207 l 394 -207 q 444 -191 425 -207 q 464 -157 464 -175 q 425 -114 464 -132 q 317 -96 386 -96 l 349 -10 q 181 54 244 0 q 117 196 117 108 l 257 196 q 295 130 257 153 q 394 107 333 107 l 453 107 q 560 135 525 107 q 594 211 594 164 q 561 285 594 258 q 467 322 528 311 l 363 338 q 135 558 135 374 q 204 719 135 664 q 403 775 274 775 l 456 775 q 647 722 575 775 q 719 581 719 668 l 579 581 q 545 636 579 615 q 453 657 511 657 l 400 657 q 303 631 336 657 q 269 558 269 606 q 383 460 269 478 l 488 443 q 671 370 613 424 q 729 217 729 317 q 659 49 729 110 q 450 -11 589 -11 l 432 -11 l 418 -50 q 495 -67 456 -53 q 563 -107 535 -82 q 590 -169 590 -132 q 543 -252 590 -218 q 419 -286 496 -286 l 296 -286 z "},"ŝ":{"ha":833,"x_min":117,"x_max":729,"o":"m 392 -11 q 194 44 271 -11 q 117 196 117 100 l 257 196 q 295 130 257 153 q 394 107 333 107 l 453 107 q 560 135 525 107 q 594 211 594 164 q 561 285 594 258 q 467 322 528 311 l 363 338 q 135 558 135 374 q 204 719 135 664 q 403 775 274 775 l 456 775 q 647 722 575 775 q 719 581 719 668 l 579 581 q 545 636 579 615 q 453 657 511 657 l 400 657 q 303 631 336 657 q 269 558 269 606 q 383 460 269 478 l 488 443 q 671 370 613 424 q 729 217 729 317 q 659 49 729 110 q 450 -11 589 -11 l 392 -11 m 160 896 l 353 1090 l 479 1090 l 674 896 l 528 896 l 417 1003 l 308 896 l 160 896 z "},"ș":{"ha":833,"x_min":117,"x_max":729,"o":"m 392 -11 q 194 44 271 -11 q 117 196 117 100 l 257 196 q 295 130 257 153 q 394 107 333 107 l 453 107 q 560 135 525 107 q 594 211 594 164 q 561 285 594 258 q 467 322 528 311 l 363 338 q 135 558 135 374 q 204 719 135 664 q 403 775 274 775 l 456 775 q 647 722 575 775 q 719 581 719 668 l 579 581 q 545 636 579 615 q 453 657 511 657 l 400 657 q 303 631 336 657 q 269 558 269 606 q 383 460 269 478 l 488 443 q 671 370 613 424 q 729 217 729 317 q 659 49 729 110 q 450 -11 589 -11 l 392 -11 m 261 -333 l 393 -132 l 549 -132 l 400 -333 l 261 -333 z "},"ß":{"ha":833,"x_min":121,"x_max":743,"o":"m 121 0 l 121 738 q 158 890 121 825 q 262 992 194 956 q 419 1028 329 1028 q 640 960 557 1028 q 724 768 724 892 q 681 624 724 683 q 561 542 638 564 q 694 453 646 519 q 743 289 743 388 q 705 139 743 204 q 598 37 667 74 q 438 0 529 0 l 349 0 l 349 122 l 424 122 q 552 170 506 122 q 599 296 599 218 q 552 417 599 372 q 424 461 506 461 l 363 461 l 363 576 l 421 576 q 538 623 496 576 q 581 740 581 669 q 537 862 581 818 q 419 906 493 906 q 300 860 344 906 q 256 738 256 815 l 256 0 l 121 0 z "},"ſ":{"ha":833,"x_min":224,"x_max":714,"o":"m 224 0 l 224 783 q 290 951 224 888 q 467 1014 357 1014 l 714 1014 l 714 893 l 469 893 q 391 863 421 893 q 361 782 361 832 l 361 0 l 224 0 z "},"t":{"ha":833,"x_min":72,"x_max":725,"o":"m 500 0 q 344 57 401 0 q 286 208 286 114 l 286 639 l 72 639 l 72 764 l 286 764 l 286 979 l 424 979 l 424 764 l 725 764 l 725 639 l 424 639 l 424 210 q 445 149 424 172 q 503 125 467 125 l 711 125 l 711 0 l 500 0 z "},"ŧ":{"ha":833,"x_min":72,"x_max":725,"o":"m 115 328 l 115 440 l 286 440 l 286 639 l 72 639 l 72 764 l 286 764 l 286 979 l 424 979 l 424 764 l 725 764 l 725 639 l 424 639 l 424 440 l 663 440 l 663 328 l 424 328 l 424 210 q 445 149 424 172 q 503 125 467 125 l 711 125 l 711 0 l 500 0 q 344 57 401 0 q 286 208 286 114 l 286 328 l 115 328 z "},"ť":{"ha":833,"x_min":72,"x_max":772,"o":"m 518 861 l 642 1078 l 772 1078 l 636 861 l 518 861 m 500 0 q 344 57 401 0 q 286 208 286 114 l 286 639 l 72 639 l 72 764 l 286 764 l 286 979 l 424 979 l 424 764 l 725 764 l 725 639 l 424 639 l 424 210 q 445 149 424 172 q 503 125 467 125 l 711 125 l 711 0 l 500 0 z "},"ţ":{"ha":833,"x_min":72,"x_max":725,"o":"m 365 -286 l 365 -207 l 464 -207 q 514 -191 494 -207 q 533 -157 533 -175 q 494 -114 533 -132 q 386 -96 456 -96 l 425 10 q 323 81 360 29 q 286 208 286 133 l 286 639 l 72 639 l 72 764 l 286 764 l 286 979 l 424 979 l 424 764 l 725 764 l 725 639 l 424 639 l 424 210 q 445 149 424 172 q 503 125 467 125 l 711 125 l 711 0 l 504 0 l 488 -50 q 565 -67 525 -53 q 632 -107 604 -82 q 660 -169 660 -132 q 613 -252 660 -218 q 489 -286 565 -286 l 365 -286 z "},"ț":{"ha":833,"x_min":72,"x_max":725,"o":"m 500 0 q 344 57 401 0 q 286 208 286 114 l 286 639 l 72 639 l 72 764 l 286 764 l 286 979 l 424 979 l 424 764 l 725 764 l 725 639 l 424 639 l 424 210 q 445 149 424 172 q 503 125 467 125 l 711 125 l 711 0 l 500 0 m 344 -333 l 476 -132 l 632 -132 l 483 -333 l 344 -333 z "},"u":{"ha":833,"x_min":119,"x_max":714,"o":"m 415 -14 q 200 65 281 -14 q 119 281 119 144 l 119 764 l 257 764 l 257 281 q 299 152 257 197 q 415 107 342 107 q 533 152 490 107 q 576 281 576 197 l 576 764 l 714 764 l 714 281 q 633 65 714 144 q 415 -14 551 -14 z "},"ú":{"ha":833,"x_min":119,"x_max":714,"o":"m 415 -14 q 200 65 281 -14 q 119 281 119 144 l 119 764 l 257 764 l 257 281 q 299 152 257 197 q 415 107 342 107 q 533 152 490 107 q 576 281 576 197 l 576 764 l 714 764 l 714 281 q 633 65 714 144 q 415 -14 551 -14 m 331 896 l 476 1090 l 625 1090 l 469 896 l 331 896 z "},"ŭ":{"ha":833,"x_min":119,"x_max":714,"o":"m 415 -14 q 200 65 281 -14 q 119 281 119 144 l 119 764 l 257 764 l 257 281 q 299 152 257 197 q 415 107 342 107 q 533 152 490 107 q 576 281 576 197 l 576 764 l 714 764 l 714 281 q 633 65 714 144 q 415 -14 551 -14 m 417 888 q 251 943 314 888 q 189 1090 189 999 l 297 1090 q 330 1007 297 1039 q 415 975 363 975 q 503 1007 469 975 q 536 1090 536 1039 l 644 1090 q 582 943 644 999 q 417 888 519 888 z "},"ǔ":{"ha":833,"x_min":119,"x_max":714,"o":"m 415 -14 q 200 65 281 -14 q 119 281 119 144 l 119 764 l 257 764 l 257 281 q 299 152 257 197 q 415 107 342 107 q 533 152 490 107 q 576 281 576 197 l 576 764 l 714 764 l 714 281 q 633 65 714 144 q 415 -14 551 -14 m 354 896 l 160 1090 l 306 1090 l 417 983 l 525 1090 l 674 1090 l 481 896 l 354 896 z "},"û":{"ha":833,"x_min":119,"x_max":714,"o":"m 415 -14 q 200 65 281 -14 q 119 281 119 144 l 119 764 l 257 764 l 257 281 q 299 152 257 197 q 415 107 342 107 q 533 152 490 107 q 576 281 576 197 l 576 764 l 714 764 l 714 281 q 633 65 714 144 q 415 -14 551 -14 m 160 896 l 353 1090 l 479 1090 l 674 896 l 528 896 l 417 1003 l 308 896 l 160 896 z "},"ü":{"ha":833,"x_min":119,"x_max":714,"o":"m 415 -14 q 200 65 281 -14 q 119 281 119 144 l 119 764 l 257 764 l 257 281 q 299 152 257 197 q 415 107 342 107 q 533 152 490 107 q 576 281 576 197 l 576 764 l 714 764 l 714 281 q 633 65 714 144 q 415 -14 551 -14 m 574 899 q 506 923 531 899 q 481 989 481 947 q 506 1057 481 1032 q 574 1082 531 1082 q 640 1057 615 1082 q 665 989 665 1032 q 640 923 665 947 q 574 899 615 899 m 260 899 q 193 923 218 899 q 168 989 168 947 q 193 1057 168 1032 q 260 1082 218 1082 q 328 1057 303 1082 q 353 989 353 1032 q 328 923 353 947 q 260 899 303 899 z "},"ǘ":{"ha":833,"x_min":119,"x_max":714,"o":"m 415 -14 q 200 65 281 -14 q 119 281 119 144 l 119 764 l 257 764 l 257 281 q 299 152 257 197 q 415 107 342 107 q 533 152 490 107 q 576 281 576 197 l 576 764 l 714 764 l 714 281 q 633 65 714 144 q 415 -14 551 -14 m 574 899 q 506 923 531 899 q 481 989 481 947 q 506 1057 481 1032 q 574 1082 531 1082 q 640 1057 615 1082 q 665 989 665 1032 q 640 923 665 947 q 574 899 615 899 m 260 899 q 193 923 218 899 q 168 989 168 947 q 193 1057 168 1032 q 260 1082 218 1082 q 328 1057 303 1082 q 353 989 353 1032 q 328 923 353 947 q 260 899 303 899 m 331 1214 l 476 1408 l 625 1408 l 469 1214 l 331 1214 z "},"ǚ":{"ha":833,"x_min":119,"x_max":714,"o":"m 415 -14 q 200 65 281 -14 q 119 281 119 144 l 119 764 l 257 764 l 257 281 q 299 152 257 197 q 415 107 342 107 q 533 152 490 107 q 576 281 576 197 l 576 764 l 714 764 l 714 281 q 633 65 714 144 q 415 -14 551 -14 m 574 899 q 506 923 531 899 q 481 989 481 947 q 506 1057 481 1032 q 574 1082 531 1082 q 640 1057 615 1082 q 665 989 665 1032 q 640 923 665 947 q 574 899 615 899 m 260 899 q 193 923 218 899 q 168 989 168 947 q 193 1057 168 1032 q 260 1082 218 1082 q 328 1057 303 1082 q 353 989 353 1032 q 328 923 353 947 q 260 899 303 899 m 354 1214 l 160 1408 l 306 1408 l 417 1301 l 525 1408 l 674 1408 l 481 1214 l 354 1214 z "},"ǜ":{"ha":833,"x_min":119,"x_max":714,"o":"m 415 -14 q 200 65 281 -14 q 119 281 119 144 l 119 764 l 257 764 l 257 281 q 299 152 257 197 q 415 107 342 107 q 533 152 490 107 q 576 281 576 197 l 576 764 l 714 764 l 714 281 q 633 65 714 144 q 415 -14 551 -14 m 574 899 q 506 923 531 899 q 481 989 481 947 q 506 1057 481 1032 q 574 1082 531 1082 q 640 1057 615 1082 q 665 989 665 1032 q 640 923 665 947 q 574 899 615 899 m 260 899 q 193 923 218 899 q 168 989 168 947 q 193 1057 168 1032 q 260 1082 218 1082 q 328 1057 303 1082 q 353 989 353 1032 q 328 923 353 947 q 260 899 303 899 m 365 1214 l 204 1408 l 357 1408 l 508 1214 l 365 1214 z "},"ǖ":{"ha":833,"x_min":119,"x_max":714,"o":"m 415 -14 q 200 65 281 -14 q 119 281 119 144 l 119 764 l 257 764 l 257 281 q 299 152 257 197 q 415 107 342 107 q 533 152 490 107 q 576 281 576 197 l 576 764 l 714 764 l 714 281 q 633 65 714 144 q 415 -14 551 -14 m 574 899 q 506 923 531 899 q 481 989 481 947 q 506 1057 481 1032 q 574 1082 531 1082 q 640 1057 615 1082 q 665 989 665 1032 q 640 923 665 947 q 574 899 615 899 m 260 899 q 193 923 218 899 q 168 989 168 947 q 193 1057 168 1032 q 260 1082 218 1082 q 328 1057 303 1082 q 353 989 353 1032 q 328 923 353 947 q 260 899 303 899 m 190 1246 l 190 1357 l 643 1357 l 643 1246 l 190 1246 z "},"ụ":{"ha":833,"x_min":119,"x_max":714,"o":"m 415 -14 q 200 65 281 -14 q 119 281 119 144 l 119 764 l 257 764 l 257 281 q 299 152 257 197 q 415 107 342 107 q 533 152 490 107 q 576 281 576 197 l 576 764 l 714 764 l 714 281 q 633 65 714 144 q 415 -14 551 -14 m 417 -300 q 342 -276 369 -300 q 314 -210 314 -251 q 342 -142 314 -167 q 417 -117 369 -117 q 492 -142 464 -117 q 519 -210 519 -167 q 492 -276 519 -251 q 417 -300 464 -300 z "},"ù":{"ha":833,"x_min":119,"x_max":714,"o":"m 415 -14 q 200 65 281 -14 q 119 281 119 144 l 119 764 l 257 764 l 257 281 q 299 152 257 197 q 415 107 342 107 q 533 152 490 107 q 576 281 576 197 l 576 764 l 714 764 l 714 281 q 633 65 714 144 q 415 -14 551 -14 m 365 896 l 204 1090 l 357 1090 l 508 896 l 365 896 z "},"ủ":{"ha":833,"x_min":119,"x_max":714,"o":"m 415 -14 q 200 65 281 -14 q 119 281 119 144 l 119 764 l 257 764 l 257 281 q 299 152 257 197 q 415 107 342 107 q 533 152 490 107 q 576 281 576 197 l 576 764 l 714 764 l 714 281 q 633 65 714 144 q 415 -14 551 -14 m 356 896 l 425 982 q 444 1026 444 1008 q 401 1053 444 1053 l 290 1053 l 290 1147 l 436 1147 q 524 1119 490 1147 q 558 1043 558 1092 q 533 967 558 997 l 479 896 l 356 896 z "},"ư":{"ha":833,"x_min":119,"x_max":840,"o":"m 119 279 l 119 764 l 257 764 l 257 279 q 298 152 257 197 q 411 107 339 107 q 526 152 485 107 q 568 279 568 197 l 568 764 l 679 764 q 728 813 728 764 l 728 917 l 840 917 l 840 807 q 808 705 840 743 q 706 667 775 667 l 706 279 q 625 65 706 144 q 411 -14 544 -14 q 199 65 278 -14 q 119 279 119 144 z "},"ứ":{"ha":833,"x_min":119,"x_max":840,"o":"m 119 279 l 119 764 l 257 764 l 257 279 q 298 152 257 197 q 411 107 339 107 q 526 152 485 107 q 568 279 568 197 l 568 764 l 679 764 q 728 813 728 764 l 728 917 l 840 917 l 840 807 q 808 705 840 743 q 706 667 775 667 l 706 279 q 625 65 706 144 q 411 -14 544 -14 q 199 65 278 -14 q 119 279 119 144 m 326 896 l 472 1090 l 621 1090 l 465 896 l 326 896 z "},"ự":{"ha":833,"x_min":119,"x_max":840,"o":"m 119 279 l 119 764 l 257 764 l 257 279 q 298 152 257 197 q 411 107 339 107 q 526 152 485 107 q 568 279 568 197 l 568 764 l 679 764 q 728 813 728 764 l 728 917 l 840 917 l 840 807 q 808 705 840 743 q 706 667 775 667 l 706 279 q 625 65 706 144 q 411 -14 544 -14 q 199 65 278 -14 q 119 279 119 144 m 411 -300 q 336 -276 364 -300 q 308 -210 308 -251 q 336 -142 308 -167 q 411 -117 364 -117 q 486 -142 458 -117 q 514 -210 514 -167 q 486 -276 514 -251 q 411 -300 458 -300 z "},"ừ":{"ha":833,"x_min":119,"x_max":840,"o":"m 119 279 l 119 764 l 257 764 l 257 279 q 298 152 257 197 q 411 107 339 107 q 526 152 485 107 q 568 279 568 197 l 568 764 l 679 764 q 728 813 728 764 l 728 917 l 840 917 l 840 807 q 808 705 840 743 q 706 667 775 667 l 706 279 q 625 65 706 144 q 411 -14 544 -14 q 199 65 278 -14 q 119 279 119 144 m 361 896 l 200 1090 l 353 1090 l 504 896 l 361 896 z "},"ử":{"ha":833,"x_min":119,"x_max":840,"o":"m 119 279 l 119 764 l 257 764 l 257 279 q 298 152 257 197 q 411 107 339 107 q 526 152 485 107 q 568 279 568 197 l 568 764 l 679 764 q 728 813 728 764 l 728 917 l 840 917 l 840 807 q 808 705 840 743 q 706 667 775 667 l 706 279 q 625 65 706 144 q 411 -14 544 -14 q 199 65 278 -14 q 119 279 119 144 m 351 896 l 421 982 q 440 1026 440 1008 q 397 1053 440 1053 l 286 1053 l 286 1147 l 432 1147 q 520 1119 486 1147 q 554 1043 554 1092 q 529 967 554 997 l 475 896 l 351 896 z "},"ữ":{"ha":833,"x_min":119,"x_max":840,"o":"m 119 279 l 119 764 l 257 764 l 257 279 q 298 152 257 197 q 411 107 339 107 q 526 152 485 107 q 568 279 568 197 l 568 764 l 679 764 q 728 813 728 764 l 728 917 l 840 917 l 840 807 q 808 705 840 743 q 706 667 775 667 l 706 279 q 625 65 706 144 q 411 -14 544 -14 q 199 65 278 -14 q 119 279 119 144 m 510 900 q 442 914 468 900 q 397 947 415 928 q 363 981 379 967 q 322 994 346 994 q 281 947 281 994 l 281 907 l 186 907 l 186 950 q 222 1050 186 1014 q 315 1086 257 1086 q 383 1072 357 1086 q 428 1039 410 1058 q 463 1006 446 1019 q 503 992 479 992 q 544 1039 544 992 l 544 1079 l 639 1079 l 639 1038 q 603 936 639 972 q 510 900 568 900 z "},"ű":{"ha":833,"x_min":119,"x_max":742,"o":"m 415 -14 q 200 65 281 -14 q 119 281 119 144 l 119 764 l 257 764 l 257 281 q 299 152 257 197 q 415 107 342 107 q 533 152 490 107 q 576 281 576 197 l 576 764 l 714 764 l 714 281 q 633 65 714 144 q 415 -14 551 -14 m 451 896 l 604 1090 l 742 1090 l 582 896 l 451 896 m 196 896 l 347 1090 l 486 1090 l 326 896 l 196 896 z "},"ū":{"ha":833,"x_min":119,"x_max":714,"o":"m 415 -14 q 200 65 281 -14 q 119 281 119 144 l 119 764 l 257 764 l 257 281 q 299 152 257 197 q 415 107 342 107 q 533 152 490 107 q 576 281 576 197 l 576 764 l 714 764 l 714 281 q 633 65 714 144 q 415 -14 551 -14 m 190 928 l 190 1039 l 643 1039 l 643 928 l 190 928 z "},"ų":{"ha":833,"x_min":119,"x_max":714,"o":"m 514 -286 q 390 -249 436 -286 q 343 -154 343 -211 q 364 -85 343 -121 q 438 -7 385 -50 q 417 -14 428 -14 q 199 65 278 -14 q 119 281 119 143 l 119 764 l 257 764 l 257 281 q 417 108 257 108 q 576 281 576 108 l 576 764 l 714 764 l 714 281 q 593 32 714 106 l 553 -3 q 489 -69 508 -39 q 469 -126 469 -100 q 489 -175 469 -156 q 543 -194 508 -194 l 629 -194 l 629 -286 l 514 -286 z "},"ů":{"ha":833,"x_min":119,"x_max":714,"o":"m 415 -14 q 200 65 281 -14 q 119 281 119 144 l 119 764 l 257 764 l 257 281 q 299 152 257 197 q 415 107 342 107 q 533 152 490 107 q 576 281 576 197 l 576 764 l 714 764 l 714 281 q 633 65 714 144 q 415 -14 551 -14 m 417 843 q 293 888 340 843 q 246 1004 246 932 q 293 1121 246 1076 q 417 1165 340 1165 q 540 1121 493 1165 q 588 1004 588 1076 q 540 888 588 932 q 417 843 493 843 m 417 919 q 477 942 454 919 q 500 1004 500 965 q 477 1065 500 1042 q 417 1089 454 1089 q 356 1065 379 1089 q 333 1004 333 1042 q 356 942 333 965 q 417 919 379 919 z "},"ũ":{"ha":833,"x_min":119,"x_max":714,"o":"m 415 -14 q 200 65 281 -14 q 119 281 119 144 l 119 764 l 257 764 l 257 281 q 299 152 257 197 q 415 107 342 107 q 533 152 490 107 q 576 281 576 197 l 576 764 l 714 764 l 714 281 q 633 65 714 144 q 415 -14 551 -14 m 514 900 q 446 914 472 900 q 401 947 419 928 q 367 981 383 967 q 326 994 350 994 q 285 947 285 994 l 285 907 l 190 907 l 190 950 q 226 1050 190 1014 q 319 1086 261 1086 q 388 1072 361 1086 q 432 1039 414 1058 q 467 1006 450 1019 q 507 992 483 992 q 549 1039 549 992 l 549 1079 l 643 1079 l 643 1038 q 608 936 643 972 q 514 900 572 900 z "},"v":{"ha":833,"x_min":64,"x_max":771,"o":"m 328 0 l 64 764 l 206 764 l 378 263 q 403 175 393 218 q 419 108 414 132 q 436 175 426 132 q 461 263 446 218 l 628 764 l 771 764 l 506 0 l 328 0 z "},"w":{"ha":833,"x_min":43,"x_max":790,"o":"m 164 0 l 43 764 l 160 764 l 233 242 q 241 169 238 208 q 247 104 244 129 l 253 104 q 260 169 256 131 q 271 242 265 208 l 351 764 l 482 764 l 563 242 q 573 169 568 207 q 581 104 578 131 l 586 104 q 594 169 590 129 q 603 242 599 208 l 679 764 l 790 764 l 664 0 l 517 0 l 438 514 q 426 592 432 551 q 418 658 421 633 l 413 658 q 405 592 410 633 q 394 514 400 551 l 313 0 l 164 0 z "},"ẃ":{"ha":833,"x_min":43,"x_max":790,"o":"m 164 0 l 43 764 l 160 764 l 233 242 q 241 169 238 208 q 247 104 244 129 l 253 104 q 260 169 256 131 q 271 242 265 208 l 351 764 l 482 764 l 563 242 q 573 169 568 207 q 581 104 578 131 l 586 104 q 594 169 590 129 q 603 242 599 208 l 679 764 l 790 764 l 664 0 l 517 0 l 438 514 q 426 592 432 551 q 418 658 421 633 l 413 658 q 405 592 410 633 q 394 514 400 551 l 313 0 l 164 0 m 331 896 l 476 1090 l 625 1090 l 469 896 l 331 896 z "},"ŵ":{"ha":833,"x_min":43,"x_max":790,"o":"m 164 0 l 43 764 l 160 764 l 233 242 q 241 169 238 208 q 247 104 244 129 l 253 104 q 260 169 256 131 q 271 242 265 208 l 351 764 l 482 764 l 563 242 q 573 169 568 207 q 581 104 578 131 l 586 104 q 594 169 590 129 q 603 242 599 208 l 679 764 l 790 764 l 664 0 l 517 0 l 438 514 q 426 592 432 551 q 418 658 421 633 l 413 658 q 405 592 410 633 q 394 514 400 551 l 313 0 l 164 0 m 160 896 l 353 1090 l 479 1090 l 674 896 l 528 896 l 417 1003 l 308 896 l 160 896 z "},"ẅ":{"ha":833,"x_min":43,"x_max":790,"o":"m 164 0 l 43 764 l 160 764 l 233 242 q 241 169 238 208 q 247 104 244 129 l 253 104 q 260 169 256 131 q 271 242 265 208 l 351 764 l 482 764 l 563 242 q 573 169 568 207 q 581 104 578 131 l 586 104 q 594 169 590 129 q 603 242 599 208 l 679 764 l 790 764 l 664 0 l 517 0 l 438 514 q 426 592 432 551 q 418 658 421 633 l 413 658 q 405 592 410 633 q 394 514 400 551 l 313 0 l 164 0 m 574 899 q 506 923 531 899 q 481 989 481 947 q 506 1057 481 1032 q 574 1082 531 1082 q 640 1057 615 1082 q 665 989 665 1032 q 640 923 665 947 q 574 899 615 899 m 260 899 q 193 923 218 899 q 168 989 168 947 q 193 1057 168 1032 q 260 1082 218 1082 q 328 1057 303 1082 q 353 989 353 1032 q 328 923 353 947 q 260 899 303 899 z "},"ẁ":{"ha":833,"x_min":43,"x_max":790,"o":"m 164 0 l 43 764 l 160 764 l 233 242 q 241 169 238 208 q 247 104 244 129 l 253 104 q 260 169 256 131 q 271 242 265 208 l 351 764 l 482 764 l 563 242 q 573 169 568 207 q 581 104 578 131 l 586 104 q 594 169 590 129 q 603 242 599 208 l 679 764 l 790 764 l 664 0 l 517 0 l 438 514 q 426 592 432 551 q 418 658 421 633 l 413 658 q 405 592 410 633 q 394 514 400 551 l 313 0 l 164 0 m 365 896 l 204 1090 l 357 1090 l 508 896 l 365 896 z "},"x":{"ha":833,"x_min":64,"x_max":769,"o":"m 64 0 l 335 393 l 82 764 l 242 764 l 385 540 q 403 506 394 524 q 418 476 413 488 q 431 506 422 488 q 450 540 440 524 l 594 764 l 753 764 l 500 392 l 769 0 l 608 0 l 453 240 q 433 276 443 256 q 418 308 424 296 q 401 276 411 296 q 381 240 392 256 l 224 0 l 64 0 z "},"y":{"ha":833,"x_min":63,"x_max":771,"o":"m 244 -250 l 356 46 l 63 764 l 213 764 l 390 313 q 410 251 400 286 q 425 192 419 215 q 441 251 431 215 q 461 313 451 286 l 626 764 l 771 764 l 388 -250 l 244 -250 z "},"ý":{"ha":833,"x_min":63,"x_max":771,"o":"m 244 -250 l 356 46 l 63 764 l 213 764 l 390 313 q 410 251 400 286 q 425 192 419 215 q 441 251 431 215 q 461 313 451 286 l 626 764 l 771 764 l 388 -250 l 244 -250 m 331 896 l 476 1090 l 625 1090 l 469 896 l 331 896 z "},"ŷ":{"ha":833,"x_min":63,"x_max":771,"o":"m 244 -250 l 356 46 l 63 764 l 213 764 l 390 313 q 410 251 400 286 q 425 192 419 215 q 441 251 431 215 q 461 313 451 286 l 626 764 l 771 764 l 388 -250 l 244 -250 m 160 896 l 353 1090 l 479 1090 l 674 896 l 528 896 l 417 1003 l 308 896 l 160 896 z "},"ÿ":{"ha":833,"x_min":63,"x_max":771,"o":"m 244 -250 l 356 46 l 63 764 l 213 764 l 390 313 q 410 251 400 286 q 425 192 419 215 q 441 251 431 215 q 461 313 451 286 l 626 764 l 771 764 l 388 -250 l 244 -250 m 574 899 q 506 923 531 899 q 481 989 481 947 q 506 1057 481 1032 q 574 1082 531 1082 q 640 1057 615 1082 q 665 989 665 1032 q 640 923 665 947 q 574 899 615 899 m 260 899 q 193 923 218 899 q 168 989 168 947 q 193 1057 168 1032 q 260 1082 218 1082 q 328 1057 303 1082 q 353 989 353 1032 q 328 923 353 947 q 260 899 303 899 z "},"ỵ":{"ha":833,"x_min":63,"x_max":771,"o":"m 244 -250 l 356 46 l 63 764 l 213 764 l 390 313 q 410 251 400 286 q 425 192 419 215 q 441 251 431 215 q 461 313 451 286 l 626 764 l 771 764 l 388 -250 l 244 -250 m 647 -300 q 572 -276 600 -300 q 544 -210 544 -251 q 572 -142 544 -167 q 647 -117 600 -117 q 722 -142 694 -117 q 750 -210 750 -167 q 722 -276 750 -251 q 647 -300 694 -300 z "},"ỳ":{"ha":833,"x_min":63,"x_max":771,"o":"m 244 -250 l 356 46 l 63 764 l 213 764 l 390 313 q 410 251 400 286 q 425 192 419 215 q 441 251 431 215 q 461 313 451 286 l 626 764 l 771 764 l 388 -250 l 244 -250 m 365 896 l 204 1090 l 357 1090 l 508 896 l 365 896 z "},"ỷ":{"ha":833,"x_min":63,"x_max":771,"o":"m 244 -250 l 356 46 l 63 764 l 213 764 l 390 313 q 410 251 400 286 q 425 192 419 215 q 441 251 431 215 q 461 313 451 286 l 626 764 l 771 764 l 388 -250 l 244 -250 m 356 896 l 425 982 q 444 1026 444 1008 q 401 1053 444 1053 l 290 1053 l 290 1147 l 436 1147 q 524 1119 490 1147 q 558 1043 558 1092 q 533 967 558 997 l 479 896 l 356 896 z "},"ȳ":{"ha":833,"x_min":63,"x_max":771,"o":"m 244 -250 l 356 46 l 63 764 l 213 764 l 390 313 q 410 251 400 286 q 425 192 419 215 q 441 251 431 215 q 461 313 451 286 l 626 764 l 771 764 l 388 -250 l 244 -250 m 190 928 l 190 1039 l 643 1039 l 643 928 l 190 928 z "},"ỹ":{"ha":833,"x_min":63,"x_max":771,"o":"m 244 -250 l 356 46 l 63 764 l 213 764 l 390 313 q 410 251 400 286 q 425 192 419 215 q 441 251 431 215 q 461 313 451 286 l 626 764 l 771 764 l 388 -250 l 244 -250 m 514 900 q 446 914 472 900 q 401 947 419 928 q 367 981 383 967 q 326 994 350 994 q 285 947 285 994 l 285 907 l 190 907 l 190 950 q 226 1050 190 1014 q 319 1086 261 1086 q 388 1072 361 1086 q 432 1039 414 1058 q 467 1006 450 1019 q 507 992 483 992 q 549 1039 549 992 l 549 1079 l 643 1079 l 643 1038 q 608 936 643 972 q 514 900 572 900 z "},"z":{"ha":833,"x_min":121,"x_max":713,"o":"m 121 0 l 121 133 l 542 640 l 132 640 l 132 764 l 697 764 l 697 631 l 269 124 l 713 124 l 713 0 l 121 0 z "},"ź":{"ha":833,"x_min":121,"x_max":713,"o":"m 121 0 l 121 133 l 542 640 l 132 640 l 132 764 l 697 764 l 697 631 l 269 124 l 713 124 l 713 0 l 121 0 m 331 896 l 476 1090 l 625 1090 l 469 896 l 331 896 z "},"ž":{"ha":833,"x_min":121,"x_max":713,"o":"m 121 0 l 121 133 l 542 640 l 132 640 l 132 764 l 697 764 l 697 631 l 269 124 l 713 124 l 713 0 l 121 0 m 354 896 l 160 1090 l 306 1090 l 417 983 l 525 1090 l 674 1090 l 481 896 l 354 896 z "},"ż":{"ha":833,"x_min":121,"x_max":713,"o":"m 121 0 l 121 133 l 542 640 l 132 640 l 132 764 l 697 764 l 697 631 l 269 124 l 713 124 l 713 0 l 121 0 m 417 899 q 342 923 369 899 q 314 989 314 947 q 342 1057 314 1032 q 417 1082 369 1082 q 492 1057 464 1082 q 519 989 519 1032 q 492 923 519 947 q 417 899 464 899 z "},"ª":{"ha":833,"x_min":242,"x_max":586,"o":"m 379 625 q 279 658 317 625 q 242 744 242 690 q 281 831 242 799 q 389 864 321 864 l 510 864 l 510 903 q 487 951 510 933 q 424 968 464 968 q 365 953 389 968 q 338 915 342 939 l 263 915 q 313 999 269 969 q 424 1028 356 1028 q 542 994 499 1028 q 586 903 586 961 l 586 632 l 514 632 l 514 708 l 510 708 q 460 647 494 669 q 379 625 425 625 m 399 682 q 480 706 450 682 q 510 771 510 729 l 510 806 l 389 806 q 317 746 317 806 q 339 699 317 715 q 399 682 361 682 z "},"º":{"ha":833,"x_min":253,"x_max":581,"o":"m 417 619 q 298 660 343 619 q 253 768 253 701 l 253 874 q 298 981 253 940 q 417 1022 343 1022 q 535 981 490 1022 q 581 874 581 940 l 581 768 q 535 660 581 701 q 417 619 490 619 m 417 681 q 481 705 457 681 q 506 768 506 729 l 506 874 q 481 936 506 913 q 417 960 457 960 q 353 936 376 960 q 329 874 329 913 l 329 768 q 353 705 329 729 q 417 681 376 681 z "},"А":{"ha":833,"x_min":64,"x_max":769,"o":"m 64 0 l 326 1014 l 508 1014 l 769 0 l 629 0 l 565 264 l 268 264 l 204 0 l 64 0 m 296 378 l 538 378 l 465 681 q 432 822 444 764 q 417 901 419 881 q 401 822 414 881 q 369 682 389 764 l 296 378 z "},"Б":{"ha":833,"x_min":125,"x_max":743,"o":"m 125 0 l 125 1014 l 700 1014 l 700 889 l 261 889 l 261 597 l 425 597 q 657 516 571 597 q 743 299 743 435 q 657 81 743 163 q 425 0 571 0 l 125 0 m 261 122 l 425 122 q 554 169 507 122 q 601 299 601 217 q 554 428 601 381 q 425 475 507 475 l 261 475 l 261 122 z "},"В":{"ha":833,"x_min":124,"x_max":743,"o":"m 124 0 l 124 1014 l 417 1014 q 638 944 557 1014 q 719 751 719 874 q 678 613 719 669 q 564 536 636 556 q 694 448 646 514 q 743 283 743 382 q 660 76 743 153 q 436 0 578 0 l 124 0 m 258 586 l 415 586 q 538 627 493 586 q 582 739 582 668 q 538 852 582 811 q 417 893 493 893 l 258 893 l 258 586 m 258 121 l 424 121 q 557 166 508 121 q 606 289 606 211 q 557 419 606 369 q 424 469 508 469 l 258 469 l 258 121 z "},"Г":{"ha":833,"x_min":178,"x_max":772,"o":"m 178 0 l 178 1014 l 772 1014 l 772 889 l 315 889 l 315 0 l 178 0 z "},"Ѓ":{"ha":833,"x_min":178,"x_max":772,"o":"m 178 0 l 178 1014 l 772 1014 l 772 889 l 315 889 l 315 0 l 178 0 m 358 1125 l 504 1319 l 653 1319 l 497 1125 l 358 1125 z "},"Ґ":{"ha":833,"x_min":178,"x_max":772,"o":"m 178 0 l 178 1014 l 642 1014 l 642 1146 l 772 1146 l 772 888 l 315 888 l 315 0 l 178 0 z "},"Д":{"ha":833,"x_min":35,"x_max":799,"o":"m 35 -194 l 35 117 l 93 117 q 142 242 117 158 q 168 422 167 325 l 178 1014 l 704 1014 l 704 117 l 799 117 l 799 -194 l 675 -194 l 675 0 l 158 0 l 158 -194 l 35 -194 m 235 117 l 568 117 l 568 893 l 308 893 l 301 422 q 278 235 301 317 q 235 117 256 153 z "},"Е":{"ha":833,"x_min":135,"x_max":725,"o":"m 135 0 l 135 1014 l 725 1014 l 725 890 l 271 890 l 271 589 l 676 589 l 676 469 l 271 469 l 271 124 l 725 124 l 725 0 l 135 0 z "},"Ё":{"ha":833,"x_min":135,"x_max":725,"o":"m 135 0 l 135 1014 l 725 1014 l 725 890 l 271 890 l 271 589 l 676 589 l 676 469 l 271 469 l 271 124 l 725 124 l 725 0 l 135 0 m 601 1132 q 533 1156 558 1132 q 508 1222 508 1181 q 533 1290 508 1265 q 601 1315 558 1315 q 668 1290 643 1315 q 693 1222 693 1265 q 668 1156 693 1181 q 601 1132 643 1132 m 288 1132 q 221 1156 246 1132 q 196 1222 196 1181 q 221 1290 196 1265 q 288 1315 246 1315 q 356 1290 331 1315 q 381 1222 381 1265 q 356 1156 381 1181 q 288 1132 331 1132 z "},"Ж":{"ha":833,"x_min":17,"x_max":817,"o":"m 17 0 l 192 521 l 29 1014 l 165 1014 l 304 563 l 361 563 l 361 1014 l 472 1014 l 472 563 l 529 563 l 668 1014 l 803 1014 l 643 521 l 817 0 l 682 0 l 532 475 l 472 475 l 472 0 l 363 0 l 361 475 l 300 475 l 150 0 l 17 0 z "},"З":{"ha":833,"x_min":71,"x_max":742,"o":"m 403 -14 q 231 22 306 -14 q 115 121 157 57 q 71 269 72 185 l 208 269 q 264 153 211 197 q 401 108 317 108 q 547 158 492 108 q 601 288 601 207 q 547 418 601 368 q 401 468 492 468 l 274 468 l 274 588 l 401 588 q 531 631 482 588 q 581 746 581 675 q 531 863 581 818 q 401 907 482 907 q 269 861 319 907 q 219 740 219 815 l 82 740 q 122 891 82 826 q 235 992 163 956 q 407 1028 308 1028 q 571 994 500 1028 q 681 899 642 960 q 719 757 719 839 q 675 613 719 671 q 553 538 631 556 q 691 453 640 519 q 742 288 742 388 q 699 129 742 197 q 581 24 657 61 q 403 -14 504 -14 z "},"И":{"ha":833,"x_min":119,"x_max":715,"o":"m 119 0 l 119 1014 l 249 1014 l 249 464 q 247 356 249 413 q 242 247 244 299 q 236 158 239 194 l 536 1014 l 715 1014 l 715 0 l 585 0 l 585 547 q 587 655 585 597 q 592 766 589 713 q 600 856 596 819 l 297 0 l 119 0 z "},"Й":{"ha":833,"x_min":119,"x_max":715,"o":"m 119 0 l 119 1014 l 249 1014 l 249 464 q 247 356 249 413 q 242 247 244 299 q 236 158 239 194 l 536 1014 l 715 1014 l 715 0 l 585 0 l 585 547 q 587 655 585 597 q 592 766 589 713 q 600 856 596 819 l 297 0 l 119 0 m 417 1117 q 251 1172 314 1117 q 189 1319 189 1228 l 297 1319 q 330 1236 297 1268 q 415 1204 363 1204 q 503 1236 469 1204 q 536 1319 536 1268 l 644 1319 q 582 1172 644 1228 q 417 1117 519 1117 z "},"К":{"ha":833,"x_min":122,"x_max":781,"o":"m 122 0 l 122 1014 l 260 1014 l 260 585 l 401 585 l 618 1014 l 768 1014 l 522 528 l 781 0 l 625 0 l 399 464 l 260 464 l 260 0 l 122 0 z "},"Ќ":{"ha":833,"x_min":122,"x_max":781,"o":"m 122 0 l 122 1014 l 260 1014 l 260 585 l 401 585 l 618 1014 l 768 1014 l 522 528 l 781 0 l 625 0 l 399 464 l 260 464 l 260 0 l 122 0 m 331 1125 l 476 1319 l 625 1319 l 469 1125 l 331 1125 z "},"Л":{"ha":833,"x_min":26,"x_max":708,"o":"m 26 -7 l 26 121 l 54 121 q 138 173 113 121 q 167 347 164 225 l 178 1014 l 708 1014 l 708 0 l 571 0 l 571 889 l 313 889 l 303 347 q 242 80 300 167 q 63 -7 183 -7 l 26 -7 z "},"М":{"ha":833,"x_min":99,"x_max":735,"o":"m 99 0 l 99 1014 l 274 1014 l 379 688 q 403 599 393 642 q 419 535 414 557 q 434 599 424 557 q 458 689 444 642 l 560 1014 l 735 1014 l 735 0 l 603 0 l 603 465 q 613 713 603 593 q 639 942 624 833 l 481 443 l 353 443 l 193 939 q 219 721 207 836 q 231 465 231 606 l 231 0 l 99 0 z "},"Н":{"ha":833,"x_min":124,"x_max":710,"o":"m 124 0 l 124 1014 l 261 1014 l 261 588 l 572 588 l 572 1014 l 710 1014 l 710 0 l 572 0 l 572 463 l 261 463 l 261 0 l 124 0 z "},"О":{"ha":833,"x_min":117,"x_max":717,"o":"m 417 -14 q 197 65 278 -14 q 117 281 117 143 l 117 735 q 197 949 117 871 q 417 1028 278 1028 q 636 949 556 1028 q 717 735 717 871 l 717 281 q 636 65 717 143 q 417 -14 556 -14 m 417 108 q 537 153 494 108 q 579 281 579 197 l 579 735 q 538 861 579 817 q 417 906 496 906 q 296 861 338 906 q 254 735 254 817 l 254 281 q 297 153 254 197 q 417 108 339 108 z "},"П":{"ha":833,"x_min":125,"x_max":708,"o":"m 125 0 l 125 1014 l 708 1014 l 708 0 l 571 0 l 571 889 l 263 889 l 263 0 l 125 0 z "},"Р":{"ha":833,"x_min":122,"x_max":768,"o":"m 122 0 l 122 1014 l 451 1014 q 619 976 549 1014 q 729 872 690 939 q 768 711 768 804 q 729 552 768 619 q 619 447 690 485 q 451 410 547 410 l 260 410 l 260 0 l 122 0 m 260 532 l 451 532 q 579 581 532 532 q 626 711 626 631 q 579 842 626 793 q 451 892 532 892 l 260 892 l 260 532 z "},"С":{"ha":833,"x_min":117,"x_max":726,"o":"m 422 -14 q 199 65 282 -14 q 117 281 117 143 l 117 735 q 199 949 117 871 q 422 1028 282 1028 q 644 949 561 1028 q 726 735 726 869 l 589 735 q 544 861 589 817 q 422 906 500 906 q 299 861 343 906 q 254 735 254 817 l 254 281 q 299 153 254 197 q 422 108 343 108 q 544 153 500 108 q 589 281 589 197 l 726 281 q 644 65 726 144 q 422 -14 561 -14 z "},"Т":{"ha":833,"x_min":74,"x_max":760,"o":"m 349 0 l 349 889 l 74 889 l 74 1014 l 760 1014 l 760 889 l 486 889 l 486 0 l 349 0 z "},"У":{"ha":833,"x_min":64,"x_max":769,"o":"m 260 0 l 363 261 l 64 1014 l 214 1014 l 389 531 q 416 442 406 485 q 431 379 426 400 q 442 442 433 400 q 467 531 451 485 l 621 1014 l 769 1014 l 406 0 l 260 0 z "},"Ў":{"ha":833,"x_min":64,"x_max":769,"o":"m 260 0 l 363 261 l 64 1014 l 214 1014 l 389 531 q 416 442 406 485 q 431 379 426 400 q 442 442 433 400 q 467 531 451 485 l 621 1014 l 769 1014 l 406 0 l 260 0 m 417 1117 q 251 1172 314 1117 q 189 1319 189 1228 l 297 1319 q 330 1236 297 1268 q 415 1204 363 1204 q 503 1236 469 1204 q 536 1319 536 1268 l 644 1319 q 582 1172 644 1228 q 417 1117 519 1117 z "},"Ф":{"ha":833,"x_min":69,"x_max":764,"o":"m 354 -35 l 354 63 q 205 99 269 63 q 105 200 140 135 q 69 354 69 265 l 69 675 q 105 832 69 765 q 204 935 140 899 q 354 972 268 972 l 354 1069 l 479 1069 l 479 972 q 629 935 565 972 q 728 832 693 899 q 764 675 764 765 l 764 354 q 728 200 764 265 q 628 99 693 135 q 479 63 564 63 l 479 -35 l 354 -35 m 356 176 l 356 858 q 238 809 281 858 q 196 675 196 760 l 196 354 q 238 224 196 271 q 356 176 281 176 m 478 176 q 595 224 553 176 q 638 354 638 271 l 638 675 q 595 809 638 760 q 478 858 553 858 l 478 176 z "},"Х":{"ha":833,"x_min":51,"x_max":782,"o":"m 51 0 l 340 515 l 67 1014 l 224 1014 l 374 725 q 399 674 386 700 q 419 633 413 647 q 439 674 426 647 q 464 725 451 700 l 615 1014 l 767 1014 l 493 522 l 782 0 l 626 0 l 460 311 q 435 363 447 336 q 415 407 422 390 q 396 363 408 390 q 369 313 383 336 l 203 0 l 51 0 z "},"Ч":{"ha":833,"x_min":99,"x_max":707,"o":"m 569 0 l 569 396 q 490 381 544 388 q 383 375 436 375 q 99 629 99 375 l 99 1014 l 236 1014 l 236 632 q 408 497 236 497 q 504 503 457 497 q 569 517 551 508 l 569 1014 l 707 1014 l 707 0 l 569 0 z "},"Ц":{"ha":833,"x_min":125,"x_max":788,"o":"m 664 -194 l 664 0 l 125 0 l 125 1014 l 263 1014 l 263 122 l 546 122 l 546 1014 l 683 1014 l 683 122 l 788 122 l 788 -194 l 664 -194 z "},"Ш":{"ha":833,"x_min":83,"x_max":750,"o":"m 86 0 l 83 1014 l 208 1014 l 208 101 l 364 101 l 364 1014 l 471 1014 l 471 101 l 626 101 l 626 1014 l 750 1014 l 750 0 l 86 0 z "},"Щ":{"ha":833,"x_min":83,"x_max":801,"o":"m 679 -194 l 679 0 l 83 0 l 83 1014 l 203 1014 l 203 111 l 357 111 l 357 1014 l 460 1014 l 460 111 l 613 111 l 613 1014 l 732 1014 l 732 111 l 801 111 l 801 -194 l 679 -194 z "},"Џ":{"ha":833,"x_min":125,"x_max":708,"o":"m 349 -174 l 349 0 l 125 0 l 125 1014 l 263 1014 l 263 126 l 571 126 l 571 1014 l 708 1014 l 708 0 l 486 0 l 486 -174 l 349 -174 z "},"Ь":{"ha":833,"x_min":125,"x_max":768,"o":"m 125 0 l 125 1014 l 263 1014 l 263 600 l 454 600 q 619 563 549 600 q 728 458 689 525 q 768 300 768 390 q 728 143 768 211 q 619 38 689 75 q 454 0 549 0 l 125 0 m 263 124 l 449 124 q 578 172 529 124 q 626 300 626 221 q 578 428 626 379 q 449 476 529 476 l 263 476 l 263 124 z "},"Ъ":{"ha":833,"x_min":-7,"x_max":768,"o":"m 182 0 l 182 892 l -7 892 l -7 1014 l 319 1014 l 319 600 l 454 600 q 619 563 549 600 q 728 458 689 525 q 768 300 768 390 q 728 143 768 211 q 619 38 689 75 q 454 0 549 0 l 182 0 m 319 124 l 449 124 q 578 172 529 124 q 626 300 626 221 q 578 428 626 379 q 449 476 529 476 l 319 476 l 319 124 z "},"Ы":{"ha":833,"x_min":85,"x_max":749,"o":"m 85 0 l 85 1014 l 210 1014 l 210 600 l 264 600 q 462 529 389 600 q 535 336 535 458 l 535 263 q 463 70 535 140 q 264 0 390 0 l 85 0 m 624 0 l 624 1014 l 749 1014 l 749 0 l 624 0 m 210 117 l 264 117 q 371 156 333 117 q 408 264 408 194 l 408 336 q 371 444 408 406 q 264 483 333 483 l 210 483 l 210 117 z "},"Љ":{"ha":833,"x_min":-8,"x_max":808,"o":"m -8 -7 l -8 111 l 18 111 q 74 154 53 111 q 96 272 94 197 l 103 1014 l 507 1014 l 507 600 l 579 600 q 745 540 682 600 q 808 379 808 479 l 808 222 q 745 60 808 121 q 579 0 682 0 l 388 0 l 388 903 l 221 903 l 214 272 q 159 68 213 143 q 17 -7 106 -7 l -8 -7 m 507 111 l 579 111 q 659 142 629 111 q 689 222 689 172 l 689 378 q 659 459 689 429 q 579 489 629 489 l 507 489 l 507 111 z "},"Њ":{"ha":833,"x_min":71,"x_max":808,"o":"m 71 0 l 71 1014 l 190 1014 l 190 603 l 388 603 l 388 1014 l 507 1014 l 507 603 l 579 603 q 747 543 685 603 q 808 381 808 483 l 808 222 q 747 60 808 119 q 579 0 685 0 l 388 0 l 388 492 l 190 492 l 190 0 l 71 0 m 507 111 l 579 111 q 660 140 631 111 q 689 222 689 169 l 689 381 q 660 462 689 432 q 579 492 631 492 l 507 492 l 507 111 z "},"Ѕ":{"ha":833,"x_min":94,"x_max":739,"o":"m 421 -14 q 249 21 322 -14 q 135 119 175 56 q 94 268 94 182 l 232 268 q 284 152 232 196 q 422 108 336 108 q 554 152 506 108 q 603 268 603 196 q 572 369 603 325 q 489 428 542 413 l 346 471 q 180 578 239 503 q 121 754 121 653 q 203 953 121 879 q 424 1028 285 1028 q 643 953 561 1028 q 725 756 725 879 l 588 756 q 543 865 588 824 q 424 907 499 907 q 301 866 347 907 q 256 757 256 825 q 287 664 256 703 q 374 608 318 625 l 521 563 q 681 453 622 531 q 739 269 739 375 q 699 119 739 183 q 589 21 660 56 q 421 -14 518 -14 z "},"Є":{"ha":833,"x_min":119,"x_max":724,"o":"m 422 -14 q 201 65 282 -14 q 119 281 119 143 l 119 735 q 201 949 119 871 q 422 1028 282 1028 q 642 949 561 1028 q 724 735 724 869 l 586 735 q 543 862 586 817 q 422 907 500 907 q 300 862 343 907 q 257 735 257 817 l 257 574 l 565 574 l 565 449 l 257 449 l 257 281 q 300 153 257 197 q 422 108 343 108 q 543 153 500 108 q 586 281 586 197 l 724 281 q 642 65 724 144 q 422 -14 561 -14 z "},"Э":{"ha":833,"x_min":110,"x_max":715,"o":"m 411 -14 q 191 65 272 -14 q 110 281 110 144 l 247 281 q 290 153 247 197 q 411 108 333 108 q 534 153 490 108 q 578 281 578 197 l 578 449 l 269 449 l 269 574 l 578 574 l 578 735 q 534 862 578 817 q 411 907 490 907 q 290 862 333 907 q 247 735 247 817 l 110 735 q 191 949 110 869 q 411 1028 272 1028 q 633 949 551 1028 q 715 735 715 871 l 715 281 q 633 65 715 143 q 411 -14 551 -14 z "},"І":{"ha":833,"x_min":140,"x_max":693,"o":"m 140 0 l 140 125 l 347 125 l 347 889 l 140 889 l 140 1014 l 693 1014 l 693 889 l 486 889 l 486 125 l 693 125 l 693 0 l 140 0 z "},"Ї":{"ha":833,"x_min":140,"x_max":693,"o":"m 140 0 l 140 125 l 347 125 l 347 889 l 140 889 l 140 1014 l 693 1014 l 693 889 l 486 889 l 486 125 l 693 125 l 693 0 l 140 0 m 574 1132 q 506 1156 531 1132 q 481 1222 481 1181 q 506 1290 481 1265 q 574 1315 531 1315 q 640 1290 615 1315 q 665 1222 665 1265 q 640 1156 665 1181 q 574 1132 615 1132 m 260 1132 q 193 1156 218 1132 q 168 1222 168 1181 q 193 1290 168 1265 q 260 1315 218 1315 q 328 1290 303 1315 q 353 1222 353 1265 q 328 1156 353 1181 q 260 1132 303 1132 z "},"Ј":{"ha":833,"x_min":57,"x_max":693,"o":"m 375 -14 q 142 69 226 -14 q 57 294 57 151 l 194 294 q 242 157 194 206 q 375 108 290 108 q 508 157 460 108 q 556 293 556 206 l 556 889 l 271 889 l 271 1014 l 693 1014 l 693 293 q 608 69 693 151 q 375 -14 522 -14 z "},"Ћ":{"ha":833,"x_min":0,"x_max":751,"o":"m 151 0 l 151 892 l 0 892 l 0 1014 l 453 1014 l 453 892 l 289 892 l 289 556 l 310 578 q 531 688 413 688 q 691 619 631 688 q 751 433 751 550 l 751 0 l 614 0 l 614 408 q 499 571 614 571 q 347 489 424 571 l 289 426 l 289 0 l 151 0 z "},"Ю":{"ha":833,"x_min":79,"x_max":781,"o":"m 540 -14 q 373 57 435 -14 q 311 249 311 128 l 311 463 l 203 463 l 203 0 l 79 0 l 79 1014 l 203 1014 l 203 579 l 311 579 l 311 767 q 372 958 311 888 q 540 1028 433 1028 q 716 958 651 1028 q 781 767 781 888 l 781 249 q 716 57 781 128 q 540 -14 651 -14 m 540 101 q 627 139 597 101 q 657 246 657 176 l 657 768 q 627 875 657 838 q 540 913 597 913 q 456 875 485 913 q 426 768 426 838 l 426 246 q 456 139 426 176 q 540 101 485 101 z "},"Я":{"ha":833,"x_min":74,"x_max":707,"o":"m 74 0 l 279 440 q 137 543 189 469 q 85 719 85 617 q 124 874 85 808 q 232 977 163 940 q 394 1014 301 1014 l 707 1014 l 707 0 l 571 0 l 571 424 l 418 424 l 231 0 l 74 0 m 394 544 l 571 544 l 571 893 l 394 893 q 272 845 318 893 q 226 718 226 797 q 272 592 226 640 q 394 544 318 544 z "},"Ђ":{"ha":833,"x_min":0,"x_max":751,"o":"m 367 -250 l 367 -124 l 461 -124 q 573 -83 532 -124 q 614 26 614 -43 l 614 408 q 499 571 614 571 q 347 489 424 571 l 289 426 l 289 0 l 151 0 l 151 892 l 0 892 l 0 1014 l 453 1014 l 453 892 l 289 892 l 289 556 l 310 578 q 531 688 413 688 q 691 619 631 688 q 751 433 751 550 l 751 24 q 715 -121 751 -60 q 613 -216 679 -182 q 460 -250 547 -250 l 367 -250 z "},"Ғ":{"ha":833,"x_min":42,"x_max":772,"o":"m 178 0 l 178 449 l 42 449 l 42 569 l 178 569 l 178 1014 l 772 1014 l 772 889 l 315 889 l 315 569 l 531 569 l 531 449 l 315 449 l 315 0 l 178 0 z "},"Қ":{"ha":833,"x_min":106,"x_max":815,"o":"m 106 0 l 106 1014 l 243 1014 l 243 585 l 386 585 l 603 1014 l 751 1014 l 507 528 l 704 124 l 815 124 l 815 -194 l 693 -194 l 693 0 l 610 0 l 382 464 l 243 464 l 243 0 l 106 0 z "},"Ң":{"ha":833,"x_min":117,"x_max":772,"o":"m 117 0 l 117 1014 l 254 1014 l 254 588 l 565 588 l 565 1014 l 703 1014 l 703 124 l 772 124 l 772 -194 l 651 -194 l 651 0 l 565 0 l 565 463 l 254 463 l 254 0 l 117 0 z "},"Ү":{"ha":833,"x_min":44,"x_max":789,"o":"m 349 0 l 349 376 l 44 1014 l 188 1014 l 378 614 q 405 549 394 578 q 418 507 415 519 q 433 549 422 519 q 461 614 443 578 l 647 1014 l 789 1014 l 486 376 l 486 0 l 349 0 z "},"Ұ":{"ha":833,"x_min":44,"x_max":789,"o":"m 172 269 l 172 376 l 349 376 l 44 1014 l 188 1014 l 378 614 q 405 549 394 578 q 418 507 415 519 q 433 549 422 519 q 461 614 443 578 l 647 1014 l 789 1014 l 486 376 l 661 376 l 661 269 l 486 269 l 486 0 l 349 0 l 349 269 l 172 269 z "},"Ҷ":{"ha":833,"x_min":85,"x_max":760,"o":"m 556 0 l 556 396 q 476 381 531 388 q 369 375 422 375 q 85 629 85 375 l 85 1014 l 222 1014 l 222 632 q 394 497 222 497 q 490 503 443 497 q 556 517 538 508 l 556 1014 l 693 1014 l 693 124 l 760 124 l 760 -194 l 638 -194 l 638 0 l 556 0 z "},"Һ":{"ha":833,"x_min":126,"x_max":735,"o":"m 264 1014 l 264 618 q 343 633 289 626 q 450 639 397 639 q 735 385 735 639 l 735 0 l 597 0 l 597 382 q 425 517 597 517 q 329 511 376 517 q 264 497 282 506 l 264 0 l 126 0 l 126 1014 l 264 1014 z "},"Ә":{"ha":833,"x_min":110,"x_max":715,"o":"m 413 -14 q 192 65 274 -14 q 110 281 110 144 l 110 574 l 578 574 l 578 735 q 533 860 578 814 q 413 907 489 907 q 292 860 336 907 q 247 735 247 814 l 110 735 q 192 949 110 869 q 413 1028 274 1028 q 633 949 551 1028 q 715 735 715 869 l 715 281 q 633 65 715 144 q 413 -14 551 -14 m 413 108 q 533 154 489 108 q 578 281 578 200 l 578 449 l 247 449 l 247 281 q 292 154 247 200 q 413 108 336 108 z "},"Ө":{"ha":833,"x_min":119,"x_max":715,"o":"m 417 -14 q 198 65 276 -14 q 119 282 119 144 l 119 733 q 198 949 119 871 q 417 1028 276 1028 q 636 949 557 1028 q 715 733 715 871 l 715 282 q 635 66 715 146 q 417 -14 556 -14 m 253 579 l 581 579 l 581 732 q 539 862 581 817 q 417 907 497 907 q 294 862 336 907 q 253 732 253 817 l 253 579 m 417 107 q 538 153 496 107 q 581 283 581 199 l 581 458 l 253 458 l 253 283 q 295 153 253 199 q 417 107 338 107 z "},"а":{"ha":833,"x_min":88,"x_max":714,"o":"m 346 -14 q 156 48 225 -14 q 88 215 88 110 q 159 385 88 324 q 354 447 231 447 l 576 447 l 576 519 q 535 623 576 586 q 422 660 494 660 q 313 631 357 660 q 260 557 269 603 l 125 557 q 171 673 131 624 q 276 750 211 722 q 424 778 342 778 q 635 709 557 778 q 714 524 714 640 l 714 0 l 579 0 l 579 142 l 578 142 q 506 28 568 69 q 346 -14 443 -14 m 383 93 q 522 135 467 93 q 576 244 576 178 l 576 349 l 357 349 q 260 315 296 349 q 225 225 225 282 q 267 128 225 163 q 383 93 308 93 z "},"б":{"ha":833,"x_min":115,"x_max":724,"o":"m 419 -14 q 197 67 279 -14 q 115 286 115 147 l 115 632 q 160 835 115 750 q 286 967 204 921 q 482 1014 368 1014 l 682 1014 l 682 879 l 482 879 q 313 813 376 879 q 250 632 250 746 l 250 553 l 253 553 q 319 660 263 622 q 463 699 375 699 q 653 620 583 699 q 724 407 724 542 l 724 286 q 642 67 724 147 q 419 -14 560 -14 m 419 108 q 542 156 497 108 q 586 286 586 203 l 586 407 q 542 537 586 489 q 419 585 497 585 q 297 537 342 585 q 253 407 253 489 l 253 286 q 297 156 253 203 q 419 108 342 108 z "},"в":{"ha":833,"x_min":122,"x_max":735,"o":"m 122 0 l 122 764 l 454 764 q 640 711 571 764 q 708 569 708 658 q 664 457 708 500 q 543 411 619 414 l 543 406 q 683 351 631 403 q 735 215 735 300 q 663 58 735 117 q 467 0 590 0 l 122 0 m 257 446 l 453 446 q 542 473 510 446 q 574 549 574 500 q 542 622 574 596 q 453 649 510 649 l 257 649 l 257 446 m 257 115 l 464 115 q 563 145 528 115 q 599 228 599 175 q 563 310 599 281 q 464 340 528 340 l 257 340 l 257 115 z "},"г":{"ha":833,"x_min":178,"x_max":732,"o":"m 178 0 l 178 764 l 732 764 l 732 638 l 315 638 l 315 0 l 178 0 z "},"ѓ":{"ha":833,"x_min":178,"x_max":732,"o":"m 178 0 l 178 764 l 732 764 l 732 638 l 315 638 l 315 0 l 178 0 m 372 896 l 518 1090 l 667 1090 l 511 896 l 372 896 z "},"ґ":{"ha":833,"x_min":178,"x_max":732,"o":"m 178 0 l 178 764 l 601 764 l 601 910 l 732 910 l 732 638 l 315 638 l 315 0 l 178 0 z "},"д":{"ha":833,"x_min":40,"x_max":788,"o":"m 40 -194 l 40 118 l 100 118 q 148 209 122 142 q 176 381 174 276 l 185 764 l 692 764 l 692 118 l 788 118 l 788 -194 l 664 -194 l 664 0 l 164 0 l 164 -194 l 40 -194 m 243 118 l 557 118 l 557 643 l 314 643 l 308 378 q 284 206 306 272 q 243 118 263 139 z "},"е":{"ha":833,"x_min":113,"x_max":721,"o":"m 417 -14 q 256 23 325 -14 q 150 126 188 60 q 113 281 113 192 l 113 485 q 150 638 113 572 q 256 741 188 704 q 417 778 325 778 q 577 741 508 778 q 683 638 646 704 q 721 485 721 572 l 721 349 l 247 349 l 247 281 q 291 146 247 192 q 417 100 335 100 q 528 124 486 100 q 581 197 569 149 l 717 197 q 620 43 703 100 q 417 -14 538 -14 m 247 485 l 247 447 l 588 447 l 588 485 q 544 619 588 572 q 417 665 500 665 q 290 619 333 665 q 247 485 247 572 z "},"ё":{"ha":833,"x_min":113,"x_max":721,"o":"m 417 -14 q 256 23 325 -14 q 150 126 188 60 q 113 281 113 192 l 113 485 q 150 638 113 572 q 256 741 188 704 q 417 778 325 778 q 577 741 508 778 q 683 638 646 704 q 721 485 721 572 l 721 349 l 247 349 l 247 281 q 291 146 247 192 q 417 100 335 100 q 528 124 486 100 q 581 197 569 149 l 717 197 q 620 43 703 100 q 417 -14 538 -14 m 247 485 l 247 447 l 588 447 l 588 485 q 544 619 588 572 q 417 665 500 665 q 290 619 333 665 q 247 485 247 572 m 574 899 q 506 923 531 899 q 481 989 481 947 q 506 1057 481 1032 q 574 1082 531 1082 q 640 1057 615 1082 q 665 989 665 1032 q 640 923 665 947 q 574 899 615 899 m 260 899 q 193 923 218 899 q 168 989 168 947 q 193 1057 168 1032 q 260 1082 218 1082 q 328 1057 303 1082 q 353 989 353 1032 q 328 923 353 947 q 260 899 303 899 z "},"ж":{"ha":833,"x_min":22,"x_max":811,"o":"m 22 0 l 186 392 l 33 764 l 163 764 l 293 429 l 361 429 l 361 764 l 472 764 l 472 429 l 538 429 l 674 764 l 800 764 l 649 396 l 811 0 l 679 0 l 542 349 l 472 349 l 472 0 l 361 0 l 361 349 l 292 349 l 154 0 l 22 0 z "},"з":{"ha":833,"x_min":86,"x_max":729,"o":"m 374 -10 q 178 43 256 -10 q 86 188 100 96 l 229 188 q 274 131 235 151 q 374 110 314 110 l 447 110 q 549 141 513 110 q 585 222 585 172 q 550 306 585 274 q 447 338 515 338 l 264 338 l 264 453 l 438 453 q 529 481 497 453 q 561 556 561 508 q 438 654 561 654 l 374 654 q 279 632 317 654 q 235 571 242 610 l 92 571 q 181 719 106 665 q 374 774 257 774 l 438 774 q 633 718 563 774 q 704 565 704 663 q 660 454 704 496 q 535 408 617 413 l 535 406 q 681 350 633 400 q 729 214 729 300 q 653 51 729 113 q 447 -10 576 -10 l 374 -10 z "},"и":{"ha":833,"x_min":122,"x_max":711,"o":"m 122 0 l 122 764 l 251 764 l 251 358 q 249 273 251 318 q 242 185 246 228 q 235 114 238 143 l 538 764 l 711 764 l 711 0 l 582 0 l 582 407 q 585 491 582 446 q 591 577 588 536 q 599 647 594 618 l 296 0 l 122 0 z "},"й":{"ha":833,"x_min":122,"x_max":711,"o":"m 122 0 l 122 764 l 251 764 l 251 358 q 249 273 251 318 q 242 185 246 228 q 235 114 238 143 l 538 764 l 711 764 l 711 0 l 582 0 l 582 407 q 585 491 582 446 q 591 577 588 536 q 599 647 594 618 l 296 0 l 122 0 m 417 888 q 251 943 314 888 q 189 1090 189 999 l 297 1090 q 330 1007 297 1039 q 415 975 363 975 q 503 1007 469 975 q 536 1090 536 1039 l 644 1090 q 582 943 644 999 q 417 888 519 888 z "},"к":{"ha":833,"x_min":126,"x_max":778,"o":"m 126 0 l 126 764 l 264 764 l 264 453 l 404 453 l 618 764 l 774 764 l 524 399 l 778 0 l 618 0 l 406 335 l 264 335 l 264 0 l 126 0 z "},"ќ":{"ha":833,"x_min":126,"x_max":778,"o":"m 126 0 l 126 764 l 264 764 l 264 453 l 404 453 l 618 764 l 774 764 l 524 399 l 778 0 l 618 0 l 406 335 l 264 335 l 264 0 l 126 0 m 331 896 l 476 1090 l 625 1090 l 469 896 l 331 896 z "},"л":{"ha":833,"x_min":33,"x_max":711,"o":"m 33 -10 l 33 118 l 61 118 q 146 165 121 118 q 174 329 171 211 l 182 764 l 711 764 l 711 0 l 574 0 l 574 639 l 317 639 l 311 322 q 249 69 307 149 q 69 -10 192 -10 l 33 -10 z "},"м":{"ha":833,"x_min":99,"x_max":735,"o":"m 99 0 l 99 764 l 278 764 l 376 472 q 403 383 392 426 q 421 318 415 340 q 436 383 425 340 q 463 474 447 426 l 556 764 l 735 764 l 735 0 l 604 0 l 604 121 q 606 258 604 181 q 612 415 608 335 q 618 567 615 496 q 624 690 621 639 l 486 228 l 351 228 l 211 683 q 217 569 214 638 q 222 422 219 500 q 227 265 225 343 q 229 121 229 186 l 229 0 l 99 0 z "},"н":{"ha":833,"x_min":122,"x_max":711,"o":"m 122 0 l 122 764 l 260 764 l 260 454 l 574 454 l 574 764 l 711 764 l 711 0 l 574 0 l 574 329 l 260 329 l 260 0 l 122 0 z "},"о":{"ha":833,"x_min":113,"x_max":721,"o":"m 417 -11 q 194 67 276 -11 q 113 282 113 146 l 113 482 q 194 697 113 618 q 417 775 276 775 q 639 697 557 775 q 721 483 721 618 l 721 282 q 639 67 721 146 q 417 -11 557 -11 m 417 110 q 539 153 494 110 q 583 282 583 197 l 583 482 q 539 610 583 567 q 417 654 494 654 q 294 610 339 654 q 250 482 250 567 l 250 282 q 294 153 250 197 q 417 110 339 110 z "}}}
